<ttFont>
    <TTGlyph name=".notdef" xMin="65" yMin="-162" xMax="1938" yMax="1247">
      <contour>
        <pt x="1165" y="471" on="1"/>
        <pt x="1356" y="324" on="1"/>
        <pt x="1364" y="326" on="0"/>
        <pt x="1412" y="386" on="0"/>
        <pt x="1411" y="393" on="1"/>
        <pt x="1396" y="407" on="0"/>
        <pt x="1270" y="515" on="0"/>
        <pt x="1227" y="553" on="1"/>
        <pt x="1253" y="588" on="0"/>
        <pt x="1320" y="676" on="0"/>
        <pt x="1365" y="735" on="0"/>
        <pt x="1376" y="752" on="1"/>
        <pt x="1331" y="791" on="0"/>
        <pt x="1300" y="805" on="1"/>
        <pt x="1149" y="614" on="1"/>
        <pt x="1040" y="701" on="0"/>
        <pt x="950" y="764" on="1"/>
        <pt x="909" y="717" on="0"/>
        <pt x="897" y="684" on="1"/>
        <pt x="1083" y="537" on="1"/>
        <pt x="936" y="346" on="1"/>
        <pt x="938" y="337" on="0"/>
        <pt x="998" y="290" on="0"/>
        <pt x="1006" y="291" on="1"/>
      </contour>
      <contour>
        <pt x="1935" y="1100" on="1"/>
        <pt x="1804" y="965" on="1"/>
        <pt x="1802" y="967" on="1"/>
        <pt x="1797" y="482" on="0"/>
        <pt x="1309" y="150" on="1"/>
        <pt x="1309" y="140" on="0"/>
        <pt x="1304" y="120" on="0"/>
        <pt x="1286" y="100" on="0"/>
        <pt x="1272" y="100" on="1"/>
        <pt x="1247" y="76" on="1"/>
        <pt x="1379" y="29" on="0"/>
        <pt x="1442" y="-2" on="1"/>
        <pt x="1445" y="-2" on="0"/>
        <pt x="1493" y="-1" on="0"/>
        <pt x="1514" y="-3" on="0"/>
        <pt x="1557" y="-9" on="0"/>
        <pt x="1594" y="-26" on="0"/>
        <pt x="1612" y="-39" on="1"/>
        <pt x="1612" y="-42" on="0"/>
        <pt x="1612" y="-45" on="0"/>
        <pt x="1610" y="-48" on="0"/>
        <pt x="1609" y="-49" on="0"/>
        <pt x="1605" y="-52" on="0"/>
        <pt x="1604" y="-53" on="1"/>
        <pt x="1547" y="-27" on="0"/>
        <pt x="1517" y="-25" on="1"/>
        <pt x="1502" y="-25" on="0"/>
        <pt x="1485" y="-27" on="1"/>
        <pt x="1539" y="-56" on="0"/>
        <pt x="1561" y="-88" on="1"/>
        <pt x="1558" y="-97" on="0"/>
        <pt x="1542" y="-100" on="1"/>
        <pt x="1475" y="-33" on="0"/>
        <pt x="1411" y="-35" on="1"/>
        <pt x="1401" y="-35" on="0"/>
        <pt x="1386" y="-36" on="0"/>
        <pt x="1371" y="-39" on="0"/>
        <pt x="1362" y="-40" on="0"/>
        <pt x="1344" y="-47" on="0"/>
        <pt x="1337" y="-50" on="0"/>
        <pt x="1313" y="-61" on="0"/>
        <pt x="1307" y="-63" on="1"/>
        <pt x="1304" y="-61" on="0"/>
        <pt x="1298" y="-61" on="0"/>
        <pt x="1295" y="-58" on="0"/>
        <pt x="1294" y="-51" on="1"/>
        <pt x="1304" y="-40" on="0"/>
        <pt x="1324" y="-26" on="0"/>
        <pt x="1340" y="-21" on="0"/>
        <pt x="1371" y="-12" on="0"/>
        <pt x="1382" y="-8" on="1"/>
        <pt x="1345" y="12" on="0"/>
        <pt x="1253" y="46" on="0"/>
        <pt x="1204" y="63" on="0"/>
        <pt x="1204" y="70" on="1"/>
        <pt x="1204" y="82" on="0"/>
        <pt x="1227" y="100" on="1"/>
        <pt x="1212" y="100" on="0"/>
        <pt x="1191" y="128" on="0"/>
        <pt x="1188" y="139" on="1"/>
        <pt x="1133" y="139" on="1"/>
        <pt x="1072" y="139" on="0"/>
        <pt x="1020" y="147" on="1"/>
        <pt x="1000" y="93" on="0"/>
        <pt x="965" y="100" on="1"/>
        <pt x="941" y="87" on="0"/>
        <pt x="934" y="80" on="1"/>
        <pt x="1066" y="-4" on="0"/>
        <pt x="1106" y="-37" on="1"/>
        <pt x="1113" y="-39" on="0"/>
        <pt x="1166" y="-47" on="0"/>
        <pt x="1194" y="-55" on="0"/>
        <pt x="1237" y="-82" on="0"/>
        <pt x="1253" y="-104" on="1"/>
        <pt x="1253" y="-109" on="0"/>
        <pt x="1251" y="-113" on="0"/>
        <pt x="1245" y="-117" on="0"/>
        <pt x="1243" y="-119" on="1"/>
        <pt x="1217" y="-95" on="0"/>
        <pt x="1183" y="-78" on="0"/>
        <pt x="1143" y="-72" on="1"/>
        <pt x="1183" y="-97" on="0"/>
        <pt x="1198" y="-152" on="1"/>
        <pt x="1194" y="-162" on="0"/>
        <pt x="1182" y="-160" on="1"/>
        <pt x="1129" y="-76" on="0"/>
        <pt x="1073" y="-63" on="1"/>
        <pt x="1008" y="-54" on="0"/>
        <pt x="930" y="-74" on="1"/>
        <pt x="924" y="-65" on="0"/>
        <pt x="924" y="-57" on="1"/>
        <pt x="929" y="-53" on="0"/>
        <pt x="940" y="-48" on="0"/>
        <pt x="954" y="-43" on="0"/>
        <pt x="963" y="-40" on="0"/>
        <pt x="981" y="-37" on="0"/>
        <pt x="988" y="-36" on="0"/>
        <pt x="1009" y="-34" on="0"/>
        <pt x="1014" y="-34" on="0"/>
        <pt x="1039" y="-33" on="0"/>
        <pt x="1040" y="-33" on="1"/>
        <pt x="1013" y="-10" on="0"/>
        <pt x="931" y="42" on="0"/>
        <pt x="887" y="74" on="0"/>
        <pt x="887" y="84" on="1"/>
        <pt x="887" y="90" on="0"/>
        <pt x="892" y="97" on="0"/>
        <pt x="908" y="108" on="0"/>
        <pt x="913" y="113" on="1"/>
        <pt x="893" y="133" on="0"/>
        <pt x="899" y="178" on="1"/>
        <pt x="817" y="223" on="0"/>
        <pt x="677" y="341" on="0"/>
        <pt x="571" y="473" on="0"/>
        <pt x="505" y="571" on="0"/>
        <pt x="469" y="631" on="1"/>
        <pt x="464" y="641" on="0"/>
        <pt x="461" y="645" on="1"/>
        <pt x="452" y="648" on="0"/>
        <pt x="375" y="674" on="0"/>
        <pt x="352" y="682" on="0"/>
        <pt x="284" y="705" on="0"/>
        <pt x="256" y="717" on="0"/>
        <pt x="200" y="739" on="0"/>
        <pt x="169" y="755" on="0"/>
        <pt x="127" y="777" on="0"/>
        <pt x="94" y="799" on="0"/>
        <pt x="80" y="811" on="1"/>
        <pt x="65" y="823" on="0"/>
        <pt x="73" y="856" on="0"/>
        <pt x="92" y="856" on="1"/>
        <pt x="616" y="811" on="1"/>
        <pt x="689" y="826" on="0"/>
        <pt x="863" y="859" on="0"/>
        <pt x="964" y="879" on="0"/>
        <pt x="1082" y="903" on="0"/>
        <pt x="1148" y="919" on="0"/>
        <pt x="1220" y="941" on="0"/>
        <pt x="1261" y="963" on="0"/>
        <pt x="1296" y="989" on="0"/>
        <pt x="1307" y="1006" on="1"/>
        <pt x="1368" y="1114" on="0"/>
        <pt x="1497" y="1206" on="0"/>
        <pt x="1585" y="1206" on="1"/>
        <pt x="1636" y="1206" on="0"/>
        <pt x="1681" y="1192" on="1"/>
        <pt x="1681" y="1194" on="1"/>
        <pt x="1833" y="1247" on="1"/>
        <pt x="1839" y="1247" on="0"/>
        <pt x="1839" y="1243" on="1"/>
        <pt x="1839" y="1241" on="1"/>
        <pt x="1788" y="1100" on="1"/>
        <pt x="1931" y="1106" on="1"/>
        <pt x="1938" y="1106" on="0"/>
      </contour>
    </TTGlyph>
    <TTGlyph name="A" xMin="31" yMin="-8" xMax="1587" yMax="1499">
      <contour>
        <pt x="791" y="1485" on="1"/>
        <pt x="806" y="1496" on="0"/>
        <pt x="823" y="1499" on="1"/>
        <pt x="1370" y="133" on="1"/>
        <pt x="1380" y="108" on="0"/>
        <pt x="1426" y="73" on="0"/>
        <pt x="1495" y="54" on="0"/>
        <pt x="1546" y="45" on="0"/>
        <pt x="1583" y="41" on="1"/>
        <pt x="1587" y="25" on="0"/>
        <pt x="1587" y="14" on="1"/>
        <pt x="1587" y="2" on="0"/>
        <pt x="1583" y="-8" on="1"/>
        <pt x="1367" y="0" on="0"/>
        <pt x="1260" y="0" on="1"/>
        <pt x="1144" y="0" on="0"/>
        <pt x="924" y="-8" on="1"/>
        <pt x="920" y="4" on="0"/>
        <pt x="920" y="16" on="1"/>
        <pt x="920" y="29" on="0"/>
        <pt x="924" y="41" on="1"/>
        <pt x="1126" y="63" on="0"/>
        <pt x="1126" y="117" on="1"/>
        <pt x="1126" y="134" on="0"/>
        <pt x="1122" y="152" on="1"/>
        <pt x="977" y="524" on="1"/>
        <pt x="911" y="526" on="0"/>
        <pt x="799" y="526" on="1"/>
        <pt x="746" y="526" on="0"/>
        <pt x="524" y="522" on="1"/>
        <pt x="371" y="133" on="1"/>
        <pt x="371" y="121" on="1"/>
        <pt x="371" y="111" on="0"/>
        <pt x="378" y="93" on="0"/>
        <pt x="395" y="79" on="0"/>
        <pt x="411" y="69" on="0"/>
        <pt x="440" y="60" on="0"/>
        <pt x="461" y="55" on="0"/>
        <pt x="498" y="49" on="0"/>
        <pt x="518" y="46" on="0"/>
        <pt x="557" y="42" on="0"/>
        <pt x="565" y="41" on="1"/>
        <pt x="569" y="25" on="0"/>
        <pt x="569" y="14" on="1"/>
        <pt x="569" y="8" on="0"/>
        <pt x="565" y="-8" on="1"/>
        <pt x="341" y="0" on="0"/>
        <pt x="313" y="0" on="1"/>
        <pt x="259" y="0" on="0"/>
        <pt x="35" y="-8" on="1"/>
        <pt x="31" y="4" on="0"/>
        <pt x="31" y="16" on="1"/>
        <pt x="31" y="29" on="0"/>
        <pt x="35" y="41" on="1"/>
        <pt x="243" y="65" on="0"/>
        <pt x="272" y="143" on="1"/>
        <pt x="702" y="1227" on="1"/>
        <pt x="680" y="1286" on="1"/>
        <pt x="737" y="1324" on="0"/>
        <pt x="782" y="1412" on="0"/>
      </contour>
      <contour>
        <pt x="799" y="604" on="1"/>
        <pt x="891" y="604" on="0"/>
        <pt x="944" y="606" on="1"/>
        <pt x="754" y="1098" on="1"/>
        <pt x="750" y="1098" on="1"/>
        <pt x="559" y="608" on="1"/>
        <pt x="653" y="604" on="0"/>
      </contour>
    </TTGlyph>
    <TTGlyph name="AE" xMin="0" yMin="-8" xMax="2257" yMax="1470">
      <contour>
        <pt x="809" y="1470" on="1"/>
        <pt x="894" y="1467" on="0"/>
        <pt x="1069" y="1462" on="0"/>
        <pt x="1159" y="1462" on="1"/>
        <pt x="1274" y="1462" on="1"/>
        <pt x="1378" y="1463" on="0"/>
        <pt x="1574" y="1463" on="0"/>
        <pt x="1768" y="1464" on="0"/>
        <pt x="1964" y="1467" on="0"/>
        <pt x="2068" y="1470" on="1"/>
        <pt x="2075" y="1414" on="0"/>
        <pt x="2106" y="1311" on="0"/>
        <pt x="2146" y="1217" on="0"/>
        <pt x="2193" y="1130" on="0"/>
        <pt x="2216" y="1090" on="1"/>
        <pt x="2208" y="1073" on="0"/>
        <pt x="2181" y="1063" on="1"/>
        <pt x="2147" y="1126" on="0"/>
        <pt x="2044" y="1240" on="0"/>
        <pt x="1885" y="1330" on="0"/>
        <pt x="1662" y="1391" on="0"/>
        <pt x="1509" y="1401" on="1"/>
        <pt x="1274" y="1401" on="1"/>
        <pt x="1271" y="1303" on="0"/>
        <pt x="1266" y="1133" on="0"/>
        <pt x="1263" y="978" on="0"/>
        <pt x="1262" y="834" on="0"/>
        <pt x="1262" y="764" on="1"/>
        <pt x="1505" y="764" on="1"/>
        <pt x="1572" y="764" on="0"/>
        <pt x="1663" y="813" on="0"/>
        <pt x="1732" y="898" on="0"/>
        <pt x="1790" y="1010" on="0"/>
        <pt x="1823" y="1073" on="1"/>
        <pt x="1835" y="1068" on="0"/>
        <pt x="1857" y="1056" on="0"/>
        <pt x="1862" y="1047" on="1"/>
        <pt x="1841" y="1011" on="0"/>
        <pt x="1804" y="926" on="0"/>
        <pt x="1777" y="842" on="0"/>
        <pt x="1761" y="764" on="0"/>
        <pt x="1761" y="733" on="1"/>
        <pt x="1761" y="650" on="0"/>
        <pt x="1820" y="491" on="0"/>
        <pt x="1862" y="420" on="1"/>
        <pt x="1857" y="411" on="0"/>
        <pt x="1835" y="398" on="0"/>
        <pt x="1823" y="393" on="1"/>
        <pt x="1791" y="451" on="0"/>
        <pt x="1733" y="563" on="0"/>
        <pt x="1664" y="649" on="0"/>
        <pt x="1572" y="702" on="0"/>
        <pt x="1505" y="702" on="1"/>
        <pt x="1262" y="702" on="1"/>
        <pt x="1262" y="625" on="0"/>
        <pt x="1263" y="484" on="0"/>
        <pt x="1266" y="330" on="0"/>
        <pt x="1270" y="160" on="0"/>
        <pt x="1272" y="61" on="1"/>
        <pt x="1550" y="61" on="1"/>
        <pt x="1703" y="71" on="0"/>
        <pt x="1926" y="132" on="0"/>
        <pt x="2085" y="222" on="0"/>
        <pt x="2188" y="336" on="0"/>
        <pt x="2222" y="399" on="1"/>
        <pt x="2234" y="394" on="0"/>
        <pt x="2252" y="382" on="0"/>
        <pt x="2257" y="373" on="1"/>
        <pt x="2234" y="330" on="0"/>
        <pt x="2187" y="245" on="0"/>
        <pt x="2147" y="155" on="0"/>
        <pt x="2116" y="56" on="0"/>
        <pt x="2109" y="0" on="1"/>
        <pt x="1272" y="0" on="1"/>
        <pt x="1221" y="0" on="0"/>
        <pt x="1100" y="-1" on="0"/>
        <pt x="975" y="-2" on="0"/>
        <pt x="855" y="-5" on="0"/>
        <pt x="807" y="-6" on="1"/>
        <pt x="805" y="-1" on="0"/>
        <pt x="803" y="9" on="0"/>
        <pt x="803" y="14" on="1"/>
        <pt x="803" y="21" on="0"/>
        <pt x="805" y="33" on="0"/>
        <pt x="807" y="41" on="1"/>
        <pt x="839" y="44" on="0"/>
        <pt x="919" y="54" on="0"/>
        <pt x="989" y="75" on="0"/>
        <pt x="1037" y="109" on="0"/>
        <pt x="1038" y="137" on="1"/>
        <pt x="1043" y="278" on="0"/>
        <pt x="1049" y="559" on="0"/>
        <pt x="1051" y="702" on="1"/>
        <pt x="668" y="702" on="1"/>
        <pt x="342" y="145" on="1"/>
        <pt x="339" y="137" on="0"/>
        <pt x="332" y="116" on="0"/>
        <pt x="332" y="113" on="1"/>
        <pt x="332" y="89" on="0"/>
        <pt x="373" y="63" on="0"/>
        <pt x="434" y="50" on="0"/>
        <pt x="505" y="45" on="0"/>
        <pt x="535" y="41" on="1"/>
        <pt x="537" y="35" on="0"/>
        <pt x="539" y="21" on="0"/>
        <pt x="539" y="14" on="1"/>
        <pt x="539" y="9" on="0"/>
        <pt x="537" y="-2" on="0"/>
        <pt x="535" y="-8" on="1"/>
        <pt x="493" y="-7" on="0"/>
        <pt x="423" y="-4" on="0"/>
        <pt x="362" y="-1" on="0"/>
        <pt x="309" y="0" on="0"/>
        <pt x="283" y="0" on="1"/>
        <pt x="230" y="0" on="0"/>
        <pt x="89" y="-5" on="0"/>
        <pt x="4" y="-8" on="1"/>
        <pt x="2" y="-3" on="0"/>
        <pt x="0" y="11" on="0"/>
        <pt x="0" y="16" on="1"/>
        <pt x="0" y="23" on="0"/>
        <pt x="2" y="36" on="0"/>
        <pt x="4" y="41" on="1"/>
        <pt x="83" y="50" on="0"/>
        <pt x="210" y="97" on="0"/>
        <pt x="238" y="143" on="1"/>
        <pt x="975" y="1393" on="1"/>
        <pt x="938" y="1407" on="0"/>
        <pt x="846" y="1418" on="0"/>
        <pt x="809" y="1423" on="1"/>
        <pt x="807" y="1430" on="0"/>
        <pt x="805" y="1442" on="0"/>
        <pt x="805" y="1448" on="1"/>
        <pt x="805" y="1454" on="0"/>
        <pt x="807" y="1464" on="0"/>
      </contour>
      <contour>
        <pt x="1036" y="1335" on="1"/>
        <pt x="705" y="764" on="1"/>
        <pt x="1051" y="764" on="1"/>
        <pt x="1051" y="768" on="1"/>
        <pt x="1051" y="907" on="0"/>
        <pt x="1047" y="1193" on="0"/>
        <pt x="1040" y="1335" on="1"/>
      </contour>
    </TTGlyph>
    <TTGlyph name="Aacute" xMin="31" yMin="-8" xMax="1587" yMax="2054">
      <component glyphName="A" x="0" y="0" flags="0x204"/>
      <component glyphName="acute" x="215" y="586" flags="0x4"/>
    </TTGlyph>
    <TTGlyph name="Acircumflex" xMin="31" yMin="-8" xMax="1587" yMax="1985">
      <component glyphName="A" x="0" y="0" flags="0x204"/>
      <component glyphName="circumflex" x="254" y="586" flags="0x4"/>
    </TTGlyph>
    <TTGlyph name="Adieresis" xMin="31" yMin="-8" xMax="1587" yMax="1944">
      <component glyphName="A" x="0" y="0" flags="0x204"/>
      <component glyphName="dieresis" x="262" y="586" flags="0x4"/>
    </TTGlyph>
    <TTGlyph name="Agrave" xMin="31" yMin="-8" xMax="1587" yMax="2054">
      <component glyphName="A" x="0" y="0" flags="0x204"/>
      <component glyphName="grave" x="205" y="586" flags="0x4"/>
    </TTGlyph>
    <TTGlyph name="Aring" xMin="31" yMin="-8" xMax="1587" yMax="2051">
      <component glyphName="A" x="0" y="0" flags="0x4"/>
      <component glyphName="ring" x="252" y="587" flags="0x4"/>
    </TTGlyph>
    <TTGlyph name="Atilde" xMin="31" yMin="-8" xMax="1587" yMax="1927">
      <component glyphName="A" x="0" y="0" flags="0x204"/>
      <component glyphName="tilde" x="256" y="586" flags="0x4"/>
    </TTGlyph>
    <TTGlyph name="B" xMin="72" yMin="-6" xMax="1378" yMax="1470">
      <contour>
        <pt x="78" y="1468" on="1"/>
        <pt x="246" y="1462" on="0"/>
        <pt x="428" y="1462" on="1"/>
        <pt x="514" y="1462" on="0"/>
        <pt x="670" y="1470" on="0"/>
        <pt x="672" y="1470" on="1"/>
        <pt x="726" y="1470" on="0"/>
        <pt x="817" y="1465" on="0"/>
        <pt x="932" y="1449" on="0"/>
        <pt x="1022" y="1421" on="0"/>
        <pt x="1113" y="1371" on="0"/>
        <pt x="1174" y="1303" on="0"/>
        <pt x="1212" y="1203" on="0"/>
        <pt x="1212" y="1141" on="1"/>
        <pt x="1212" y="958" on="0"/>
        <pt x="993" y="866" on="1"/>
        <pt x="993" y="858" on="1"/>
        <pt x="1157" y="828" on="0"/>
        <pt x="1378" y="616" on="0"/>
        <pt x="1378" y="451" on="1"/>
        <pt x="1378" y="363" on="0"/>
        <pt x="1315" y="222" on="0"/>
        <pt x="1217" y="130" on="0"/>
        <pt x="1069" y="62" on="0"/>
        <pt x="929" y="26" on="0"/>
        <pt x="748" y="5" on="0"/>
        <pt x="620" y="0" on="0"/>
        <pt x="541" y="0" on="1"/>
        <pt x="270" y="0" on="0"/>
        <pt x="76" y="-6" on="1"/>
        <pt x="72" y="6" on="0"/>
        <pt x="72" y="14" on="1"/>
        <pt x="72" y="21" on="0"/>
        <pt x="76" y="41" on="1"/>
        <pt x="106" y="44" on="0"/>
        <pt x="142" y="48" on="0"/>
        <pt x="205" y="58" on="0"/>
        <pt x="244" y="71" on="0"/>
        <pt x="286" y="91" on="0"/>
        <pt x="307" y="119" on="0"/>
        <pt x="307" y="137" on="1"/>
        <pt x="319" y="450" on="0"/>
        <pt x="319" y="768" on="1"/>
        <pt x="319" y="1092" on="0"/>
        <pt x="309" y="1327" on="1"/>
        <pt x="308" y="1353" on="0"/>
        <pt x="265" y="1389" on="0"/>
        <pt x="179" y="1409" on="0"/>
        <pt x="127" y="1416" on="0"/>
        <pt x="78" y="1421" on="1"/>
        <pt x="74" y="1439" on="0"/>
        <pt x="74" y="1446" on="1"/>
        <pt x="74" y="1452" on="0"/>
      </contour>
      <contour>
        <pt x="530" y="768" on="1"/>
        <pt x="530" y="694" on="1"/>
        <pt x="541" y="68" on="1"/>
        <pt x="608" y="68" on="0"/>
        <pt x="712" y="73" on="0"/>
        <pt x="836" y="92" on="0"/>
        <pt x="928" y="124" on="0"/>
        <pt x="1020" y="181" on="0"/>
        <pt x="1078" y="259" on="0"/>
        <pt x="1114" y="374" on="0"/>
        <pt x="1114" y="446" on="1"/>
        <pt x="1114" y="516" on="0"/>
        <pt x="1068" y="627" on="0"/>
        <pt x="985" y="702" on="0"/>
        <pt x="866" y="752" on="0"/>
        <pt x="727" y="774" on="0"/>
        <pt x="645" y="774" on="1"/>
        <pt x="588" y="774" on="0"/>
      </contour>
      <contour>
        <pt x="543" y="1399" on="1"/>
        <pt x="530" y="829" on="1"/>
        <pt x="938" y="829" on="0"/>
        <pt x="938" y="1141" on="1"/>
        <pt x="938" y="1277" on="0"/>
        <pt x="769" y="1405" on="0"/>
        <pt x="629" y="1405" on="1"/>
        <pt x="598" y="1405" on="0"/>
      </contour>
    </TTGlyph>
    <TTGlyph name="C" xMin="133" yMin="-41" xMax="1495" yMax="1503">
      <contour>
        <pt x="891" y="1503" on="1"/>
        <pt x="970" y="1503" on="0"/>
        <pt x="1127" y="1482" on="0"/>
        <pt x="1272" y="1453" on="0"/>
        <pt x="1402" y="1425" on="0"/>
        <pt x="1454" y="1419" on="1"/>
        <pt x="1442" y="1383" on="0"/>
        <pt x="1442" y="1292" on="1"/>
        <pt x="1442" y="1115" on="0"/>
        <pt x="1495" y="985" on="1"/>
        <pt x="1489" y="967" on="0"/>
        <pt x="1458" y="963" on="1"/>
        <pt x="1415" y="1055" on="1"/>
        <pt x="1383" y="1124" on="0"/>
        <pt x="1293" y="1259" on="0"/>
        <pt x="1167" y="1366" on="0"/>
        <pt x="1000" y="1432" on="0"/>
        <pt x="891" y="1432" on="1"/>
        <pt x="797" y="1432" on="0"/>
        <pt x="651" y="1370" on="0"/>
        <pt x="541" y="1265" on="0"/>
        <pt x="465" y="1126" on="0"/>
        <pt x="418" y="970" on="0"/>
        <pt x="397" y="806" on="0"/>
        <pt x="397" y="729" on="1"/>
        <pt x="397" y="601" on="0"/>
        <pt x="464" y="367" on="0"/>
        <pt x="606" y="188" on="0"/>
        <pt x="825" y="82" on="0"/>
        <pt x="977" y="82" on="1"/>
        <pt x="1268" y="82" on="0"/>
        <pt x="1417" y="264" on="1"/>
        <pt x="1433" y="264" on="0"/>
        <pt x="1454" y="246" on="0"/>
        <pt x="1454" y="233" on="1"/>
        <pt x="1406" y="162" on="0"/>
        <pt x="1269" y="58" on="0"/>
        <pt x="1115" y="-9" on="0"/>
        <pt x="958" y="-41" on="0"/>
        <pt x="891" y="-41" on="1"/>
        <pt x="818" y="-41" on="0"/>
        <pt x="649" y="-10" on="0"/>
        <pt x="480" y="62" on="0"/>
        <pt x="325" y="179" on="0"/>
        <pt x="205" y="350" on="0"/>
        <pt x="133" y="580" on="0"/>
        <pt x="133" y="729" on="1"/>
        <pt x="133" y="879" on="0"/>
        <pt x="205" y="1110" on="0"/>
        <pt x="326" y="1282" on="0"/>
        <pt x="483" y="1399" on="0"/>
        <pt x="651" y="1472" on="0"/>
        <pt x="819" y="1503" on="0"/>
      </contour>
    </TTGlyph>
    <TTGlyph name="Ccedilla" xMin="133" yMin="-428" xMax="1495" yMax="1503">
      <contour>
        <pt x="891" y="1503" on="1"/>
        <pt x="970" y="1503" on="0"/>
        <pt x="1127" y="1482" on="0"/>
        <pt x="1272" y="1453" on="0"/>
        <pt x="1402" y="1425" on="0"/>
        <pt x="1454" y="1419" on="1"/>
        <pt x="1442" y="1383" on="0"/>
        <pt x="1442" y="1292" on="1"/>
        <pt x="1442" y="1115" on="0"/>
        <pt x="1495" y="985" on="1"/>
        <pt x="1489" y="967" on="0"/>
        <pt x="1458" y="963" on="1"/>
        <pt x="1415" y="1055" on="1"/>
        <pt x="1383" y="1124" on="0"/>
        <pt x="1293" y="1259" on="0"/>
        <pt x="1167" y="1366" on="0"/>
        <pt x="1000" y="1432" on="0"/>
        <pt x="891" y="1432" on="1"/>
        <pt x="797" y="1432" on="0"/>
        <pt x="651" y="1370" on="0"/>
        <pt x="541" y="1265" on="0"/>
        <pt x="465" y="1126" on="0"/>
        <pt x="418" y="970" on="0"/>
        <pt x="397" y="806" on="0"/>
        <pt x="397" y="729" on="1"/>
        <pt x="397" y="601" on="0"/>
        <pt x="464" y="367" on="0"/>
        <pt x="606" y="188" on="0"/>
        <pt x="825" y="82" on="0"/>
        <pt x="977" y="82" on="1"/>
        <pt x="1268" y="82" on="0"/>
        <pt x="1417" y="264" on="1"/>
        <pt x="1433" y="264" on="0"/>
        <pt x="1454" y="246" on="0"/>
        <pt x="1454" y="233" on="1"/>
        <pt x="1406" y="162" on="0"/>
        <pt x="1269" y="58" on="0"/>
        <pt x="1115" y="-9" on="0"/>
        <pt x="982" y="-36" on="0"/>
        <pt x="934" y="-39" on="1"/>
        <pt x="910" y="-113" on="1"/>
        <pt x="938" y="-109" on="0"/>
        <pt x="975" y="-109" on="1"/>
        <pt x="1053" y="-109" on="0"/>
        <pt x="1143" y="-183" on="0"/>
        <pt x="1143" y="-252" on="1"/>
        <pt x="1143" y="-324" on="0"/>
        <pt x="1022" y="-428" on="0"/>
        <pt x="916" y="-428" on="1"/>
        <pt x="784" y="-428" on="0"/>
        <pt x="723" y="-334" on="1"/>
        <pt x="750" y="-303" on="1"/>
        <pt x="795" y="-350" on="0"/>
        <pt x="881" y="-350" on="1"/>
        <pt x="931" y="-350" on="0"/>
        <pt x="990" y="-297" on="0"/>
        <pt x="990" y="-256" on="1"/>
        <pt x="990" y="-216" on="0"/>
        <pt x="939" y="-174" on="0"/>
        <pt x="893" y="-174" on="1"/>
        <pt x="849" y="-174" on="0"/>
        <pt x="797" y="-188" on="1"/>
        <pt x="843" y="-39" on="1"/>
        <pt x="791" y="-36" on="0"/>
        <pt x="649" y="-10" on="0"/>
        <pt x="480" y="62" on="0"/>
        <pt x="325" y="179" on="0"/>
        <pt x="205" y="350" on="0"/>
        <pt x="133" y="580" on="0"/>
        <pt x="133" y="729" on="1"/>
        <pt x="133" y="879" on="0"/>
        <pt x="205" y="1110" on="0"/>
        <pt x="326" y="1282" on="0"/>
        <pt x="483" y="1399" on="0"/>
        <pt x="651" y="1472" on="0"/>
        <pt x="819" y="1503" on="0"/>
      </contour>
    </TTGlyph>
    <TTGlyph name="D" xMin="72" yMin="-6" xMax="1587" yMax="1470">
      <contour>
        <pt x="78" y="1470" on="1"/>
        <pt x="302" y="1462" on="0"/>
        <pt x="436" y="1462" on="1"/>
        <pt x="686" y="1470" on="0"/>
        <pt x="743" y="1470" on="1"/>
        <pt x="836" y="1470" on="0"/>
        <pt x="1000" y="1454" on="0"/>
        <pt x="1175" y="1411" on="0"/>
        <pt x="1317" y="1342" on="0"/>
        <pt x="1447" y="1228" on="0"/>
        <pt x="1535" y="1078" on="0"/>
        <pt x="1587" y="867" on="0"/>
        <pt x="1587" y="739" on="1"/>
        <pt x="1579" y="616" on="0"/>
        <pt x="1510" y="410" on="0"/>
        <pt x="1403" y="260" on="0"/>
        <pt x="1257" y="142" on="0"/>
        <pt x="1098" y="68" on="0"/>
        <pt x="913" y="20" on="0"/>
        <pt x="738" y="0" on="0"/>
        <pt x="645" y="0" on="1"/>
        <pt x="270" y="0" on="0"/>
        <pt x="76" y="-6" on="1"/>
        <pt x="72" y="6" on="0"/>
        <pt x="72" y="14" on="1"/>
        <pt x="72" y="21" on="0"/>
        <pt x="76" y="41" on="1"/>
        <pt x="106" y="44" on="0"/>
        <pt x="142" y="48" on="0"/>
        <pt x="205" y="58" on="0"/>
        <pt x="244" y="71" on="0"/>
        <pt x="286" y="91" on="0"/>
        <pt x="307" y="119" on="0"/>
        <pt x="307" y="137" on="1"/>
        <pt x="319" y="450" on="0"/>
        <pt x="319" y="768" on="1"/>
        <pt x="319" y="1092" on="0"/>
        <pt x="309" y="1327" on="1"/>
        <pt x="308" y="1353" on="0"/>
        <pt x="264" y="1390" on="0"/>
        <pt x="181" y="1410" on="0"/>
        <pt x="124" y="1419" on="0"/>
        <pt x="78" y="1423" on="1"/>
        <pt x="74" y="1441" on="0"/>
        <pt x="74" y="1448" on="1"/>
        <pt x="74" y="1454" on="0"/>
      </contour>
      <contour>
        <pt x="543" y="1327" on="1"/>
        <pt x="530" y="987" on="0"/>
        <pt x="530" y="694" on="1"/>
        <pt x="530" y="532" on="0"/>
        <pt x="541" y="74" on="1"/>
        <pt x="584" y="72" on="0"/>
        <pt x="664" y="72" on="1"/>
        <pt x="826" y="72" on="0"/>
        <pt x="1078" y="171" on="0"/>
        <pt x="1240" y="349" on="0"/>
        <pt x="1323" y="592" on="0"/>
        <pt x="1323" y="739" on="1"/>
        <pt x="1323" y="815" on="0"/>
        <pt x="1299" y="961" on="0"/>
        <pt x="1247" y="1113" on="0"/>
        <pt x="1155" y="1241" on="0"/>
        <pt x="1028" y="1342" on="0"/>
        <pt x="843" y="1399" on="0"/>
        <pt x="731" y="1399" on="1"/>
        <pt x="628" y="1399" on="0"/>
        <pt x="543" y="1386" on="1"/>
      </contour>
    </TTGlyph>
    <TTGlyph name="E" xMin="72" yMin="-6" xMax="1567" yMax="1470">
      <contour>
        <pt x="78" y="1470" on="1"/>
        <pt x="302" y="1462" on="0"/>
        <pt x="428" y="1462" on="1"/>
        <pt x="1286" y="1467" on="0"/>
        <pt x="1378" y="1470" on="1"/>
        <pt x="1391" y="1370" on="0"/>
        <pt x="1467" y="1191" on="0"/>
        <pt x="1526" y="1090" on="1"/>
        <pt x="1518" y="1073" on="0"/>
        <pt x="1491" y="1063" on="1"/>
        <pt x="1455" y="1131" on="0"/>
        <pt x="1353" y="1237" on="0"/>
        <pt x="1198" y="1331" on="0"/>
        <pt x="967" y="1391" on="0"/>
        <pt x="819" y="1401" on="1"/>
        <pt x="543" y="1401" on="1"/>
        <pt x="530" y="978" on="0"/>
        <pt x="530" y="764" on="1"/>
        <pt x="815" y="764" on="1"/>
        <pt x="844" y="764" on="0"/>
        <pt x="895" y="773" on="0"/>
        <pt x="939" y="796" on="0"/>
        <pt x="974" y="817" on="0"/>
        <pt x="1010" y="860" on="0"/>
        <pt x="1034" y="889" on="0"/>
        <pt x="1068" y="949" on="0"/>
        <pt x="1086" y="983" on="0"/>
        <pt x="1123" y="1055" on="0"/>
        <pt x="1133" y="1073" on="1"/>
        <pt x="1164" y="1061" on="0"/>
        <pt x="1171" y="1047" on="1"/>
        <pt x="1129" y="973" on="0"/>
        <pt x="1071" y="793" on="0"/>
        <pt x="1071" y="733" on="1"/>
        <pt x="1071" y="591" on="0"/>
        <pt x="1171" y="420" on="1"/>
        <pt x="1163" y="404" on="0"/>
        <pt x="1133" y="393" on="1"/>
        <pt x="1122" y="413" on="0"/>
        <pt x="1083" y="488" on="0"/>
        <pt x="1061" y="528" on="0"/>
        <pt x="1023" y="590" on="0"/>
        <pt x="994" y="624" on="0"/>
        <pt x="949" y="666" on="0"/>
        <pt x="905" y="687" on="0"/>
        <pt x="848" y="702" on="0"/>
        <pt x="815" y="702" on="1"/>
        <pt x="530" y="702" on="1"/>
        <pt x="530" y="543" on="0"/>
        <pt x="541" y="61" on="1"/>
        <pt x="860" y="61" on="1"/>
        <pt x="1008" y="71" on="0"/>
        <pt x="1239" y="131" on="0"/>
        <pt x="1394" y="225" on="0"/>
        <pt x="1496" y="331" on="0"/>
        <pt x="1532" y="399" on="1"/>
        <pt x="1559" y="389" on="0"/>
        <pt x="1567" y="373" on="1"/>
        <pt x="1562" y="363" on="0"/>
        <pt x="1520" y="287" on="0"/>
        <pt x="1506" y="260" on="0"/>
        <pt x="1473" y="193" on="0"/>
        <pt x="1457" y="152" on="0"/>
        <pt x="1436" y="90" on="0"/>
        <pt x="1423" y="31" on="0"/>
        <pt x="1419" y="0" on="1"/>
        <pt x="541" y="0" on="1"/>
        <pt x="270" y="0" on="0"/>
        <pt x="76" y="-6" on="1"/>
        <pt x="72" y="6" on="0"/>
        <pt x="72" y="14" on="1"/>
        <pt x="72" y="21" on="0"/>
        <pt x="76" y="41" on="1"/>
        <pt x="122" y="45" on="0"/>
        <pt x="179" y="54" on="0"/>
        <pt x="262" y="74" on="0"/>
        <pt x="306" y="111" on="0"/>
        <pt x="307" y="137" on="1"/>
        <pt x="319" y="450" on="0"/>
        <pt x="319" y="768" on="1"/>
        <pt x="319" y="1092" on="0"/>
        <pt x="309" y="1327" on="1"/>
        <pt x="308" y="1353" on="0"/>
        <pt x="264" y="1390" on="0"/>
        <pt x="181" y="1410" on="0"/>
        <pt x="124" y="1419" on="0"/>
        <pt x="78" y="1423" on="1"/>
        <pt x="74" y="1441" on="0"/>
        <pt x="74" y="1448" on="1"/>
        <pt x="74" y="1454" on="0"/>
      </contour>
    </TTGlyph>
    <TTGlyph name="Eacute" xMin="72" yMin="-6" xMax="1567" yMax="2054">
      <component glyphName="E" x="0" y="0" flags="0x204"/>
      <component glyphName="acute" x="215" y="586" flags="0x4"/>
    </TTGlyph>
    <TTGlyph name="Ecircumflex" xMin="72" yMin="-6" xMax="1567" yMax="1985">
      <component glyphName="E" x="0" y="0" flags="0x204"/>
      <component glyphName="circumflex" x="314" y="586" flags="0x4"/>
    </TTGlyph>
    <TTGlyph name="Edieresis" xMin="72" yMin="-6" xMax="1567" yMax="1944">
      <component glyphName="E" x="0" y="0" flags="0x204"/>
      <component glyphName="dieresis" x="282" y="586" flags="0x4"/>
    </TTGlyph>
    <TTGlyph name="Egrave" xMin="72" yMin="-6" xMax="1567" yMax="2054">
      <component glyphName="E" x="0" y="0" flags="0x204"/>
      <component glyphName="grave" x="165" y="586" flags="0x4"/>
    </TTGlyph>
    <TTGlyph name="Eth" xMin="72" yMin="-6" xMax="1587" yMax="1470">
      <contour>
        <pt x="78" y="1470" on="1"/>
        <pt x="302" y="1462" on="0"/>
        <pt x="428" y="1462" on="1"/>
        <pt x="686" y="1470" on="0"/>
        <pt x="743" y="1470" on="1"/>
        <pt x="836" y="1470" on="0"/>
        <pt x="1000" y="1454" on="0"/>
        <pt x="1175" y="1411" on="0"/>
        <pt x="1317" y="1342" on="0"/>
        <pt x="1447" y="1228" on="0"/>
        <pt x="1535" y="1078" on="0"/>
        <pt x="1587" y="867" on="0"/>
        <pt x="1587" y="739" on="1"/>
        <pt x="1579" y="616" on="0"/>
        <pt x="1510" y="410" on="0"/>
        <pt x="1403" y="260" on="0"/>
        <pt x="1257" y="142" on="0"/>
        <pt x="1098" y="68" on="0"/>
        <pt x="913" y="20" on="0"/>
        <pt x="738" y="0" on="0"/>
        <pt x="645" y="0" on="1"/>
        <pt x="270" y="0" on="0"/>
        <pt x="76" y="-6" on="1"/>
        <pt x="72" y="6" on="0"/>
        <pt x="72" y="14" on="1"/>
        <pt x="72" y="21" on="0"/>
        <pt x="76" y="41" on="1"/>
        <pt x="122" y="45" on="0"/>
        <pt x="179" y="54" on="0"/>
        <pt x="262" y="74" on="0"/>
        <pt x="306" y="111" on="0"/>
        <pt x="307" y="137" on="1"/>
        <pt x="316" y="406" on="0"/>
        <pt x="319" y="682" on="1"/>
        <pt x="238" y="682" on="0"/>
        <pt x="82" y="678" on="1"/>
        <pt x="82" y="774" on="1"/>
        <pt x="159" y="770" on="0"/>
        <pt x="319" y="766" on="1"/>
        <pt x="319" y="768" on="1"/>
        <pt x="319" y="1092" on="0"/>
        <pt x="309" y="1327" on="1"/>
        <pt x="308" y="1353" on="0"/>
        <pt x="264" y="1390" on="0"/>
        <pt x="181" y="1410" on="0"/>
        <pt x="124" y="1419" on="0"/>
        <pt x="78" y="1423" on="1"/>
        <pt x="74" y="1441" on="0"/>
        <pt x="74" y="1448" on="1"/>
        <pt x="74" y="1454" on="0"/>
      </contour>
      <contour>
        <pt x="541" y="137" on="1"/>
        <pt x="541" y="74" on="1"/>
        <pt x="584" y="72" on="0"/>
        <pt x="664" y="72" on="1"/>
        <pt x="826" y="72" on="0"/>
        <pt x="1078" y="171" on="0"/>
        <pt x="1240" y="349" on="0"/>
        <pt x="1323" y="592" on="0"/>
        <pt x="1323" y="739" on="1"/>
        <pt x="1323" y="815" on="0"/>
        <pt x="1299" y="961" on="0"/>
        <pt x="1247" y="1113" on="0"/>
        <pt x="1155" y="1241" on="0"/>
        <pt x="1028" y="1342" on="0"/>
        <pt x="843" y="1399" on="0"/>
        <pt x="731" y="1399" on="1"/>
        <pt x="628" y="1399" on="0"/>
        <pt x="543" y="1386" on="1"/>
        <pt x="530" y="988" on="0"/>
        <pt x="530" y="766" on="1"/>
        <pt x="719" y="766" on="0"/>
        <pt x="868" y="774" on="1"/>
        <pt x="868" y="678" on="1"/>
        <pt x="532" y="684" on="0"/>
        <pt x="530" y="684" on="1"/>
        <pt x="530" y="471" on="0"/>
      </contour>
    </TTGlyph>
    <TTGlyph name="Euro" xMin="-61" yMin="-41" xMax="1004" yMax="1503">
      <contour>
        <pt x="-61" y="770" on="1"/>
        <pt x="-37" y="852" on="1"/>
        <pt x="37" y="848" on="0"/>
        <pt x="84" y="848" on="1"/>
        <pt x="97" y="992" on="0"/>
        <pt x="185" y="1223" on="0"/>
        <pt x="302" y="1367" on="0"/>
        <pt x="447" y="1464" on="0"/>
        <pt x="581" y="1503" on="0"/>
        <pt x="645" y="1503" on="1"/>
        <pt x="723" y="1503" on="0"/>
        <pt x="830" y="1489" on="0"/>
        <pt x="971" y="1455" on="0"/>
        <pt x="995" y="1450" on="1"/>
        <pt x="979" y="1376" on="0"/>
        <pt x="979" y="1268" on="1"/>
        <pt x="979" y="1178" on="0"/>
        <pt x="993" y="1090" on="1"/>
        <pt x="973" y="1079" on="0"/>
        <pt x="942" y="1079" on="1"/>
        <pt x="925" y="1139" on="0"/>
        <pt x="903" y="1210" on="0"/>
        <pt x="871" y="1296" on="0"/>
        <pt x="841" y="1343" on="0"/>
        <pt x="799" y="1393" on="0"/>
        <pt x="750" y="1417" on="0"/>
        <pt x="685" y="1432" on="0"/>
        <pt x="645" y="1432" on="1"/>
        <pt x="566" y="1432" on="0"/>
        <pt x="435" y="1329" on="0"/>
        <pt x="350" y="1157" on="0"/>
        <pt x="298" y="956" on="0"/>
        <pt x="289" y="846" on="1"/>
        <pt x="403" y="846" on="1"/>
        <pt x="647" y="846" on="0"/>
        <pt x="778" y="852" on="1"/>
        <pt x="754" y="768" on="1"/>
        <pt x="623" y="772" on="0"/>
        <pt x="379" y="772" on="1"/>
        <pt x="285" y="772" on="1"/>
        <pt x="285" y="721" on="1"/>
        <pt x="285" y="672" on="0"/>
        <pt x="287" y="649" on="1"/>
        <pt x="373" y="649" on="1"/>
        <pt x="584" y="649" on="0"/>
        <pt x="715" y="655" on="1"/>
        <pt x="690" y="571" on="1"/>
        <pt x="559" y="575" on="0"/>
        <pt x="348" y="575" on="1"/>
        <pt x="291" y="575" on="1"/>
        <pt x="301" y="488" on="0"/>
        <pt x="338" y="342" on="0"/>
        <pt x="400" y="217" on="0"/>
        <pt x="484" y="131" on="0"/>
        <pt x="600" y="82" on="0"/>
        <pt x="670" y="82" on="1"/>
        <pt x="861" y="82" on="0"/>
        <pt x="961" y="258" on="1"/>
        <pt x="974" y="258" on="0"/>
        <pt x="1004" y="244" on="0"/>
        <pt x="1004" y="233" on="1"/>
        <pt x="962" y="142" on="0"/>
        <pt x="816" y="13" on="0"/>
        <pt x="673" y="-41" on="0"/>
        <pt x="543" y="-41" on="0"/>
        <pt x="415" y="-6" on="0"/>
        <pt x="282" y="84" on="0"/>
        <pt x="177" y="219" on="0"/>
        <pt x="98" y="436" on="0"/>
        <pt x="84" y="573" on="1"/>
        <pt x="-61" y="573" on="1"/>
        <pt x="-37" y="655" on="1"/>
        <pt x="37" y="651" on="0"/>
        <pt x="80" y="651" on="1"/>
        <pt x="78" y="674" on="0"/>
        <pt x="78" y="721" on="1"/>
        <pt x="78" y="770" on="1"/>
      </contour>
    </TTGlyph>
    <TTGlyph name="F" xMin="72" yMin="-6" xMax="1503" yMax="1470">
      <contour>
        <pt x="78" y="1468" on="1"/>
        <pt x="246" y="1462" on="0"/>
        <pt x="428" y="1462" on="1"/>
        <pt x="543" y="1462" on="1"/>
        <pt x="616" y="1463" on="0"/>
        <pt x="975" y="1464" on="0"/>
        <pt x="1230" y="1466" on="0"/>
        <pt x="1356" y="1470" on="1"/>
        <pt x="1364" y="1401" on="0"/>
        <pt x="1416" y="1252" on="0"/>
        <pt x="1464" y="1157" on="0"/>
        <pt x="1503" y="1090" on="1"/>
        <pt x="1495" y="1073" on="0"/>
        <pt x="1468" y="1063" on="1"/>
        <pt x="1432" y="1131" on="0"/>
        <pt x="1330" y="1237" on="0"/>
        <pt x="1175" y="1331" on="0"/>
        <pt x="944" y="1391" on="0"/>
        <pt x="797" y="1401" on="1"/>
        <pt x="543" y="1401" on="1"/>
        <pt x="530" y="969" on="0"/>
        <pt x="530" y="748" on="1"/>
        <pt x="815" y="748" on="1"/>
        <pt x="840" y="748" on="0"/>
        <pt x="884" y="757" on="0"/>
        <pt x="923" y="779" on="0"/>
        <pt x="952" y="800" on="0"/>
        <pt x="985" y="843" on="0"/>
        <pt x="1005" y="871" on="0"/>
        <pt x="1035" y="932" on="0"/>
        <pt x="1051" y="964" on="0"/>
        <pt x="1084" y="1038" on="0"/>
        <pt x="1092" y="1055" on="1"/>
        <pt x="1127" y="1040" on="0"/>
        <pt x="1130" y="1030" on="1"/>
        <pt x="1071" y="876" on="0"/>
        <pt x="1071" y="717" on="1"/>
        <pt x="1071" y="559" on="0"/>
        <pt x="1130" y="403" on="1"/>
        <pt x="1123" y="389" on="0"/>
        <pt x="1092" y="377" on="1"/>
        <pt x="1031" y="524" on="0"/>
        <pt x="999" y="574" on="1"/>
        <pt x="925" y="685" on="0"/>
        <pt x="815" y="686" on="1"/>
        <pt x="530" y="686" on="1"/>
        <pt x="530" y="471" on="0"/>
        <pt x="541" y="137" on="1"/>
        <pt x="542" y="111" on="0"/>
        <pt x="586" y="74" on="0"/>
        <pt x="669" y="54" on="0"/>
        <pt x="726" y="45" on="0"/>
        <pt x="772" y="41" on="1"/>
        <pt x="776" y="21" on="0"/>
        <pt x="776" y="14" on="1"/>
        <pt x="776" y="6" on="0"/>
        <pt x="772" y="-6" on="1"/>
        <pt x="602" y="0" on="0"/>
        <pt x="424" y="0" on="1"/>
        <pt x="244" y="0" on="0"/>
        <pt x="76" y="-6" on="1"/>
        <pt x="72" y="6" on="0"/>
        <pt x="72" y="14" on="1"/>
        <pt x="72" y="21" on="0"/>
        <pt x="76" y="41" on="1"/>
        <pt x="106" y="44" on="0"/>
        <pt x="142" y="48" on="0"/>
        <pt x="205" y="58" on="0"/>
        <pt x="244" y="71" on="0"/>
        <pt x="286" y="91" on="0"/>
        <pt x="307" y="119" on="0"/>
        <pt x="307" y="137" on="1"/>
        <pt x="319" y="450" on="0"/>
        <pt x="319" y="768" on="1"/>
        <pt x="319" y="1092" on="0"/>
        <pt x="309" y="1327" on="1"/>
        <pt x="308" y="1353" on="0"/>
        <pt x="265" y="1389" on="0"/>
        <pt x="179" y="1409" on="0"/>
        <pt x="127" y="1416" on="0"/>
        <pt x="78" y="1421" on="1"/>
        <pt x="74" y="1439" on="0"/>
        <pt x="74" y="1446" on="1"/>
        <pt x="74" y="1452" on="0"/>
      </contour>
    </TTGlyph>
    <TTGlyph name="G" xMin="133" yMin="-41" xMax="1686" yMax="1503">
      <contour>
        <pt x="1477" y="1016" on="1"/>
        <pt x="1445" y="1087" on="0"/>
        <pt x="1383" y="1194" on="0"/>
        <pt x="1283" y="1310" on="0"/>
        <pt x="1169" y="1384" on="0"/>
        <pt x="1003" y="1432" on="0"/>
        <pt x="903" y="1432" on="1"/>
        <pt x="795" y="1432" on="0"/>
        <pt x="619" y="1344" on="0"/>
        <pt x="506" y="1202" on="0"/>
        <pt x="429" y="1015" on="0"/>
        <pt x="397" y="826" on="0"/>
        <pt x="397" y="729" on="1"/>
        <pt x="397" y="633" on="0"/>
        <pt x="431" y="444" on="0"/>
        <pt x="510" y="258" on="0"/>
        <pt x="626" y="118" on="0"/>
        <pt x="803" y="31" on="0"/>
        <pt x="911" y="31" on="1"/>
        <pt x="1131" y="31" on="0"/>
        <pt x="1217" y="129" on="1"/>
        <pt x="1217" y="535" on="1"/>
        <pt x="1217" y="556" on="0"/>
        <pt x="1183" y="589" on="0"/>
        <pt x="1139" y="607" on="0"/>
        <pt x="1066" y="622" on="0"/>
        <pt x="1020" y="628" on="0"/>
        <pt x="985" y="631" on="1"/>
        <pt x="981" y="647" on="0"/>
        <pt x="981" y="655" on="1"/>
        <pt x="981" y="662" on="0"/>
        <pt x="985" y="678" on="1"/>
        <pt x="1211" y="670" on="0"/>
        <pt x="1333" y="670" on="1"/>
        <pt x="1457" y="670" on="0"/>
        <pt x="1681" y="678" on="1"/>
        <pt x="1686" y="658" on="0"/>
        <pt x="1686" y="655" on="1"/>
        <pt x="1686" y="651" on="0"/>
        <pt x="1681" y="631" on="1"/>
        <pt x="1646" y="628" on="0"/>
        <pt x="1600" y="622" on="0"/>
        <pt x="1527" y="607" on="0"/>
        <pt x="1484" y="589" on="0"/>
        <pt x="1450" y="556" on="0"/>
        <pt x="1450" y="535" on="1"/>
        <pt x="1450" y="387" on="1"/>
        <pt x="1450" y="197" on="0"/>
        <pt x="1495" y="76" on="1"/>
        <pt x="1330" y="15" on="0"/>
        <pt x="1074" y="-41" on="0"/>
        <pt x="911" y="-41" on="1"/>
        <pt x="814" y="-41" on="0"/>
        <pt x="618" y="-1" on="0"/>
        <pt x="403" y="109" on="0"/>
        <pt x="240" y="275" on="0"/>
        <pt x="133" y="553" on="0"/>
        <pt x="133" y="729" on="1"/>
        <pt x="133" y="856" on="0"/>
        <pt x="188" y="1073" on="0"/>
        <pt x="280" y="1229" on="0"/>
        <pt x="407" y="1353" on="0"/>
        <pt x="545" y="1431" on="0"/>
        <pt x="698" y="1482" on="0"/>
        <pt x="836" y="1503" on="0"/>
        <pt x="903" y="1503" on="1"/>
        <pt x="1015" y="1503" on="0"/>
        <pt x="1218" y="1476" on="0"/>
        <pt x="1420" y="1437" on="0"/>
        <pt x="1479" y="1430" on="1"/>
        <pt x="1464" y="1385" on="0"/>
        <pt x="1464" y="1303" on="1"/>
        <pt x="1464" y="1167" on="0"/>
        <pt x="1513" y="1038" on="1"/>
        <pt x="1507" y="1020" on="0"/>
      </contour>
    </TTGlyph>
    <TTGlyph name="H" xMin="72" yMin="-6" xMax="1694" yMax="1470">
      <contour>
        <pt x="78" y="1470" on="1"/>
        <pt x="302" y="1462" on="0"/>
        <pt x="550" y="1462" on="0"/>
        <pt x="774" y="1470" on="1"/>
        <pt x="778" y="1454" on="0"/>
        <pt x="778" y="1448" on="1"/>
        <pt x="778" y="1441" on="0"/>
        <pt x="774" y="1423" on="1"/>
        <pt x="728" y="1419" on="0"/>
        <pt x="671" y="1410" on="0"/>
        <pt x="588" y="1390" on="0"/>
        <pt x="544" y="1353" on="0"/>
        <pt x="543" y="1327" on="1"/>
        <pt x="530" y="1028" on="0"/>
        <pt x="530" y="770" on="1"/>
        <pt x="641" y="766" on="0"/>
        <pt x="866" y="766" on="1"/>
        <pt x="1050" y="766" on="0"/>
        <pt x="1235" y="772" on="1"/>
        <pt x="1231" y="1144" on="0"/>
        <pt x="1225" y="1327" on="1"/>
        <pt x="1224" y="1353" on="0"/>
        <pt x="1180" y="1390" on="0"/>
        <pt x="1096" y="1410" on="0"/>
        <pt x="1039" y="1419" on="0"/>
        <pt x="993" y="1423" on="1"/>
        <pt x="989" y="1441" on="0"/>
        <pt x="989" y="1448" on="1"/>
        <pt x="989" y="1454" on="0"/>
        <pt x="993" y="1470" on="1"/>
        <pt x="1219" y="1462" on="0"/>
        <pt x="1341" y="1462" on="1"/>
        <pt x="1464" y="1462" on="0"/>
        <pt x="1690" y="1470" on="1"/>
        <pt x="1694" y="1454" on="0"/>
        <pt x="1694" y="1448" on="1"/>
        <pt x="1694" y="1441" on="0"/>
        <pt x="1690" y="1423" on="1"/>
        <pt x="1644" y="1419" on="0"/>
        <pt x="1587" y="1410" on="0"/>
        <pt x="1503" y="1390" on="0"/>
        <pt x="1459" y="1353" on="0"/>
        <pt x="1458" y="1327" on="1"/>
        <pt x="1448" y="1078" on="0"/>
        <pt x="1448" y="731" on="1"/>
        <pt x="1448" y="386" on="0"/>
        <pt x="1458" y="137" on="1"/>
        <pt x="1459" y="111" on="0"/>
        <pt x="1503" y="74" on="0"/>
        <pt x="1587" y="54" on="0"/>
        <pt x="1644" y="45" on="0"/>
        <pt x="1690" y="41" on="1"/>
        <pt x="1694" y="25" on="0"/>
        <pt x="1694" y="14" on="1"/>
        <pt x="1694" y="6" on="0"/>
        <pt x="1690" y="-6" on="1"/>
        <pt x="1520" y="0" on="0"/>
        <pt x="1162" y="0" on="0"/>
        <pt x="993" y="-6" on="1"/>
        <pt x="989" y="6" on="0"/>
        <pt x="989" y="14" on="1"/>
        <pt x="989" y="31" on="0"/>
        <pt x="993" y="41" on="1"/>
        <pt x="1039" y="45" on="0"/>
        <pt x="1097" y="54" on="0"/>
        <pt x="1181" y="74" on="0"/>
        <pt x="1225" y="111" on="0"/>
        <pt x="1225" y="137" on="1"/>
        <pt x="1233" y="494" on="0"/>
        <pt x="1235" y="678" on="1"/>
        <pt x="1050" y="684" on="0"/>
        <pt x="866" y="684" on="1"/>
        <pt x="752" y="684" on="0"/>
        <pt x="530" y="680" on="1"/>
        <pt x="530" y="467" on="0"/>
        <pt x="541" y="137" on="1"/>
        <pt x="542" y="111" on="0"/>
        <pt x="586" y="74" on="0"/>
        <pt x="669" y="54" on="0"/>
        <pt x="726" y="45" on="0"/>
        <pt x="772" y="41" on="1"/>
        <pt x="776" y="21" on="0"/>
        <pt x="776" y="14" on="1"/>
        <pt x="776" y="6" on="0"/>
        <pt x="772" y="-6" on="1"/>
        <pt x="602" y="0" on="0"/>
        <pt x="424" y="0" on="1"/>
        <pt x="244" y="0" on="0"/>
        <pt x="76" y="-6" on="1"/>
        <pt x="72" y="6" on="0"/>
        <pt x="72" y="14" on="1"/>
        <pt x="72" y="31" on="0"/>
        <pt x="76" y="41" on="1"/>
        <pt x="122" y="45" on="0"/>
        <pt x="179" y="54" on="0"/>
        <pt x="262" y="74" on="0"/>
        <pt x="306" y="111" on="0"/>
        <pt x="307" y="137" on="1"/>
        <pt x="319" y="450" on="0"/>
        <pt x="319" y="768" on="1"/>
        <pt x="319" y="1092" on="0"/>
        <pt x="309" y="1327" on="1"/>
        <pt x="308" y="1353" on="0"/>
        <pt x="264" y="1390" on="0"/>
        <pt x="181" y="1410" on="0"/>
        <pt x="124" y="1419" on="0"/>
        <pt x="78" y="1423" on="1"/>
        <pt x="74" y="1441" on="0"/>
        <pt x="74" y="1448" on="1"/>
        <pt x="74" y="1458" on="0"/>
      </contour>
    </TTGlyph>
    <TTGlyph name="I" xMin="72" yMin="-6" xMax="778" yMax="1470">
      <contour>
        <pt x="78" y="1470" on="1"/>
        <pt x="302" y="1462" on="0"/>
        <pt x="550" y="1462" on="0"/>
        <pt x="774" y="1470" on="1"/>
        <pt x="778" y="1454" on="0"/>
        <pt x="778" y="1448" on="1"/>
        <pt x="778" y="1437" on="0"/>
        <pt x="774" y="1423" on="1"/>
        <pt x="728" y="1419" on="0"/>
        <pt x="671" y="1410" on="0"/>
        <pt x="588" y="1390" on="0"/>
        <pt x="544" y="1353" on="0"/>
        <pt x="543" y="1327" on="1"/>
        <pt x="530" y="987" on="0"/>
        <pt x="530" y="694" on="1"/>
        <pt x="530" y="480" on="0"/>
        <pt x="541" y="137" on="1"/>
        <pt x="542" y="111" on="0"/>
        <pt x="586" y="74" on="0"/>
        <pt x="669" y="54" on="0"/>
        <pt x="726" y="45" on="0"/>
        <pt x="772" y="41" on="1"/>
        <pt x="776" y="29" on="0"/>
        <pt x="776" y="14" on="1"/>
        <pt x="776" y="6" on="0"/>
        <pt x="772" y="-6" on="1"/>
        <pt x="602" y="0" on="0"/>
        <pt x="424" y="0" on="1"/>
        <pt x="244" y="0" on="0"/>
        <pt x="76" y="-6" on="1"/>
        <pt x="72" y="6" on="0"/>
        <pt x="72" y="14" on="1"/>
        <pt x="72" y="31" on="0"/>
        <pt x="76" y="41" on="1"/>
        <pt x="106" y="44" on="0"/>
        <pt x="142" y="48" on="0"/>
        <pt x="205" y="58" on="0"/>
        <pt x="244" y="71" on="0"/>
        <pt x="286" y="91" on="0"/>
        <pt x="307" y="119" on="0"/>
        <pt x="307" y="137" on="1"/>
        <pt x="319" y="450" on="0"/>
        <pt x="319" y="768" on="1"/>
        <pt x="319" y="1092" on="0"/>
        <pt x="309" y="1327" on="1"/>
        <pt x="308" y="1353" on="0"/>
        <pt x="264" y="1390" on="0"/>
        <pt x="181" y="1410" on="0"/>
        <pt x="124" y="1419" on="0"/>
        <pt x="78" y="1423" on="1"/>
        <pt x="74" y="1441" on="0"/>
        <pt x="74" y="1448" on="1"/>
        <pt x="74" y="1458" on="0"/>
      </contour>
    </TTGlyph>
    <TTGlyph name="Iacute" xMin="72" yMin="-6" xMax="778" yMax="2054">
      <component glyphName="I" x="0" y="0" flags="0x204"/>
      <component glyphName="acute" x="-204" y="586" flags="0x4"/>
    </TTGlyph>
    <TTGlyph name="Icircumflex" xMin="72" yMin="-6" xMax="778" yMax="1985">
      <component glyphName="I" x="0" y="0" flags="0x204"/>
      <component glyphName="circumflex" x="-120" y="586" flags="0x4"/>
    </TTGlyph>
    <TTGlyph name="Idieresis" xMin="72" yMin="-6" xMax="778" yMax="1944">
      <component glyphName="I" x="0" y="0" flags="0x204"/>
      <component glyphName="dieresis" x="-137" y="586" flags="0x4"/>
    </TTGlyph>
    <TTGlyph name="Igrave" xMin="72" yMin="-6" xMax="778" yMax="2054">
      <component glyphName="I" x="0" y="0" flags="0x204"/>
      <component glyphName="grave" x="-130" y="586" flags="0x4"/>
    </TTGlyph>
    <TTGlyph name="J" xMin="-133" yMin="-532" xMax="854" yMax="1470">
      <contour>
        <pt x="147" y="1470" on="1"/>
        <pt x="373" y="1462" on="0"/>
        <pt x="502" y="1462" on="1"/>
        <pt x="624" y="1462" on="0"/>
        <pt x="850" y="1470" on="1"/>
        <pt x="854" y="1454" on="0"/>
        <pt x="854" y="1448" on="1"/>
        <pt x="854" y="1437" on="0"/>
        <pt x="850" y="1423" on="1"/>
        <pt x="804" y="1419" on="0"/>
        <pt x="746" y="1410" on="0"/>
        <pt x="662" y="1390" on="0"/>
        <pt x="618" y="1353" on="0"/>
        <pt x="618" y="1327" on="1"/>
        <pt x="617" y="1262" on="0"/>
        <pt x="614" y="782" on="0"/>
        <pt x="612" y="573" on="1"/>
        <pt x="610" y="406" on="0"/>
        <pt x="603" y="193" on="0"/>
        <pt x="582" y="-66" on="0"/>
        <pt x="545" y="-223" on="0"/>
        <pt x="481" y="-388" on="0"/>
        <pt x="390" y="-476" on="0"/>
        <pt x="258" y="-532" on="0"/>
        <pt x="172" y="-532" on="1"/>
        <pt x="27" y="-532" on="0"/>
        <pt x="-133" y="-390" on="0"/>
        <pt x="-133" y="-293" on="1"/>
        <pt x="-133" y="-210" on="0"/>
        <pt x="-45" y="-119" on="0"/>
        <pt x="27" y="-119" on="1"/>
        <pt x="86" y="-119" on="0"/>
        <pt x="170" y="-183" on="0"/>
        <pt x="170" y="-246" on="1"/>
        <pt x="170" y="-280" on="0"/>
        <pt x="136" y="-333" on="0"/>
        <pt x="95" y="-358" on="0"/>
        <pt x="61" y="-379" on="0"/>
        <pt x="61" y="-383" on="1"/>
        <pt x="61" y="-421" on="0"/>
        <pt x="120" y="-469" on="0"/>
        <pt x="172" y="-469" on="1"/>
        <pt x="228" y="-469" on="0"/>
        <pt x="305" y="-427" on="0"/>
        <pt x="354" y="-351" on="0"/>
        <pt x="380" y="-215" on="0"/>
        <pt x="389" y="-61" on="0"/>
        <pt x="389" y="55" on="1"/>
        <pt x="389" y="1043" on="0"/>
        <pt x="379" y="1327" on="1"/>
        <pt x="378" y="1353" on="0"/>
        <pt x="334" y="1390" on="0"/>
        <pt x="250" y="1410" on="0"/>
        <pt x="193" y="1419" on="0"/>
        <pt x="147" y="1423" on="1"/>
        <pt x="143" y="1441" on="0"/>
        <pt x="143" y="1448" on="1"/>
        <pt x="143" y="1458" on="0"/>
      </contour>
    </TTGlyph>
    <TTGlyph name="K" xMin="72" yMin="-8" xMax="1653" yMax="1470">
      <contour>
        <pt x="78" y="1470" on="1"/>
        <pt x="302" y="1462" on="0"/>
        <pt x="550" y="1462" on="0"/>
        <pt x="774" y="1470" on="1"/>
        <pt x="778" y="1454" on="0"/>
        <pt x="778" y="1448" on="1"/>
        <pt x="778" y="1437" on="0"/>
        <pt x="774" y="1423" on="1"/>
        <pt x="728" y="1419" on="0"/>
        <pt x="671" y="1410" on="0"/>
        <pt x="588" y="1390" on="0"/>
        <pt x="544" y="1353" on="0"/>
        <pt x="543" y="1327" on="1"/>
        <pt x="530" y="1031" on="0"/>
        <pt x="530" y="780" on="1"/>
        <pt x="559" y="780" on="1"/>
        <pt x="1126" y="1327" on="1"/>
        <pt x="1139" y="1346" on="0"/>
        <pt x="1139" y="1356" on="1"/>
        <pt x="1139" y="1375" on="0"/>
        <pt x="1118" y="1400" on="0"/>
        <pt x="1063" y="1413" on="0"/>
        <pt x="1008" y="1419" on="0"/>
        <pt x="954" y="1423" on="1"/>
        <pt x="950" y="1441" on="0"/>
        <pt x="950" y="1448" on="1"/>
        <pt x="950" y="1454" on="0"/>
        <pt x="954" y="1470" on="1"/>
        <pt x="1180" y="1462" on="0"/>
        <pt x="1251" y="1462" on="1"/>
        <pt x="1300" y="1462" on="0"/>
        <pt x="1526" y="1470" on="1"/>
        <pt x="1530" y="1454" on="0"/>
        <pt x="1530" y="1448" on="1"/>
        <pt x="1530" y="1441" on="0"/>
        <pt x="1526" y="1423" on="1"/>
        <pt x="1483" y="1419" on="0"/>
        <pt x="1432" y="1411" on="0"/>
        <pt x="1353" y="1392" on="0"/>
        <pt x="1282" y="1355" on="0"/>
        <pt x="1249" y="1327" on="1"/>
        <pt x="733" y="836" on="1"/>
        <pt x="1368" y="190" on="1"/>
        <pt x="1528" y="47" on="0"/>
        <pt x="1649" y="41" on="1"/>
        <pt x="1653" y="25" on="0"/>
        <pt x="1653" y="14" on="1"/>
        <pt x="1653" y="2" on="0"/>
        <pt x="1649" y="-8" on="1"/>
        <pt x="1504" y="0" on="0"/>
        <pt x="1329" y="0" on="1"/>
        <pt x="1172" y="0" on="0"/>
        <pt x="950" y="-8" on="1"/>
        <pt x="946" y="4" on="0"/>
        <pt x="946" y="16" on="1"/>
        <pt x="946" y="29" on="0"/>
        <pt x="950" y="41" on="1"/>
        <pt x="1047" y="44" on="0"/>
        <pt x="1110" y="73" on="0"/>
        <pt x="1110" y="109" on="1"/>
        <pt x="1110" y="122" on="0"/>
        <pt x="1096" y="146" on="0"/>
        <pt x="1061" y="185" on="0"/>
        <pt x="1057" y="190" on="1"/>
        <pt x="569" y="696" on="1"/>
        <pt x="530" y="694" on="1"/>
        <pt x="530" y="480" on="0"/>
        <pt x="541" y="137" on="1"/>
        <pt x="542" y="111" on="0"/>
        <pt x="586" y="74" on="0"/>
        <pt x="669" y="54" on="0"/>
        <pt x="726" y="45" on="0"/>
        <pt x="772" y="41" on="1"/>
        <pt x="776" y="29" on="0"/>
        <pt x="776" y="14" on="1"/>
        <pt x="776" y="6" on="0"/>
        <pt x="772" y="-6" on="1"/>
        <pt x="602" y="0" on="0"/>
        <pt x="424" y="0" on="1"/>
        <pt x="244" y="0" on="0"/>
        <pt x="76" y="-6" on="1"/>
        <pt x="72" y="6" on="0"/>
        <pt x="72" y="14" on="1"/>
        <pt x="72" y="31" on="0"/>
        <pt x="76" y="41" on="1"/>
        <pt x="106" y="44" on="0"/>
        <pt x="142" y="48" on="0"/>
        <pt x="205" y="58" on="0"/>
        <pt x="244" y="71" on="0"/>
        <pt x="286" y="91" on="0"/>
        <pt x="307" y="119" on="0"/>
        <pt x="307" y="137" on="1"/>
        <pt x="319" y="450" on="0"/>
        <pt x="319" y="768" on="1"/>
        <pt x="319" y="1092" on="0"/>
        <pt x="309" y="1327" on="1"/>
        <pt x="308" y="1353" on="0"/>
        <pt x="264" y="1390" on="0"/>
        <pt x="181" y="1410" on="0"/>
        <pt x="124" y="1419" on="0"/>
        <pt x="78" y="1423" on="1"/>
        <pt x="74" y="1441" on="0"/>
        <pt x="74" y="1448" on="1"/>
        <pt x="74" y="1458" on="0"/>
      </contour>
    </TTGlyph>
    <TTGlyph name="L" xMin="72" yMin="-6" xMax="1556" yMax="1470">
      <contour>
        <pt x="78" y="1470" on="1"/>
        <pt x="302" y="1462" on="0"/>
        <pt x="550" y="1462" on="0"/>
        <pt x="774" y="1470" on="1"/>
        <pt x="778" y="1454" on="0"/>
        <pt x="778" y="1448" on="1"/>
        <pt x="778" y="1441" on="0"/>
        <pt x="774" y="1423" on="1"/>
        <pt x="728" y="1419" on="0"/>
        <pt x="671" y="1410" on="0"/>
        <pt x="588" y="1390" on="0"/>
        <pt x="544" y="1353" on="0"/>
        <pt x="543" y="1327" on="1"/>
        <pt x="530" y="987" on="0"/>
        <pt x="530" y="694" on="1"/>
        <pt x="530" y="543" on="0"/>
        <pt x="541" y="61" on="1"/>
        <pt x="850" y="61" on="1"/>
        <pt x="997" y="71" on="0"/>
        <pt x="1229" y="137" on="0"/>
        <pt x="1384" y="240" on="0"/>
        <pt x="1485" y="351" on="0"/>
        <pt x="1522" y="420" on="1"/>
        <pt x="1548" y="410" on="0"/>
        <pt x="1556" y="393" on="1"/>
        <pt x="1515" y="317" on="0"/>
        <pt x="1470" y="223" on="0"/>
        <pt x="1417" y="70" on="0"/>
        <pt x="1409" y="0" on="1"/>
        <pt x="541" y="0" on="1"/>
        <pt x="270" y="0" on="0"/>
        <pt x="76" y="-6" on="1"/>
        <pt x="72" y="6" on="0"/>
        <pt x="72" y="14" on="1"/>
        <pt x="72" y="21" on="0"/>
        <pt x="76" y="41" on="1"/>
        <pt x="122" y="45" on="0"/>
        <pt x="179" y="54" on="0"/>
        <pt x="262" y="74" on="0"/>
        <pt x="306" y="111" on="0"/>
        <pt x="307" y="137" on="1"/>
        <pt x="319" y="450" on="0"/>
        <pt x="319" y="768" on="1"/>
        <pt x="319" y="1092" on="0"/>
        <pt x="309" y="1327" on="1"/>
        <pt x="308" y="1353" on="0"/>
        <pt x="264" y="1390" on="0"/>
        <pt x="181" y="1410" on="0"/>
        <pt x="124" y="1419" on="0"/>
        <pt x="78" y="1423" on="1"/>
        <pt x="74" y="1441" on="0"/>
        <pt x="74" y="1448" on="1"/>
        <pt x="74" y="1458" on="0"/>
      </contour>
    </TTGlyph>
    <TTGlyph name="M" xMin="61" yMin="-6" xMax="1837" yMax="1470">
      <contour>
        <pt x="98" y="1470" on="1"/>
        <pt x="286" y="1462" on="0"/>
        <pt x="571" y="1462" on="1"/>
        <pt x="958" y="414" on="1"/>
        <pt x="963" y="414" on="1"/>
        <pt x="1366" y="1462" on="1"/>
        <pt x="1481" y="1462" on="1"/>
        <pt x="1605" y="1462" on="0"/>
        <pt x="1831" y="1470" on="1"/>
        <pt x="1835" y="1454" on="0"/>
        <pt x="1835" y="1448" on="1"/>
        <pt x="1835" y="1441" on="0"/>
        <pt x="1831" y="1423" on="1"/>
        <pt x="1795" y="1420" on="0"/>
        <pt x="1751" y="1414" on="0"/>
        <pt x="1678" y="1400" on="0"/>
        <pt x="1634" y="1381" on="0"/>
        <pt x="1600" y="1348" on="0"/>
        <pt x="1599" y="1327" on="1"/>
        <pt x="1589" y="1092" on="0"/>
        <pt x="1589" y="768" on="1"/>
        <pt x="1589" y="439" on="0"/>
        <pt x="1602" y="137" on="1"/>
        <pt x="1603" y="111" on="0"/>
        <pt x="1647" y="74" on="0"/>
        <pt x="1730" y="54" on="0"/>
        <pt x="1787" y="45" on="0"/>
        <pt x="1833" y="41" on="1"/>
        <pt x="1837" y="25" on="0"/>
        <pt x="1837" y="14" on="1"/>
        <pt x="1837" y="6" on="0"/>
        <pt x="1833" y="-6" on="1"/>
        <pt x="1664" y="0" on="0"/>
        <pt x="1485" y="0" on="1"/>
        <pt x="1305" y="0" on="0"/>
        <pt x="1137" y="-6" on="1"/>
        <pt x="1133" y="6" on="0"/>
        <pt x="1133" y="14" on="1"/>
        <pt x="1133" y="31" on="0"/>
        <pt x="1137" y="41" on="1"/>
        <pt x="1183" y="45" on="0"/>
        <pt x="1240" y="54" on="0"/>
        <pt x="1323" y="74" on="0"/>
        <pt x="1367" y="111" on="0"/>
        <pt x="1368" y="137" on="1"/>
        <pt x="1378" y="449" on="0"/>
        <pt x="1378" y="694" on="1"/>
        <pt x="1378" y="929" on="0"/>
        <pt x="1368" y="1229" on="1"/>
        <pt x="1360" y="1229" on="1"/>
        <pt x="903" y="25" on="1"/>
        <pt x="893" y="25" on="1"/>
        <pt x="406" y="1253" on="1"/>
        <pt x="395" y="1253" on="1"/>
        <pt x="387" y="1010" on="0"/>
        <pt x="387" y="694" on="1"/>
        <pt x="387" y="462" on="0"/>
        <pt x="397" y="152" on="1"/>
        <pt x="399" y="61" on="0"/>
        <pt x="618" y="41" on="1"/>
        <pt x="623" y="24" on="0"/>
        <pt x="623" y="4" on="0"/>
        <pt x="618" y="-6" on="1"/>
        <pt x="459" y="0" on="0"/>
        <pt x="334" y="0" on="1"/>
        <pt x="254" y="0" on="0"/>
        <pt x="66" y="-6" on="1"/>
        <pt x="61" y="4" on="0"/>
        <pt x="61" y="14" on="1"/>
        <pt x="61" y="31" on="0"/>
        <pt x="66" y="41" on="1"/>
        <pt x="287" y="62" on="0"/>
        <pt x="287" y="152" on="1"/>
        <pt x="299" y="464" on="0"/>
        <pt x="299" y="768" on="1"/>
        <pt x="299" y="987" on="0"/>
        <pt x="293" y="1233" on="1"/>
        <pt x="292" y="1275" on="0"/>
        <pt x="284" y="1332" on="0"/>
        <pt x="262" y="1374" on="0"/>
        <pt x="238" y="1398" on="0"/>
        <pt x="188" y="1417" on="0"/>
        <pt x="141" y="1426" on="0"/>
        <pt x="98" y="1432" on="1"/>
        <pt x="94" y="1440" on="0"/>
        <pt x="94" y="1450" on="1"/>
        <pt x="94" y="1462" on="0"/>
      </contour>
    </TTGlyph>
    <TTGlyph name="N" xMin="61" yMin="-6" xMax="1642" yMax="1470">
      <contour>
        <pt x="78" y="1470" on="1"/>
        <pt x="242" y="1462" on="0"/>
        <pt x="492" y="1462" on="1"/>
        <pt x="1199" y="576" on="0"/>
        <pt x="1305" y="461" on="0"/>
        <pt x="1305" y="461" on="1"/>
        <pt x="1313" y="461" on="1"/>
        <pt x="1317" y="653" on="0"/>
        <pt x="1317" y="770" on="1"/>
        <pt x="1317" y="1001" on="0"/>
        <pt x="1307" y="1313" on="1"/>
        <pt x="1305" y="1403" on="0"/>
        <pt x="1085" y="1423" on="1"/>
        <pt x="1081" y="1445" on="0"/>
        <pt x="1081" y="1450" on="1"/>
        <pt x="1081" y="1458" on="0"/>
        <pt x="1085" y="1470" on="1"/>
        <pt x="1246" y="1464" on="0"/>
        <pt x="1370" y="1464" on="1"/>
        <pt x="1450" y="1464" on="0"/>
        <pt x="1638" y="1470" on="1"/>
        <pt x="1642" y="1458" on="0"/>
        <pt x="1642" y="1450" on="1"/>
        <pt x="1642" y="1434" on="0"/>
        <pt x="1638" y="1423" on="1"/>
        <pt x="1419" y="1403" on="0"/>
        <pt x="1417" y="1313" on="1"/>
        <pt x="1405" y="1000" on="0"/>
        <pt x="1405" y="696" on="1"/>
        <pt x="1405" y="231" on="0"/>
        <pt x="1415" y="-4" on="1"/>
        <pt x="1397" y="-6" on="1"/>
        <pt x="403" y="1217" on="1"/>
        <pt x="393" y="1217" on="1"/>
        <pt x="387" y="958" on="0"/>
        <pt x="387" y="694" on="1"/>
        <pt x="387" y="462" on="0"/>
        <pt x="397" y="152" on="1"/>
        <pt x="399" y="61" on="0"/>
        <pt x="618" y="41" on="1"/>
        <pt x="623" y="24" on="0"/>
        <pt x="623" y="4" on="0"/>
        <pt x="618" y="-6" on="1"/>
        <pt x="459" y="0" on="0"/>
        <pt x="334" y="0" on="1"/>
        <pt x="254" y="0" on="0"/>
        <pt x="66" y="-6" on="1"/>
        <pt x="61" y="4" on="0"/>
        <pt x="61" y="14" on="1"/>
        <pt x="61" y="31" on="0"/>
        <pt x="66" y="41" on="1"/>
        <pt x="287" y="62" on="0"/>
        <pt x="287" y="152" on="1"/>
        <pt x="299" y="464" on="0"/>
        <pt x="299" y="768" on="1"/>
        <pt x="299" y="1098" on="0"/>
        <pt x="291" y="1341" on="1"/>
        <pt x="207" y="1414" on="0"/>
        <pt x="78" y="1423" on="1"/>
        <pt x="72" y="1436" on="0"/>
        <pt x="72" y="1446" on="1"/>
        <pt x="72" y="1461" on="0"/>
      </contour>
    </TTGlyph>
    <TTGlyph name="Ntilde" xMin="61" yMin="-6" xMax="1642" yMax="1927">
      <component glyphName="N" x="0" y="0" flags="0x204"/>
      <component glyphName="tilde" x="281" y="586" flags="0x4"/>
    </TTGlyph>
    <TTGlyph name="O" xMin="133" yMin="-42" xMax="1649" yMax="1504">
      <contour>
        <pt x="896" y="1504" on="1"/>
        <pt x="973" y="1504" on="0"/>
        <pt x="1144" y="1472" on="0"/>
        <pt x="1311" y="1399" on="0"/>
        <pt x="1464" y="1280" on="0"/>
        <pt x="1580" y="1108" on="0"/>
        <pt x="1649" y="878" on="0"/>
        <pt x="1649" y="729" on="1"/>
        <pt x="1649" y="579" on="0"/>
        <pt x="1581" y="348" on="0"/>
        <pt x="1465" y="177" on="0"/>
        <pt x="1312" y="60" on="0"/>
        <pt x="1143" y="-11" on="0"/>
        <pt x="967" y="-42" on="0"/>
        <pt x="887" y="-42" on="1"/>
        <pt x="811" y="-42" on="0"/>
        <pt x="640" y="-11" on="0"/>
        <pt x="472" y="60" on="0"/>
        <pt x="319" y="177" on="0"/>
        <pt x="202" y="348" on="0"/>
        <pt x="133" y="579" on="0"/>
        <pt x="133" y="729" on="1"/>
        <pt x="133" y="883" on="0"/>
        <pt x="205" y="1118" on="0"/>
        <pt x="324" y="1290" on="0"/>
        <pt x="481" y="1405" on="0"/>
        <pt x="650" y="1475" on="0"/>
        <pt x="821" y="1504" on="0"/>
      </contour>
      <contour>
        <pt x="891" y="1432" on="1"/>
        <pt x="797" y="1432" on="0"/>
        <pt x="651" y="1370" on="0"/>
        <pt x="541" y="1265" on="0"/>
        <pt x="465" y="1126" on="0"/>
        <pt x="418" y="970" on="0"/>
        <pt x="397" y="806" on="0"/>
        <pt x="397" y="729" on="1"/>
        <pt x="397" y="655" on="0"/>
        <pt x="417" y="495" on="0"/>
        <pt x="463" y="340" on="0"/>
        <pt x="538" y="200" on="0"/>
        <pt x="648" y="94" on="0"/>
        <pt x="795" y="31" on="0"/>
        <pt x="891" y="31" on="1"/>
        <pt x="985" y="31" on="0"/>
        <pt x="1131" y="92" on="0"/>
        <pt x="1241" y="197" on="0"/>
        <pt x="1316" y="336" on="0"/>
        <pt x="1363" y="491" on="0"/>
        <pt x="1384" y="653" on="0"/>
        <pt x="1384" y="729" on="1"/>
        <pt x="1384" y="806" on="0"/>
        <pt x="1363" y="970" on="0"/>
        <pt x="1316" y="1126" on="0"/>
        <pt x="1240" y="1265" on="0"/>
        <pt x="1130" y="1370" on="0"/>
        <pt x="984" y="1432" on="0"/>
      </contour>
    </TTGlyph>
    <TTGlyph name="OE" xMin="133" yMin="-42" xMax="2383" yMax="1504">
      <contour>
        <pt x="885" y="1504" on="1"/>
        <pt x="950" y="1504" on="0"/>
        <pt x="1097" y="1484" on="0"/>
        <pt x="1169" y="1462" on="1"/>
        <pt x="1185" y="1462" on="0"/>
        <pt x="1740" y="1464" on="0"/>
        <pt x="2148" y="1468" on="0"/>
        <pt x="2194" y="1470" on="1"/>
        <pt x="2200" y="1420" on="0"/>
        <pt x="2226" y="1327" on="0"/>
        <pt x="2263" y="1235" on="0"/>
        <pt x="2312" y="1141" on="0"/>
        <pt x="2342" y="1090" on="1"/>
        <pt x="2335" y="1074" on="0"/>
        <pt x="2307" y="1063" on="1"/>
        <pt x="2272" y="1129" on="0"/>
        <pt x="2164" y="1243" on="0"/>
        <pt x="2004" y="1332" on="0"/>
        <pt x="1783" y="1391" on="0"/>
        <pt x="1635" y="1401" on="1"/>
        <pt x="1379" y="1401" on="1"/>
        <pt x="1372" y="1188" on="0"/>
        <pt x="1366" y="872" on="0"/>
        <pt x="1366" y="764" on="1"/>
        <pt x="1631" y="764" on="1"/>
        <pt x="1687" y="764" on="0"/>
        <pt x="1777" y="800" on="0"/>
        <pt x="1808" y="838" on="1"/>
        <pt x="1838" y="874" on="1"/>
        <pt x="1852" y="891" on="0"/>
        <pt x="1867" y="919" on="1"/>
        <pt x="1920" y="1019" on="1"/>
        <pt x="1949" y="1073" on="1"/>
        <pt x="1979" y="1062" on="0"/>
        <pt x="1987" y="1047" on="1"/>
        <pt x="1967" y="1011" on="0"/>
        <pt x="1930" y="926" on="0"/>
        <pt x="1903" y="840" on="0"/>
        <pt x="1887" y="761" on="0"/>
        <pt x="1887" y="733" on="1"/>
        <pt x="1887" y="590" on="0"/>
        <pt x="1987" y="420" on="1"/>
        <pt x="1980" y="404" on="0"/>
        <pt x="1949" y="393" on="1"/>
        <pt x="1944" y="403" on="0"/>
        <pt x="1928" y="431" on="0"/>
        <pt x="1918" y="450" on="1"/>
        <pt x="1888" y="508" on="1"/>
        <pt x="1867" y="547" on="0"/>
        <pt x="1820" y="618" on="0"/>
        <pt x="1759" y="671" on="0"/>
        <pt x="1682" y="702" on="0"/>
        <pt x="1631" y="702" on="1"/>
        <pt x="1366" y="702" on="1"/>
        <pt x="1366" y="618" on="0"/>
        <pt x="1372" y="303" on="0"/>
        <pt x="1377" y="61" on="1"/>
        <pt x="1676" y="61" on="1"/>
        <pt x="1824" y="71" on="0"/>
        <pt x="2045" y="129" on="0"/>
        <pt x="2205" y="218" on="0"/>
        <pt x="2313" y="333" on="0"/>
        <pt x="2348" y="399" on="1"/>
        <pt x="2376" y="388" on="0"/>
        <pt x="2383" y="373" on="1"/>
        <pt x="2381" y="368" on="0"/>
        <pt x="2294" y="207" on="0"/>
        <pt x="2243" y="66" on="0"/>
        <pt x="2235" y="0" on="1"/>
        <pt x="1318" y="0" on="0"/>
        <pt x="1223" y="1" on="0"/>
        <pt x="1171" y="0" on="1"/>
        <pt x="1097" y="-22" on="0"/>
        <pt x="953" y="-42" on="0"/>
        <pt x="887" y="-42" on="1"/>
        <pt x="811" y="-42" on="0"/>
        <pt x="640" y="-11" on="0"/>
        <pt x="472" y="60" on="0"/>
        <pt x="319" y="177" on="0"/>
        <pt x="202" y="348" on="0"/>
        <pt x="133" y="579" on="0"/>
        <pt x="133" y="729" on="1"/>
        <pt x="133" y="886" on="0"/>
        <pt x="207" y="1123" on="0"/>
        <pt x="330" y="1296" on="0"/>
        <pt x="487" y="1409" on="0"/>
        <pt x="654" y="1477" on="0"/>
        <pt x="818" y="1504" on="0"/>
      </contour>
      <contour>
        <pt x="1145" y="100" on="1"/>
        <pt x="1152" y="265" on="0"/>
        <pt x="1155" y="600" on="0"/>
        <pt x="1155" y="768" on="1"/>
        <pt x="1155" y="931" on="0"/>
        <pt x="1152" y="1224" on="0"/>
        <pt x="1145" y="1362" on="1"/>
        <pt x="1091" y="1392" on="0"/>
        <pt x="966" y="1432" on="0"/>
        <pt x="891" y="1432" on="1"/>
        <pt x="797" y="1432" on="0"/>
        <pt x="651" y="1370" on="0"/>
        <pt x="541" y="1265" on="0"/>
        <pt x="465" y="1126" on="0"/>
        <pt x="418" y="970" on="0"/>
        <pt x="397" y="806" on="0"/>
        <pt x="397" y="729" on="1"/>
        <pt x="397" y="653" on="0"/>
        <pt x="418" y="491" on="0"/>
        <pt x="464" y="336" on="0"/>
        <pt x="540" y="197" on="0"/>
        <pt x="650" y="92" on="0"/>
        <pt x="796" y="31" on="0"/>
        <pt x="891" y="31" on="1"/>
        <pt x="963" y="31" on="0"/>
        <pt x="1088" y="64" on="0"/>
      </contour>
    </TTGlyph>
    <TTGlyph name="Oacute" xMin="133" yMin="-42" xMax="1649" yMax="2054">
      <component glyphName="O" x="0" y="0" flags="0x204"/>
      <component glyphName="acute" x="285" y="586" flags="0x4"/>
    </TTGlyph>
    <TTGlyph name="Ocircumflex" xMin="133" yMin="-42" xMax="1649" yMax="1985">
      <component glyphName="O" x="0" y="0" flags="0x204"/>
      <component glyphName="circumflex" x="344" y="586" flags="0x4"/>
    </TTGlyph>
    <TTGlyph name="Odieresis" xMin="133" yMin="-42" xMax="1649" yMax="1944">
      <component glyphName="O" x="0" y="0" flags="0x204"/>
      <component glyphName="dieresis" x="328" y="586" flags="0x4"/>
    </TTGlyph>
    <TTGlyph name="Ograve" xMin="133" yMin="-42" xMax="1649" yMax="2054">
      <component glyphName="O" x="0" y="0" flags="0x204"/>
      <component glyphName="grave" x="290" y="586" flags="0x4"/>
    </TTGlyph>
    <TTGlyph name="Oslash" xMin="133" yMin="-182" xMax="1649" yMax="1620">
      <contour>
        <pt x="1397" y="1331" on="1"/>
        <pt x="1649" y="1125" on="0"/>
        <pt x="1649" y="729" on="1"/>
        <pt x="1649" y="602" on="0"/>
        <pt x="1596" y="385" on="0"/>
        <pt x="1506" y="230" on="0"/>
        <pt x="1381" y="107" on="0"/>
        <pt x="1246" y="30" on="0"/>
        <pt x="1094" y="-21" on="0"/>
        <pt x="958" y="-41" on="0"/>
        <pt x="891" y="-41" on="1"/>
        <pt x="668" y="-41" on="0"/>
        <pt x="483" y="59" on="1"/>
        <pt x="311" y="-182" on="1"/>
        <pt x="223" y="-117" on="1"/>
        <pt x="393" y="121" on="1"/>
        <pt x="133" y="325" on="0"/>
        <pt x="133" y="729" on="1"/>
        <pt x="133" y="856" on="0"/>
        <pt x="186" y="1073" on="0"/>
        <pt x="276" y="1229" on="0"/>
        <pt x="401" y="1353" on="0"/>
        <pt x="536" y="1431" on="0"/>
        <pt x="688" y="1482" on="0"/>
        <pt x="824" y="1503" on="0"/>
        <pt x="891" y="1503" on="1"/>
        <pt x="1121" y="1503" on="0"/>
        <pt x="1307" y="1395" on="1"/>
        <pt x="1468" y="1620" on="1"/>
        <pt x="1556" y="1554" on="1"/>
      </contour>
      <contour>
        <pt x="397" y="729" on="1"/>
        <pt x="397" y="459" on="0"/>
        <pt x="500" y="270" on="1"/>
        <pt x="1223" y="1276" on="1"/>
        <pt x="1094" y="1432" on="0"/>
        <pt x="891" y="1432" on="1"/>
        <pt x="800" y="1432" on="0"/>
        <pt x="649" y="1371" on="0"/>
        <pt x="543" y="1264" on="0"/>
        <pt x="464" y="1128" on="0"/>
        <pt x="419" y="967" on="0"/>
        <pt x="397" y="809" on="0"/>
      </contour>
      <contour>
        <pt x="1384" y="729" on="1"/>
        <pt x="1384" y="990" on="0"/>
        <pt x="1286" y="1178" on="1"/>
        <pt x="567" y="174" on="1"/>
        <pt x="693" y="31" on="0"/>
        <pt x="891" y="31" on="1"/>
        <pt x="999" y="31" on="0"/>
        <pt x="1172" y="118" on="0"/>
        <pt x="1282" y="258" on="0"/>
        <pt x="1354" y="445" on="0"/>
        <pt x="1384" y="632" on="0"/>
      </contour>
    </TTGlyph>
    <TTGlyph name="Otilde" xMin="133" yMin="-42" xMax="1649" yMax="1927">
      <component glyphName="O" x="0" y="0" flags="0x204"/>
      <component glyphName="tilde" x="326" y="586" flags="0x4"/>
    </TTGlyph>
    <TTGlyph name="P" xMin="72" yMin="-6" xMax="1241" yMax="1470">
      <contour>
        <pt x="315" y="678" on="1"/>
        <pt x="315" y="750" on="0"/>
        <pt x="305" y="1337" on="1"/>
        <pt x="302" y="1360" on="0"/>
        <pt x="261" y="1393" on="0"/>
        <pt x="183" y="1411" on="0"/>
        <pt x="134" y="1419" on="0"/>
        <pt x="90" y="1423" on="1"/>
        <pt x="86" y="1441" on="0"/>
        <pt x="86" y="1448" on="1"/>
        <pt x="86" y="1454" on="0"/>
        <pt x="90" y="1470" on="1"/>
        <pt x="116" y="1469" on="0"/>
        <pt x="312" y="1462" on="0"/>
        <pt x="365" y="1462" on="1"/>
        <pt x="410" y="1462" on="0"/>
        <pt x="660" y="1470" on="0"/>
        <pt x="715" y="1470" on="1"/>
        <pt x="971" y="1470" on="0"/>
        <pt x="1241" y="1232" on="0"/>
        <pt x="1241" y="1034" on="1"/>
        <pt x="1241" y="846" on="0"/>
        <pt x="999" y="608" on="0"/>
        <pt x="776" y="608" on="1"/>
        <pt x="642" y="608" on="0"/>
        <pt x="535" y="664" on="1"/>
        <pt x="535" y="420" on="0"/>
        <pt x="541" y="137" on="1"/>
        <pt x="542" y="111" on="0"/>
        <pt x="586" y="74" on="0"/>
        <pt x="669" y="54" on="0"/>
        <pt x="726" y="45" on="0"/>
        <pt x="772" y="41" on="1"/>
        <pt x="776" y="21" on="0"/>
        <pt x="776" y="14" on="1"/>
        <pt x="776" y="6" on="0"/>
        <pt x="772" y="-6" on="1"/>
        <pt x="602" y="0" on="0"/>
        <pt x="424" y="0" on="1"/>
        <pt x="244" y="0" on="0"/>
        <pt x="76" y="-6" on="1"/>
        <pt x="72" y="6" on="0"/>
        <pt x="72" y="14" on="1"/>
        <pt x="72" y="31" on="0"/>
        <pt x="76" y="41" on="1"/>
        <pt x="122" y="45" on="0"/>
        <pt x="179" y="54" on="0"/>
        <pt x="262" y="74" on="0"/>
        <pt x="306" y="111" on="0"/>
        <pt x="307" y="137" on="1"/>
        <pt x="315" y="394" on="0"/>
      </contour>
      <contour>
        <pt x="541" y="1401" on="1"/>
        <pt x="535" y="1041" on="0"/>
        <pt x="535" y="731" on="1"/>
        <pt x="617" y="694" on="0"/>
        <pt x="698" y="694" on="1"/>
        <pt x="839" y="694" on="0"/>
        <pt x="981" y="876" on="0"/>
        <pt x="981" y="1036" on="1"/>
        <pt x="981" y="1405" on="0"/>
        <pt x="616" y="1405" on="1"/>
        <pt x="593" y="1405" on="0"/>
      </contour>
    </TTGlyph>
    <TTGlyph name="Q" xMin="133" yMin="-487" xMax="1649" yMax="1503">
      <contour>
        <pt x="1649" y="729" on="1"/>
        <pt x="1649" y="607" on="0"/>
        <pt x="1603" y="410" on="0"/>
        <pt x="1522" y="253" on="0"/>
        <pt x="1412" y="134" on="0"/>
        <pt x="1284" y="49" on="0"/>
        <pt x="1145" y="-6" on="0"/>
        <pt x="1075" y="-20" on="1"/>
        <pt x="1091" y="-55" on="0"/>
        <pt x="1128" y="-128" on="0"/>
        <pt x="1180" y="-200" on="0"/>
        <pt x="1253" y="-272" on="0"/>
        <pt x="1358" y="-342" on="0"/>
        <pt x="1501" y="-409" on="0"/>
        <pt x="1597" y="-440" on="1"/>
        <pt x="1606" y="-452" on="0"/>
        <pt x="1606" y="-465" on="1"/>
        <pt x="1606" y="-481" on="0"/>
        <pt x="1599" y="-487" on="1"/>
        <pt x="1465" y="-487" on="0"/>
        <pt x="1206" y="-433" on="0"/>
        <pt x="979" y="-320" on="0"/>
        <pt x="795" y="-147" on="0"/>
        <pt x="735" y="-27" on="1"/>
        <pt x="666" y="-16" on="0"/>
        <pt x="524" y="33" on="0"/>
        <pt x="390" y="114" on="0"/>
        <pt x="272" y="231" on="0"/>
        <pt x="184" y="391" on="0"/>
        <pt x="133" y="599" on="0"/>
        <pt x="133" y="729" on="1"/>
        <pt x="133" y="887" on="0"/>
        <pt x="208" y="1125" on="0"/>
        <pt x="332" y="1297" on="0"/>
        <pt x="491" y="1410" on="0"/>
        <pt x="659" y="1476" on="0"/>
        <pt x="824" y="1503" on="0"/>
        <pt x="891" y="1503" on="1"/>
        <pt x="965" y="1503" on="0"/>
        <pt x="1134" y="1474" on="0"/>
        <pt x="1303" y="1404" on="0"/>
        <pt x="1458" y="1289" on="0"/>
        <pt x="1578" y="1117" on="0"/>
        <pt x="1649" y="883" on="0"/>
      </contour>
      <contour>
        <pt x="1384" y="729" on="1"/>
        <pt x="1384" y="806" on="0"/>
        <pt x="1363" y="970" on="0"/>
        <pt x="1316" y="1126" on="0"/>
        <pt x="1240" y="1265" on="0"/>
        <pt x="1130" y="1370" on="0"/>
        <pt x="984" y="1432" on="0"/>
        <pt x="891" y="1432" on="1"/>
        <pt x="797" y="1432" on="0"/>
        <pt x="651" y="1370" on="0"/>
        <pt x="541" y="1265" on="0"/>
        <pt x="465" y="1126" on="0"/>
        <pt x="418" y="970" on="0"/>
        <pt x="397" y="806" on="0"/>
        <pt x="397" y="729" on="1"/>
        <pt x="397" y="655" on="0"/>
        <pt x="417" y="495" on="0"/>
        <pt x="463" y="340" on="0"/>
        <pt x="538" y="200" on="0"/>
        <pt x="648" y="94" on="0"/>
        <pt x="795" y="31" on="0"/>
        <pt x="891" y="31" on="1"/>
        <pt x="985" y="31" on="0"/>
        <pt x="1131" y="92" on="0"/>
        <pt x="1241" y="197" on="0"/>
        <pt x="1316" y="336" on="0"/>
        <pt x="1363" y="491" on="0"/>
        <pt x="1384" y="653" on="0"/>
      </contour>
    </TTGlyph>
    <TTGlyph name="R" xMin="72" yMin="-6" xMax="1542" yMax="1470">
      <contour>
        <pt x="78" y="1470" on="1"/>
        <pt x="294" y="1462" on="0"/>
        <pt x="426" y="1462" on="1"/>
        <pt x="476" y="1462" on="0"/>
        <pt x="698" y="1470" on="0"/>
        <pt x="758" y="1470" on="1"/>
        <pt x="980" y="1470" on="0"/>
        <pt x="1235" y="1246" on="0"/>
        <pt x="1235" y="1067" on="1"/>
        <pt x="1235" y="923" on="0"/>
        <pt x="1065" y="696" on="0"/>
        <pt x="918" y="647" on="1"/>
        <pt x="985" y="527" on="0"/>
        <pt x="1102" y="375" on="1"/>
        <pt x="1215" y="224" on="0"/>
        <pt x="1420" y="52" on="0"/>
        <pt x="1538" y="41" on="1"/>
        <pt x="1542" y="25" on="0"/>
        <pt x="1542" y="16" on="1"/>
        <pt x="1542" y="6" on="0"/>
        <pt x="1538" y="-6" on="1"/>
        <pt x="1478" y="-3" on="0"/>
        <pt x="1342" y="-1" on="0"/>
        <pt x="1175" y="-1" on="0"/>
        <pt x="1130" y="0" on="1"/>
        <pt x="861" y="313" on="0"/>
        <pt x="698" y="616" on="1"/>
        <pt x="625" y="616" on="0"/>
        <pt x="530" y="639" on="1"/>
        <pt x="530" y="445" on="0"/>
        <pt x="541" y="137" on="1"/>
        <pt x="542" y="111" on="0"/>
        <pt x="586" y="74" on="0"/>
        <pt x="669" y="54" on="0"/>
        <pt x="726" y="45" on="0"/>
        <pt x="772" y="41" on="1"/>
        <pt x="776" y="21" on="0"/>
        <pt x="776" y="14" on="1"/>
        <pt x="776" y="6" on="0"/>
        <pt x="772" y="-6" on="1"/>
        <pt x="602" y="0" on="0"/>
        <pt x="424" y="0" on="1"/>
        <pt x="244" y="0" on="0"/>
        <pt x="76" y="-6" on="1"/>
        <pt x="72" y="6" on="0"/>
        <pt x="72" y="14" on="1"/>
        <pt x="72" y="31" on="0"/>
        <pt x="76" y="41" on="1"/>
        <pt x="106" y="44" on="0"/>
        <pt x="142" y="48" on="0"/>
        <pt x="205" y="58" on="0"/>
        <pt x="244" y="71" on="0"/>
        <pt x="286" y="91" on="0"/>
        <pt x="307" y="119" on="0"/>
        <pt x="307" y="137" on="1"/>
        <pt x="319" y="450" on="0"/>
        <pt x="319" y="768" on="1"/>
        <pt x="319" y="1092" on="0"/>
        <pt x="309" y="1327" on="1"/>
        <pt x="308" y="1353" on="0"/>
        <pt x="264" y="1390" on="0"/>
        <pt x="181" y="1410" on="0"/>
        <pt x="124" y="1419" on="0"/>
        <pt x="78" y="1423" on="1"/>
        <pt x="74" y="1441" on="0"/>
        <pt x="74" y="1448" on="1"/>
        <pt x="74" y="1454" on="0"/>
      </contour>
      <contour>
        <pt x="543" y="1401" on="1"/>
        <pt x="541" y="1401" on="1"/>
        <pt x="530" y="1032" on="0"/>
        <pt x="530" y="715" on="1"/>
        <pt x="600" y="692" on="0"/>
        <pt x="672" y="692" on="1"/>
        <pt x="738" y="692" on="0"/>
        <pt x="843" y="737" on="0"/>
        <pt x="911" y="811" on="0"/>
        <pt x="956" y="911" on="0"/>
        <pt x="975" y="1013" on="0"/>
        <pt x="975" y="1067" on="1"/>
        <pt x="975" y="1216" on="0"/>
        <pt x="812" y="1405" on="0"/>
        <pt x="662" y="1405" on="1"/>
        <pt x="588" y="1405" on="0"/>
      </contour>
    </TTGlyph>
    <TTGlyph name="S" xMin="123" yMin="-41" xMax="1161" yMax="1503">
      <contour>
        <pt x="1040" y="1047" on="1"/>
        <pt x="1002" y="1230" on="0"/>
        <pt x="799" y="1432" on="0"/>
        <pt x="657" y="1432" on="1"/>
        <pt x="518" y="1432" on="0"/>
        <pt x="365" y="1300" on="0"/>
        <pt x="365" y="1190" on="1"/>
        <pt x="365" y="1129" on="0"/>
        <pt x="387" y="1049" on="0"/>
        <pt x="455" y="974" on="0"/>
        <pt x="585" y="917" on="0"/>
        <pt x="690" y="891" on="1"/>
        <pt x="747" y="877" on="0"/>
        <pt x="832" y="853" on="0"/>
        <pt x="935" y="811" on="0"/>
        <pt x="1010" y="763" on="0"/>
        <pt x="1085" y="692" on="0"/>
        <pt x="1132" y="606" on="0"/>
        <pt x="1161" y="489" on="0"/>
        <pt x="1161" y="420" on="1"/>
        <pt x="1161" y="328" on="0"/>
        <pt x="1093" y="173" on="0"/>
        <pt x="983" y="67" on="0"/>
        <pt x="839" y="-7" on="0"/>
        <pt x="691" y="-41" on="0"/>
        <pt x="618" y="-41" on="1"/>
        <pt x="396" y="-41" on="0"/>
        <pt x="145" y="74" on="1"/>
        <pt x="150" y="182" on="0"/>
        <pt x="150" y="207" on="1"/>
        <pt x="150" y="370" on="0"/>
        <pt x="123" y="532" on="1"/>
        <pt x="134" y="539" on="0"/>
        <pt x="145" y="539" on="1"/>
        <pt x="159" y="539" on="0"/>
        <pt x="170" y="532" on="1"/>
        <pt x="191" y="403" on="0"/>
        <pt x="288" y="205" on="0"/>
        <pt x="414" y="90" on="0"/>
        <pt x="549" y="33" on="0"/>
        <pt x="618" y="33" on="1"/>
        <pt x="775" y="33" on="0"/>
        <pt x="944" y="196" on="0"/>
        <pt x="944" y="330" on="1"/>
        <pt x="944" y="465" on="0"/>
        <pt x="819" y="602" on="0"/>
        <pt x="643" y="645" on="1"/>
        <pt x="423" y="700" on="0"/>
        <pt x="176" y="915" on="0"/>
        <pt x="176" y="1092" on="1"/>
        <pt x="176" y="1185" on="0"/>
        <pt x="237" y="1332" on="0"/>
        <pt x="334" y="1421" on="0"/>
        <pt x="464" y="1480" on="0"/>
        <pt x="591" y="1503" on="0"/>
        <pt x="657" y="1503" on="1"/>
        <pt x="855" y="1503" on="0"/>
        <pt x="1069" y="1411" on="1"/>
        <pt x="1063" y="1352" on="0"/>
        <pt x="1063" y="1288" on="1"/>
        <pt x="1063" y="1138" on="0"/>
        <pt x="1087" y="1047" on="1"/>
        <pt x="1074" y="1042" on="0"/>
        <pt x="1065" y="1042" on="1"/>
        <pt x="1055" y="1042" on="0"/>
      </contour>
    </TTGlyph>
    <TTGlyph name="T" xMin="10" yMin="-6" xMax="1618" yMax="1470">
      <contour>
        <pt x="158" y="1470" on="1"/>
        <pt x="267" y="1466" on="0"/>
        <pt x="593" y="1462" on="0"/>
        <pt x="813" y="1462" on="1"/>
        <pt x="1033" y="1462" on="0"/>
        <pt x="1360" y="1466" on="0"/>
        <pt x="1470" y="1470" on="1"/>
        <pt x="1476" y="1427" on="0"/>
        <pt x="1494" y="1348" on="0"/>
        <pt x="1515" y="1300" on="1"/>
        <pt x="1545" y="1232" on="1"/>
        <pt x="1618" y="1090" on="1"/>
        <pt x="1611" y="1074" on="0"/>
        <pt x="1583" y="1063" on="1"/>
        <pt x="1549" y="1126" on="0"/>
        <pt x="1451" y="1240" on="0"/>
        <pt x="1300" y="1332" on="0"/>
        <pt x="1083" y="1394" on="0"/>
        <pt x="930" y="1405" on="1"/>
        <pt x="925" y="1280" on="0"/>
        <pt x="920" y="965" on="0"/>
        <pt x="920" y="772" on="1"/>
        <pt x="920" y="578" on="0"/>
        <pt x="925" y="262" on="0"/>
        <pt x="930" y="137" on="1"/>
        <pt x="931" y="113" on="0"/>
        <pt x="967" y="80" on="0"/>
        <pt x="1030" y="58" on="0"/>
        <pt x="1113" y="45" on="0"/>
        <pt x="1161" y="41" on="1"/>
        <pt x="1165" y="24" on="0"/>
        <pt x="1165" y="14" on="1"/>
        <pt x="1165" y="5" on="0"/>
        <pt x="1161" y="-6" on="1"/>
        <pt x="993" y="0" on="0"/>
        <pt x="813" y="0" on="1"/>
        <pt x="634" y="0" on="0"/>
        <pt x="465" y="-6" on="1"/>
        <pt x="461" y="5" on="0"/>
        <pt x="461" y="14" on="1"/>
        <pt x="461" y="24" on="0"/>
        <pt x="465" y="41" on="1"/>
        <pt x="513" y="46" on="1"/>
        <pt x="539" y="49" on="0"/>
        <pt x="603" y="60" on="0"/>
        <pt x="658" y="80" on="0"/>
        <pt x="696" y="110" on="0"/>
        <pt x="696" y="132" on="1"/>
        <pt x="696" y="137" on="1"/>
        <pt x="701" y="320" on="0"/>
        <pt x="707" y="636" on="0"/>
        <pt x="707" y="772" on="1"/>
        <pt x="707" y="907" on="0"/>
        <pt x="701" y="1222" on="0"/>
        <pt x="696" y="1405" on="1"/>
        <pt x="552" y="1397" on="0"/>
        <pt x="339" y="1336" on="0"/>
        <pt x="183" y="1245" on="0"/>
        <pt x="79" y="1128" on="0"/>
        <pt x="45" y="1063" on="1"/>
        <pt x="17" y="1074" on="0"/>
        <pt x="10" y="1090" on="1"/>
        <pt x="55" y="1175" on="1"/>
        <pt x="76" y="1218" on="1"/>
        <pt x="89" y="1245" on="0"/>
        <pt x="115" y="1301" on="0"/>
        <pt x="138" y="1362" on="0"/>
        <pt x="154" y="1431" on="0"/>
      </contour>
    </TTGlyph>
    <TTGlyph name="Thorn" xMin="72" yMin="-6" xMax="1253" yMax="1470">
      <contour>
        <pt x="78" y="1470" on="1"/>
        <pt x="190" y="1466" on="0"/>
        <pt x="363" y="1462" on="0"/>
        <pt x="426" y="1462" on="1"/>
        <pt x="489" y="1462" on="0"/>
        <pt x="662" y="1466" on="0"/>
        <pt x="774" y="1470" on="1"/>
        <pt x="778" y="1455" on="0"/>
        <pt x="778" y="1448" on="1"/>
        <pt x="778" y="1435" on="0"/>
        <pt x="774" y="1423" on="1"/>
        <pt x="726" y="1418" on="1"/>
        <pt x="702" y="1415" on="0"/>
        <pt x="639" y="1405" on="0"/>
        <pt x="582" y="1385" on="0"/>
        <pt x="543" y="1354" on="0"/>
        <pt x="543" y="1331" on="1"/>
        <pt x="537" y="1153" on="1"/>
        <pt x="631" y="1194" on="0"/>
        <pt x="801" y="1194" on="1"/>
        <pt x="904" y="1194" on="0"/>
        <pt x="1072" y="1134" on="0"/>
        <pt x="1189" y="1023" on="0"/>
        <pt x="1253" y="867" on="0"/>
        <pt x="1253" y="772" on="1"/>
        <pt x="1253" y="682" on="0"/>
        <pt x="1195" y="522" on="0"/>
        <pt x="1078" y="402" on="0"/>
        <pt x="904" y="332" on="0"/>
        <pt x="788" y="332" on="1"/>
        <pt x="636" y="332" on="0"/>
        <pt x="532" y="375" on="1"/>
        <pt x="532" y="370" on="0"/>
        <pt x="533" y="321" on="0"/>
        <pt x="541" y="137" on="1"/>
        <pt x="542" y="113" on="0"/>
        <pt x="579" y="80" on="0"/>
        <pt x="641" y="58" on="0"/>
        <pt x="724" y="45" on="0"/>
        <pt x="772" y="41" on="1"/>
        <pt x="776" y="30" on="0"/>
        <pt x="776" y="14" on="1"/>
        <pt x="776" y="5" on="0"/>
        <pt x="772" y="-6" on="1"/>
        <pt x="602" y="0" on="0"/>
        <pt x="424" y="0" on="1"/>
        <pt x="244" y="0" on="0"/>
        <pt x="76" y="-6" on="1"/>
        <pt x="72" y="5" on="0"/>
        <pt x="72" y="14" on="1"/>
        <pt x="72" y="32" on="0"/>
        <pt x="76" y="41" on="1"/>
        <pt x="115" y="45" on="0"/>
        <pt x="196" y="56" on="0"/>
        <pt x="263" y="77" on="0"/>
        <pt x="306" y="111" on="0"/>
        <pt x="307" y="137" on="1"/>
        <pt x="312" y="295" on="0"/>
        <pt x="319" y="608" on="0"/>
        <pt x="319" y="768" on="1"/>
        <pt x="319" y="931" on="0"/>
        <pt x="314" y="1209" on="0"/>
        <pt x="309" y="1327" on="1"/>
        <pt x="308" y="1350" on="0"/>
        <pt x="273" y="1382" on="0"/>
        <pt x="212" y="1404" on="0"/>
        <pt x="128" y="1418" on="0"/>
        <pt x="78" y="1423" on="1"/>
        <pt x="74" y="1439" on="0"/>
        <pt x="74" y="1448" on="1"/>
        <pt x="74" y="1459" on="0"/>
      </contour>
      <contour>
        <pt x="721" y="1108" on="1"/>
        <pt x="607" y="1108" on="0"/>
        <pt x="535" y="1081" on="1"/>
        <pt x="530" y="952" on="0"/>
        <pt x="530" y="694" on="1"/>
        <pt x="530" y="526" on="0"/>
        <pt x="532" y="440" on="1"/>
        <pt x="603" y="418" on="0"/>
        <pt x="711" y="418" on="1"/>
        <pt x="850" y="418" on="0"/>
        <pt x="993" y="612" on="0"/>
        <pt x="993" y="774" on="1"/>
        <pt x="993" y="1108" on="0"/>
      </contour>
    </TTGlyph>
    <TTGlyph name="U" xMin="41" yMin="-41" xMax="1737" yMax="1470">
      <contour>
        <pt x="45" y="1470" on="1"/>
        <pt x="214" y="1464" on="0"/>
        <pt x="393" y="1464" on="1"/>
        <pt x="573" y="1464" on="0"/>
        <pt x="741" y="1470" on="1"/>
        <pt x="745" y="1454" on="0"/>
        <pt x="745" y="1448" on="1"/>
        <pt x="745" y="1441" on="0"/>
        <pt x="741" y="1423" on="1"/>
        <pt x="711" y="1420" on="0"/>
        <pt x="675" y="1416" on="0"/>
        <pt x="612" y="1406" on="0"/>
        <pt x="573" y="1393" on="0"/>
        <pt x="531" y="1373" on="0"/>
        <pt x="510" y="1345" on="0"/>
        <pt x="510" y="1327" on="1"/>
        <pt x="506" y="1194" on="0"/>
        <pt x="506" y="596" on="1"/>
        <pt x="506" y="311" on="0"/>
        <pt x="697" y="53" on="0"/>
        <pt x="926" y="53" on="1"/>
        <pt x="1157" y="53" on="0"/>
        <pt x="1407" y="334" on="0"/>
        <pt x="1407" y="596" on="1"/>
        <pt x="1407" y="1073" on="0"/>
        <pt x="1401" y="1313" on="1"/>
        <pt x="1399" y="1403" on="0"/>
        <pt x="1180" y="1423" on="1"/>
        <pt x="1176" y="1445" on="0"/>
        <pt x="1176" y="1450" on="1"/>
        <pt x="1176" y="1458" on="0"/>
        <pt x="1180" y="1470" on="1"/>
        <pt x="1339" y="1464" on="0"/>
        <pt x="1464" y="1464" on="1"/>
        <pt x="1544" y="1464" on="0"/>
        <pt x="1733" y="1470" on="1"/>
        <pt x="1737" y="1458" on="0"/>
        <pt x="1737" y="1450" on="1"/>
        <pt x="1737" y="1434" on="0"/>
        <pt x="1733" y="1423" on="1"/>
        <pt x="1516" y="1403" on="0"/>
        <pt x="1511" y="1313" on="1"/>
        <pt x="1501" y="1075" on="0"/>
        <pt x="1501" y="596" on="1"/>
        <pt x="1501" y="450" on="0"/>
        <pt x="1425" y="221" on="0"/>
        <pt x="1307" y="83" on="0"/>
        <pt x="1150" y="-7" on="0"/>
        <pt x="1004" y="-41" on="0"/>
        <pt x="930" y="-41" on="1"/>
        <pt x="831" y="-41" on="0"/>
        <pt x="673" y="-19" on="0"/>
        <pt x="523" y="34" on="0"/>
        <pt x="413" y="129" on="0"/>
        <pt x="329" y="267" on="0"/>
        <pt x="287" y="467" on="0"/>
        <pt x="287" y="596" on="1"/>
        <pt x="287" y="760" on="1"/>
        <pt x="287" y="1095" on="0"/>
        <pt x="276" y="1327" on="1"/>
        <pt x="275" y="1353" on="0"/>
        <pt x="231" y="1390" on="0"/>
        <pt x="148" y="1410" on="0"/>
        <pt x="91" y="1419" on="0"/>
        <pt x="45" y="1423" on="1"/>
        <pt x="41" y="1441" on="0"/>
        <pt x="41" y="1448" on="1"/>
        <pt x="41" y="1454" on="0"/>
      </contour>
    </TTGlyph>
    <TTGlyph name="Uacute" xMin="41" yMin="-41" xMax="1737" yMax="2054">
      <component glyphName="U" x="0" y="0" flags="0x204"/>
      <component glyphName="acute" x="375" y="586" flags="0x4"/>
    </TTGlyph>
    <TTGlyph name="Ucircumflex" xMin="41" yMin="-41" xMax="1737" yMax="1985">
      <component glyphName="U" x="0" y="0" flags="0x204"/>
      <component glyphName="circumflex" x="414" y="586" flags="0x4"/>
    </TTGlyph>
    <TTGlyph name="Udieresis" xMin="41" yMin="-41" xMax="1737" yMax="1944">
      <component glyphName="U" x="0" y="0" flags="0x204"/>
      <component glyphName="dieresis" x="405" y="586" flags="0x4"/>
    </TTGlyph>
    <TTGlyph name="Ugrave" xMin="41" yMin="-41" xMax="1737" yMax="2054">
      <component glyphName="U" x="0" y="0" flags="0x204"/>
      <component glyphName="grave" x="305" y="586" flags="0x4"/>
    </TTGlyph>
    <TTGlyph name="V" xMin="0" yMin="-29" xMax="1614" yMax="1470">
      <contour>
        <pt x="4" y="1470" on="1"/>
        <pt x="230" y="1462" on="0"/>
        <pt x="360" y="1462" on="1"/>
        <pt x="549" y="1462" on="0"/>
        <pt x="698" y="1470" on="1"/>
        <pt x="702" y="1454" on="0"/>
        <pt x="702" y="1448" on="1"/>
        <pt x="702" y="1437" on="0"/>
        <pt x="698" y="1423" on="1"/>
        <pt x="566" y="1419" on="0"/>
        <pt x="473" y="1388" on="0"/>
        <pt x="473" y="1350" on="1"/>
        <pt x="473" y="1349" on="0"/>
        <pt x="487" y="1300" on="1"/>
        <pt x="903" y="334" on="1"/>
        <pt x="913" y="334" on="1"/>
        <pt x="1303" y="1313" on="1"/>
        <pt x="1309" y="1328" on="0"/>
        <pt x="1309" y="1352" on="1"/>
        <pt x="1309" y="1385" on="0"/>
        <pt x="1237" y="1413" on="0"/>
        <pt x="1149" y="1423" on="1"/>
        <pt x="1145" y="1445" on="0"/>
        <pt x="1145" y="1450" on="1"/>
        <pt x="1145" y="1458" on="0"/>
        <pt x="1149" y="1470" on="1"/>
        <pt x="1278" y="1464" on="0"/>
        <pt x="1382" y="1464" on="1"/>
        <pt x="1496" y="1464" on="0"/>
        <pt x="1610" y="1470" on="1"/>
        <pt x="1614" y="1458" on="0"/>
        <pt x="1614" y="1450" on="1"/>
        <pt x="1614" y="1434" on="0"/>
        <pt x="1610" y="1423" on="1"/>
        <pt x="1535" y="1416" on="0"/>
        <pt x="1436" y="1369" on="0"/>
        <pt x="1409" y="1313" on="1"/>
        <pt x="868" y="-29" on="1"/>
        <pt x="821" y="-29" on="1"/>
        <pt x="240" y="1300" on="1"/>
        <pt x="194" y="1405" on="0"/>
        <pt x="4" y="1423" on="1"/>
        <pt x="0" y="1441" on="0"/>
        <pt x="0" y="1448" on="1"/>
        <pt x="0" y="1458" on="0"/>
      </contour>
    </TTGlyph>
    <TTGlyph name="W" xMin="0" yMin="-29" xMax="2154" yMax="1470">
      <contour>
        <pt x="4" y="1470" on="1"/>
        <pt x="218" y="1462" on="0"/>
        <pt x="340" y="1462" on="1"/>
        <pt x="457" y="1462" on="0"/>
        <pt x="598" y="1470" on="1"/>
        <pt x="602" y="1454" on="0"/>
        <pt x="602" y="1448" on="1"/>
        <pt x="602" y="1437" on="0"/>
        <pt x="598" y="1423" on="1"/>
        <pt x="511" y="1419" on="0"/>
        <pt x="446" y="1384" on="0"/>
        <pt x="446" y="1356" on="1"/>
        <pt x="446" y="1348" on="0"/>
        <pt x="451" y="1327" on="0"/>
        <pt x="854" y="334" on="1"/>
        <pt x="864" y="334" on="1"/>
        <pt x="1059" y="854" on="1"/>
        <pt x="883" y="1300" on="1"/>
        <pt x="841" y="1408" on="0"/>
        <pt x="682" y="1423" on="1"/>
        <pt x="678" y="1441" on="0"/>
        <pt x="678" y="1448" on="1"/>
        <pt x="678" y="1458" on="0"/>
        <pt x="682" y="1470" on="1"/>
        <pt x="823" y="1462" on="0"/>
        <pt x="995" y="1462" on="1"/>
        <pt x="1153" y="1462" on="0"/>
        <pt x="1294" y="1470" on="1"/>
        <pt x="1298" y="1454" on="0"/>
        <pt x="1298" y="1448" on="1"/>
        <pt x="1298" y="1437" on="0"/>
        <pt x="1294" y="1423" on="1"/>
        <pt x="1173" y="1419" on="0"/>
        <pt x="1102" y="1390" on="0"/>
        <pt x="1102" y="1350" on="1"/>
        <pt x="1102" y="1349" on="0"/>
        <pt x="1116" y="1300" on="1"/>
        <pt x="1485" y="334" on="1"/>
        <pt x="1495" y="334" on="1"/>
        <pt x="1860" y="1313" on="1"/>
        <pt x="1866" y="1328" on="0"/>
        <pt x="1866" y="1352" on="1"/>
        <pt x="1866" y="1384" on="0"/>
        <pt x="1788" y="1413" on="0"/>
        <pt x="1700" y="1423" on="1"/>
        <pt x="1696" y="1445" on="0"/>
        <pt x="1696" y="1450" on="1"/>
        <pt x="1696" y="1458" on="0"/>
        <pt x="1700" y="1470" on="1"/>
        <pt x="1823" y="1464" on="0"/>
        <pt x="1935" y="1464" on="1"/>
        <pt x="2044" y="1464" on="0"/>
        <pt x="2150" y="1470" on="1"/>
        <pt x="2154" y="1458" on="0"/>
        <pt x="2154" y="1450" on="1"/>
        <pt x="2154" y="1434" on="0"/>
        <pt x="2150" y="1423" on="1"/>
        <pt x="2079" y="1416" on="0"/>
        <pt x="1986" y="1370" on="0"/>
        <pt x="1960" y="1313" on="1"/>
        <pt x="1452" y="-29" on="1"/>
        <pt x="1407" y="-29" on="1"/>
        <pt x="1106" y="733" on="1"/>
        <pt x="821" y="-29" on="1"/>
        <pt x="776" y="-29" on="1"/>
        <pt x="227" y="1300" on="1"/>
        <pt x="183" y="1406" on="0"/>
        <pt x="4" y="1423" on="1"/>
        <pt x="0" y="1441" on="0"/>
        <pt x="0" y="1448" on="1"/>
        <pt x="0" y="1458" on="0"/>
      </contour>
    </TTGlyph>
    <TTGlyph name="X" xMin="20" yMin="-8" xMax="1524" yMax="1470">
      <contour>
        <pt x="51" y="1470" on="1"/>
        <pt x="277" y="1462" on="0"/>
        <pt x="414" y="1462" on="1"/>
        <pt x="580" y="1462" on="0"/>
        <pt x="731" y="1470" on="1"/>
        <pt x="735" y="1454" on="0"/>
        <pt x="735" y="1448" on="1"/>
        <pt x="735" y="1437" on="0"/>
        <pt x="731" y="1423" on="1"/>
        <pt x="619" y="1418" on="0"/>
        <pt x="526" y="1387" on="0"/>
        <pt x="526" y="1350" on="1"/>
        <pt x="526" y="1332" on="0"/>
        <pt x="553" y="1288" on="1"/>
        <pt x="799" y="897" on="1"/>
        <pt x="1096" y="1313" on="1"/>
        <pt x="1106" y="1330" on="0"/>
        <pt x="1106" y="1354" on="1"/>
        <pt x="1106" y="1385" on="0"/>
        <pt x="1027" y="1414" on="0"/>
        <pt x="948" y="1423" on="1"/>
        <pt x="944" y="1445" on="0"/>
        <pt x="944" y="1450" on="1"/>
        <pt x="944" y="1458" on="0"/>
        <pt x="948" y="1470" on="1"/>
        <pt x="1077" y="1464" on="0"/>
        <pt x="1182" y="1464" on="1"/>
        <pt x="1316" y="1464" on="0"/>
        <pt x="1430" y="1470" on="1"/>
        <pt x="1434" y="1458" on="0"/>
        <pt x="1434" y="1450" on="1"/>
        <pt x="1434" y="1434" on="0"/>
        <pt x="1430" y="1423" on="1"/>
        <pt x="1265" y="1408" on="0"/>
        <pt x="1200" y="1313" on="1"/>
        <pt x="848" y="821" on="1"/>
        <pt x="1268" y="152" on="1"/>
        <pt x="1340" y="56" on="0"/>
        <pt x="1520" y="39" on="1"/>
        <pt x="1524" y="23" on="0"/>
        <pt x="1524" y="14" on="1"/>
        <pt x="1524" y="4" on="0"/>
        <pt x="1520" y="-8" on="1"/>
        <pt x="1294" y="0" on="0"/>
        <pt x="1147" y="0" on="1"/>
        <pt x="948" y="0" on="0"/>
        <pt x="799" y="-8" on="1"/>
        <pt x="795" y="8" on="0"/>
        <pt x="795" y="14" on="1"/>
        <pt x="795" y="27" on="0"/>
        <pt x="799" y="39" on="1"/>
        <pt x="1030" y="49" on="0"/>
        <pt x="1030" y="109" on="1"/>
        <pt x="1030" y="134" on="0"/>
        <pt x="1020" y="152" on="1"/>
        <pt x="715" y="637" on="1"/>
        <pt x="362" y="154" on="1"/>
        <pt x="348" y="132" on="0"/>
        <pt x="348" y="111" on="1"/>
        <pt x="348" y="80" on="0"/>
        <pt x="435" y="50" on="0"/>
        <pt x="516" y="41" on="1"/>
        <pt x="520" y="21" on="0"/>
        <pt x="520" y="14" on="1"/>
        <pt x="520" y="6" on="0"/>
        <pt x="516" y="-6" on="1"/>
        <pt x="387" y="0" on="0"/>
        <pt x="272" y="0" on="1"/>
        <pt x="138" y="0" on="0"/>
        <pt x="25" y="-6" on="1"/>
        <pt x="20" y="9" on="0"/>
        <pt x="20" y="14" on="1"/>
        <pt x="20" y="31" on="0"/>
        <pt x="25" y="41" on="1"/>
        <pt x="184" y="56" on="0"/>
        <pt x="254" y="152" on="1"/>
        <pt x="668" y="713" on="1"/>
        <pt x="283" y="1327" on="1"/>
        <pt x="261" y="1356" on="0"/>
        <pt x="208" y="1393" on="0"/>
        <pt x="140" y="1412" on="0"/>
        <pt x="94" y="1419" on="0"/>
        <pt x="51" y="1423" on="1"/>
        <pt x="47" y="1441" on="0"/>
        <pt x="47" y="1448" on="1"/>
        <pt x="47" y="1458" on="0"/>
      </contour>
    </TTGlyph>
    <TTGlyph name="Y" xMin="0" yMin="-6" xMax="1466" yMax="1470">
      <contour>
        <pt x="4" y="1470" on="1"/>
        <pt x="230" y="1462" on="0"/>
        <pt x="367" y="1462" on="1"/>
        <pt x="554" y="1462" on="0"/>
        <pt x="705" y="1470" on="1"/>
        <pt x="709" y="1454" on="0"/>
        <pt x="709" y="1448" on="1"/>
        <pt x="709" y="1437" on="0"/>
        <pt x="705" y="1423" on="1"/>
        <pt x="588" y="1418" on="0"/>
        <pt x="479" y="1386" on="0"/>
        <pt x="479" y="1350" on="1"/>
        <pt x="479" y="1337" on="0"/>
        <pt x="496" y="1305" on="1"/>
        <pt x="803" y="754" on="1"/>
        <pt x="811" y="754" on="1"/>
        <pt x="1147" y="1313" on="1"/>
        <pt x="1159" y="1333" on="0"/>
        <pt x="1159" y="1354" on="1"/>
        <pt x="1159" y="1385" on="0"/>
        <pt x="1080" y="1414" on="0"/>
        <pt x="1001" y="1423" on="1"/>
        <pt x="997" y="1445" on="0"/>
        <pt x="997" y="1450" on="1"/>
        <pt x="997" y="1458" on="0"/>
        <pt x="1001" y="1470" on="1"/>
        <pt x="1130" y="1464" on="0"/>
        <pt x="1235" y="1464" on="1"/>
        <pt x="1348" y="1464" on="0"/>
        <pt x="1462" y="1470" on="1"/>
        <pt x="1466" y="1458" on="0"/>
        <pt x="1466" y="1450" on="1"/>
        <pt x="1466" y="1434" on="0"/>
        <pt x="1462" y="1423" on="1"/>
        <pt x="1389" y="1416" on="0"/>
        <pt x="1289" y="1370" on="0"/>
        <pt x="1253" y="1313" on="1"/>
        <pt x="838" y="643" on="1"/>
        <pt x="838" y="427" on="0"/>
        <pt x="848" y="137" on="1"/>
        <pt x="849" y="111" on="0"/>
        <pt x="893" y="74" on="0"/>
        <pt x="976" y="54" on="0"/>
        <pt x="1033" y="45" on="0"/>
        <pt x="1079" y="41" on="1"/>
        <pt x="1083" y="29" on="0"/>
        <pt x="1083" y="14" on="1"/>
        <pt x="1083" y="6" on="0"/>
        <pt x="1079" y="-6" on="1"/>
        <pt x="911" y="0" on="0"/>
        <pt x="731" y="0" on="1"/>
        <pt x="552" y="0" on="0"/>
        <pt x="383" y="-6" on="1"/>
        <pt x="379" y="6" on="0"/>
        <pt x="379" y="14" on="1"/>
        <pt x="379" y="31" on="0"/>
        <pt x="383" y="41" on="1"/>
        <pt x="429" y="45" on="0"/>
        <pt x="486" y="54" on="0"/>
        <pt x="569" y="74" on="0"/>
        <pt x="613" y="111" on="0"/>
        <pt x="614" y="137" on="1"/>
        <pt x="624" y="388" on="0"/>
        <pt x="627" y="643" on="1"/>
        <pt x="236" y="1327" on="1"/>
        <pt x="197" y="1376" on="0"/>
        <pt x="83" y="1416" on="0"/>
        <pt x="4" y="1423" on="1"/>
        <pt x="0" y="1441" on="0"/>
        <pt x="0" y="1448" on="1"/>
        <pt x="0" y="1458" on="0"/>
      </contour>
    </TTGlyph>
    <TTGlyph name="Yacute" xMin="0" yMin="-6" xMax="1466" yMax="2054">
      <component glyphName="Y" x="0" y="0" flags="0x204"/>
      <component glyphName="acute" x="225" y="586" flags="0x4"/>
    </TTGlyph>
    <TTGlyph name="Z" xMin="57" yMin="-6" xMax="1427" yMax="1470">
      <contour>
        <pt x="311" y="1470" on="1"/>
        <pt x="375" y="1469" on="0"/>
        <pt x="915" y="1462" on="0"/>
        <pt x="1047" y="1462" on="1"/>
        <pt x="1147" y="1462" on="0"/>
        <pt x="1247" y="1470" on="1"/>
        <pt x="1280" y="1459" on="0"/>
        <pt x="1280" y="1425" on="1"/>
        <pt x="788" y="730" on="0"/>
        <pt x="334" y="61" on="1"/>
        <pt x="664" y="61" on="1"/>
        <pt x="801" y="61" on="0"/>
        <pt x="1012" y="102" on="0"/>
        <pt x="1162" y="175" on="0"/>
        <pt x="1277" y="298" on="0"/>
        <pt x="1354" y="440" on="0"/>
        <pt x="1389" y="539" on="1"/>
        <pt x="1418" y="535" on="0"/>
        <pt x="1427" y="518" on="1"/>
        <pt x="1380" y="396" on="0"/>
        <pt x="1348" y="149" on="0"/>
        <pt x="1348" y="0" on="1"/>
        <pt x="285" y="0" on="1"/>
        <pt x="180" y="0" on="0"/>
        <pt x="72" y="-6" on="1"/>
        <pt x="57" y="9" on="0"/>
        <pt x="57" y="33" on="1"/>
        <pt x="526" y="689" on="0"/>
        <pt x="1008" y="1405" on="1"/>
        <pt x="886" y="1404" on="0"/>
        <pt x="702" y="1390" on="0"/>
        <pt x="543" y="1348" on="0"/>
        <pt x="433" y="1304" on="0"/>
        <pt x="299" y="1211" on="0"/>
        <pt x="206" y="1132" on="0"/>
        <pt x="123" y="1057" on="1"/>
        <pt x="95" y="1057" on="0"/>
        <pt x="82" y="1079" on="1"/>
        <pt x="239" y="1245" on="0"/>
      </contour>
    </TTGlyph>
    <TTGlyph name="a" xMin="133" yMin="-29" xMax="987" yMax="909">
      <contour>
        <pt x="170" y="657" on="1"/>
        <pt x="170" y="767" on="0"/>
        <pt x="371" y="909" on="0"/>
        <pt x="508" y="909" on="1"/>
        <pt x="676" y="909" on="0"/>
        <pt x="813" y="775" on="0"/>
        <pt x="813" y="616" on="1"/>
        <pt x="813" y="201" on="1"/>
        <pt x="813" y="145" on="0"/>
        <pt x="854" y="145" on="1"/>
        <pt x="887" y="145" on="0"/>
        <pt x="938" y="225" on="1"/>
        <pt x="974" y="222" on="0"/>
        <pt x="987" y="193" on="1"/>
        <pt x="980" y="183" on="0"/>
        <pt x="946" y="131" on="0"/>
        <pt x="930" y="109" on="0"/>
        <pt x="896" y="64" on="0"/>
        <pt x="875" y="42" on="0"/>
        <pt x="840" y="12" on="0"/>
        <pt x="811" y="-3" on="0"/>
        <pt x="773" y="-14" on="0"/>
        <pt x="754" y="-14" on="1"/>
        <pt x="704" y="-14" on="0"/>
        <pt x="639" y="58" on="0"/>
        <pt x="633" y="133" on="1"/>
        <pt x="632" y="132" on="0"/>
        <pt x="572" y="76" on="0"/>
        <pt x="549" y="57" on="0"/>
        <pt x="486" y="10" on="0"/>
        <pt x="442" y="-10" on="0"/>
        <pt x="376" y="-29" on="0"/>
        <pt x="344" y="-29" on="1"/>
        <pt x="293" y="-29" on="0"/>
        <pt x="214" y="-1" on="0"/>
        <pt x="170" y="39" on="0"/>
        <pt x="142" y="92" on="0"/>
        <pt x="133" y="136" on="0"/>
        <pt x="133" y="158" on="1"/>
        <pt x="133" y="225" on="0"/>
        <pt x="178" y="317" on="0"/>
        <pt x="301" y="397" on="0"/>
        <pt x="481" y="459" on="0"/>
        <pt x="633" y="498" on="1"/>
        <pt x="633" y="637" on="1"/>
        <pt x="633" y="738" on="0"/>
        <pt x="544" y="838" on="0"/>
        <pt x="469" y="838" on="1"/>
        <pt x="402" y="838" on="0"/>
        <pt x="311" y="785" on="0"/>
        <pt x="301" y="750" on="1"/>
        <pt x="399" y="735" on="0"/>
        <pt x="399" y="643" on="1"/>
        <pt x="399" y="601" on="0"/>
        <pt x="339" y="537" on="0"/>
        <pt x="285" y="537" on="1"/>
        <pt x="240" y="537" on="0"/>
        <pt x="170" y="600" on="0"/>
      </contour>
      <contour>
        <pt x="633" y="225" on="1"/>
        <pt x="633" y="434" on="1"/>
        <pt x="541" y="413" on="0"/>
        <pt x="421" y="364" on="0"/>
        <pt x="358" y="306" on="0"/>
        <pt x="334" y="245" on="0"/>
        <pt x="334" y="205" on="1"/>
        <pt x="334" y="155" on="0"/>
        <pt x="393" y="98" on="0"/>
        <pt x="436" y="98" on="1"/>
        <pt x="536" y="98" on="0"/>
      </contour>
    </TTGlyph>
    <TTGlyph name="aacute" xMin="133" yMin="-29" xMax="987" yMax="1468">
      <component glyphName="a" x="0" y="0" flags="0x204"/>
      <component glyphName="acute" x="-29" y="0" flags="0x4"/>
    </TTGlyph>
    <TTGlyph name="acircumflex" xMin="133" yMin="-29" xMax="987" yMax="1399">
      <component glyphName="a" x="0" y="0" flags="0x204"/>
      <component glyphName="circumflex" x="-29" y="0" flags="0x4"/>
    </TTGlyph>
    <TTGlyph name="acute" xMin="481" yMin="1083" xMax="901" yMax="1468">
      <contour>
        <pt x="481" y="1120" on="1"/>
        <pt x="723" y="1421" on="1"/>
        <pt x="764" y="1468" on="0"/>
        <pt x="815" y="1468" on="1"/>
        <pt x="853" y="1468" on="0"/>
        <pt x="901" y="1421" on="0"/>
        <pt x="901" y="1382" on="1"/>
        <pt x="901" y="1341" on="0"/>
        <pt x="864" y="1309" on="1"/>
        <pt x="850" y="1296" on="0"/>
        <pt x="793" y="1260" on="1"/>
        <pt x="510" y="1083" on="1"/>
      </contour>
    </TTGlyph>
    <TTGlyph name="adieresis" xMin="133" yMin="-29" xMax="987" yMax="1358">
      <component glyphName="a" x="0" y="0" flags="0x204"/>
      <component glyphName="dieresis" x="-42" y="0" flags="0x4"/>
    </TTGlyph>
    <TTGlyph name="ae" xMin="133" yMin="-29" xMax="1419" yMax="909">
      <contour>
        <pt x="170" y="657" on="1"/>
        <pt x="170" y="758" on="0"/>
        <pt x="340" y="896" on="0"/>
        <pt x="469" y="907" on="1"/>
        <pt x="489" y="909" on="0"/>
        <pt x="508" y="909" on="1"/>
        <pt x="617" y="909" on="0"/>
        <pt x="748" y="854" on="0"/>
        <pt x="780" y="793" on="1"/>
        <pt x="891" y="900" on="0"/>
        <pt x="1071" y="909" on="1"/>
        <pt x="1153" y="909" on="0"/>
        <pt x="1277" y="862" on="0"/>
        <pt x="1345" y="782" on="0"/>
        <pt x="1378" y="687" on="0"/>
        <pt x="1378" y="633" on="1"/>
        <pt x="1378" y="580" on="0"/>
        <pt x="1362" y="530" on="1"/>
        <pt x="817" y="530" on="1"/>
        <pt x="813" y="470" on="0"/>
        <pt x="813" y="424" on="1"/>
        <pt x="816" y="275" on="0"/>
        <pt x="984" y="96" on="0"/>
        <pt x="1124" y="96" on="1"/>
        <pt x="1162" y="96" on="0"/>
        <pt x="1229" y="114" on="0"/>
        <pt x="1272" y="135" on="0"/>
        <pt x="1318" y="177" on="0"/>
        <pt x="1338" y="202" on="0"/>
        <pt x="1375" y="254" on="0"/>
        <pt x="1380" y="260" on="1"/>
        <pt x="1406" y="255" on="0"/>
        <pt x="1419" y="238" on="1"/>
        <pt x="1370" y="104" on="0"/>
        <pt x="1160" y="-29" on="0"/>
        <pt x="1036" y="-29" on="1"/>
        <pt x="936" y="-29" on="0"/>
        <pt x="762" y="54" on="0"/>
        <pt x="707" y="139" on="1"/>
        <pt x="660" y="100" on="0"/>
        <pt x="613" y="63" on="0"/>
        <pt x="534" y="11" on="0"/>
        <pt x="474" y="-12" on="0"/>
        <pt x="391" y="-29" on="0"/>
        <pt x="344" y="-29" on="1"/>
        <pt x="293" y="-29" on="0"/>
        <pt x="214" y="-1" on="0"/>
        <pt x="170" y="39" on="0"/>
        <pt x="142" y="92" on="0"/>
        <pt x="133" y="136" on="0"/>
        <pt x="133" y="158" on="1"/>
        <pt x="133" y="225" on="0"/>
        <pt x="178" y="317" on="0"/>
        <pt x="301" y="397" on="0"/>
        <pt x="481" y="459" on="0"/>
        <pt x="633" y="498" on="1"/>
        <pt x="633" y="637" on="1"/>
        <pt x="633" y="738" on="0"/>
        <pt x="544" y="838" on="0"/>
        <pt x="469" y="838" on="1"/>
        <pt x="402" y="838" on="0"/>
        <pt x="311" y="785" on="0"/>
        <pt x="301" y="750" on="1"/>
        <pt x="399" y="735" on="0"/>
        <pt x="399" y="643" on="1"/>
        <pt x="399" y="601" on="0"/>
        <pt x="339" y="537" on="0"/>
        <pt x="285" y="537" on="1"/>
        <pt x="240" y="537" on="0"/>
        <pt x="170" y="600" on="0"/>
      </contour>
      <contour>
        <pt x="633" y="178" on="1"/>
        <pt x="633" y="434" on="1"/>
        <pt x="541" y="413" on="0"/>
        <pt x="421" y="364" on="0"/>
        <pt x="358" y="306" on="0"/>
        <pt x="334" y="245" on="0"/>
        <pt x="334" y="205" on="1"/>
        <pt x="334" y="155" on="0"/>
        <pt x="393" y="98" on="0"/>
        <pt x="436" y="98" on="1"/>
        <pt x="498" y="98" on="0"/>
        <pt x="589" y="139" on="0"/>
      </contour>
      <contour>
        <pt x="1047" y="844" on="1"/>
        <pt x="978" y="844" on="0"/>
        <pt x="854" y="722" on="0"/>
        <pt x="827" y="598" on="1"/>
        <pt x="1188" y="598" on="1"/>
        <pt x="1198" y="636" on="0"/>
        <pt x="1198" y="664" on="1"/>
        <pt x="1198" y="742" on="0"/>
        <pt x="1126" y="844" on="0"/>
      </contour>
    </TTGlyph>
    <TTGlyph name="agrave" xMin="133" yMin="-29" xMax="987" yMax="1468">
      <component glyphName="a" x="0" y="0" flags="0x204"/>
      <component glyphName="grave" x="-99" y="0" flags="0x4"/>
    </TTGlyph>
    <TTGlyph name="ampersand" xMin="123" yMin="-31" xMax="1503" yMax="1421">
      <contour>
        <pt x="1061" y="866" on="1"/>
        <pt x="1057" y="882" on="0"/>
        <pt x="1057" y="889" on="1"/>
        <pt x="1057" y="901" on="0"/>
        <pt x="1061" y="913" on="1"/>
        <pt x="1196" y="907" on="0"/>
        <pt x="1237" y="907" on="1"/>
        <pt x="1332" y="907" on="0"/>
        <pt x="1481" y="913" on="1"/>
        <pt x="1485" y="901" on="0"/>
        <pt x="1485" y="893" on="1"/>
        <pt x="1485" y="888" on="0"/>
        <pt x="1481" y="866" on="1"/>
        <pt x="1414" y="858" on="0"/>
        <pt x="1347" y="814" on="0"/>
        <pt x="1321" y="772" on="1"/>
        <pt x="1279" y="707" on="0"/>
        <pt x="1135" y="434" on="0"/>
        <pt x="1053" y="315" on="1"/>
        <pt x="1066" y="300" on="0"/>
        <pt x="1139" y="201" on="0"/>
        <pt x="1186" y="147" on="0"/>
        <pt x="1267" y="96" on="0"/>
        <pt x="1309" y="96" on="1"/>
        <pt x="1363" y="96" on="0"/>
        <pt x="1430" y="163" on="0"/>
        <pt x="1456" y="227" on="1"/>
        <pt x="1489" y="227" on="0"/>
        <pt x="1503" y="215" on="1"/>
        <pt x="1491" y="164" on="0"/>
        <pt x="1458" y="88" on="0"/>
        <pt x="1400" y="11" on="0"/>
        <pt x="1301" y="-31" on="0"/>
        <pt x="1235" y="-31" on="1"/>
        <pt x="1208" y="-31" on="0"/>
        <pt x="1175" y="-28" on="0"/>
        <pt x="1108" y="-7" on="0"/>
        <pt x="1052" y="32" on="0"/>
        <pt x="975" y="113" on="0"/>
        <pt x="938" y="170" on="1"/>
        <pt x="869" y="106" on="0"/>
        <pt x="741" y="21" on="0"/>
        <pt x="631" y="-18" on="0"/>
        <pt x="553" y="-31" on="0"/>
        <pt x="510" y="-31" on="1"/>
        <pt x="426" y="-31" on="0"/>
        <pt x="291" y="17" on="0"/>
        <pt x="205" y="92" on="0"/>
        <pt x="147" y="191" on="0"/>
        <pt x="123" y="289" on="0"/>
        <pt x="123" y="338" on="1"/>
        <pt x="123" y="375" on="0"/>
        <pt x="138" y="455" on="0"/>
        <pt x="182" y="558" on="0"/>
        <pt x="252" y="652" on="0"/>
        <pt x="374" y="751" on="0"/>
        <pt x="453" y="788" on="1"/>
        <pt x="405" y="835" on="0"/>
        <pt x="352" y="895" on="0"/>
        <pt x="297" y="978" on="0"/>
        <pt x="274" y="1067" on="0"/>
        <pt x="274" y="1122" on="1"/>
        <pt x="274" y="1248" on="0"/>
        <pt x="468" y="1421" on="0"/>
        <pt x="608" y="1421" on="1"/>
        <pt x="743" y="1421" on="0"/>
        <pt x="899" y="1285" on="0"/>
        <pt x="899" y="1149" on="1"/>
        <pt x="899" y="1039" on="0"/>
        <pt x="775" y="887" on="0"/>
        <pt x="655" y="819" on="1"/>
        <pt x="765" y="708" on="0"/>
        <pt x="909" y="526" on="0"/>
        <pt x="1012" y="377" on="1"/>
        <pt x="1157" y="600" on="0"/>
        <pt x="1173" y="772" on="1"/>
        <pt x="1175" y="784" on="0"/>
        <pt x="1174" y="803" on="1"/>
        <pt x="1174" y="829" on="0"/>
        <pt x="1122" y="859" on="0"/>
      </contour>
      <contour>
        <pt x="895" y="240" on="1"/>
        <pt x="807" y="383" on="0"/>
        <pt x="643" y="592" on="0"/>
        <pt x="510" y="731" on="1"/>
        <pt x="429" y="696" on="0"/>
        <pt x="317" y="512" on="0"/>
        <pt x="317" y="387" on="1"/>
        <pt x="317" y="257" on="0"/>
        <pt x="477" y="119" on="0"/>
        <pt x="602" y="119" on="1"/>
        <pt x="782" y="119" on="0"/>
      </contour>
      <contour>
        <pt x="602" y="868" on="1"/>
        <pt x="673" y="905" on="0"/>
        <pt x="784" y="1046" on="0"/>
        <pt x="784" y="1145" on="1"/>
        <pt x="784" y="1238" on="0"/>
        <pt x="688" y="1331" on="0"/>
        <pt x="618" y="1331" on="1"/>
        <pt x="537" y="1331" on="0"/>
        <pt x="449" y="1213" on="0"/>
        <pt x="449" y="1124" on="1"/>
        <pt x="449" y="994" on="0"/>
      </contour>
    </TTGlyph>
    <TTGlyph name="aring" xMin="133" yMin="-29" xMax="987" yMax="1464">
      <component glyphName="a" x="0" y="0" flags="0x204"/>
      <component glyphName="ring" x="-52" y="0" flags="0x4"/>
    </TTGlyph>
    <TTGlyph name="asciicircum" xMin="164" yMin="1055" xMax="1063" yMax="1505">
      <contour>
        <pt x="612" y="1323" on="1"/>
        <pt x="344" y="1055" on="1"/>
        <pt x="164" y="1055" on="1"/>
        <pt x="612" y="1505" on="1"/>
        <pt x="1063" y="1055" on="1"/>
        <pt x="881" y="1055" on="1"/>
      </contour>
    </TTGlyph>
    <TTGlyph name="asciitilde" xMin="164" yMin="401" xMax="1214" yMax="727">
      <contour>
        <pt x="164" y="401" on="1"/>
        <pt x="177" y="436" on="0"/>
        <pt x="209" y="502" on="0"/>
        <pt x="272" y="591" on="0"/>
        <pt x="343" y="656" on="0"/>
        <pt x="451" y="702" on="0"/>
        <pt x="512" y="702" on="1"/>
        <pt x="626" y="702" on="0"/>
        <pt x="799" y="612" on="1"/>
        <pt x="892" y="567" on="0"/>
        <pt x="954" y="567" on="1"/>
        <pt x="1089" y="567" on="0"/>
        <pt x="1133" y="727" on="1"/>
        <pt x="1214" y="727" on="1"/>
        <pt x="1182" y="579" on="0"/>
        <pt x="989" y="401" on="0"/>
        <pt x="870" y="401" on="1"/>
        <pt x="787" y="401" on="0"/>
        <pt x="662" y="461" on="1"/>
        <pt x="645" y="469" on="0"/>
        <pt x="564" y="507" on="0"/>
        <pt x="521" y="525" on="0"/>
        <pt x="455" y="543" on="0"/>
        <pt x="428" y="543" on="1"/>
        <pt x="363" y="543" on="0"/>
        <pt x="279" y="472" on="0"/>
        <pt x="244" y="401" on="1"/>
      </contour>
    </TTGlyph>
    <TTGlyph name="asterisk" xMin="123" yMin="662" xMax="872" yMax="1503">
      <contour>
        <pt x="410" y="1083" on="1"/>
        <pt x="410" y="1100" on="0"/>
        <pt x="412" y="1106" on="1"/>
        <pt x="240" y="1149" on="1"/>
        <pt x="185" y="1161" on="0"/>
        <pt x="123" y="1222" on="0"/>
        <pt x="123" y="1268" on="1"/>
        <pt x="123" y="1289" on="0"/>
        <pt x="163" y="1333" on="0"/>
        <pt x="190" y="1333" on="1"/>
        <pt x="203" y="1333" on="0"/>
        <pt x="226" y="1330" on="0"/>
        <pt x="242" y="1326" on="0"/>
        <pt x="261" y="1317" on="0"/>
        <pt x="270" y="1312" on="0"/>
        <pt x="287" y="1297" on="0"/>
        <pt x="292" y="1292" on="0"/>
        <pt x="309" y="1274" on="0"/>
        <pt x="311" y="1272" on="1"/>
        <pt x="434" y="1145" on="1"/>
        <pt x="450" y="1161" on="0"/>
        <pt x="475" y="1167" on="1"/>
        <pt x="424" y="1339" on="1"/>
        <pt x="414" y="1377" on="0"/>
        <pt x="414" y="1405" on="1"/>
        <pt x="414" y="1450" on="0"/>
        <pt x="458" y="1503" on="0"/>
        <pt x="498" y="1503" on="1"/>
        <pt x="536" y="1503" on="0"/>
        <pt x="580" y="1447" on="0"/>
        <pt x="580" y="1401" on="1"/>
        <pt x="580" y="1369" on="0"/>
        <pt x="571" y="1339" on="1"/>
        <pt x="518" y="1165" on="1"/>
        <pt x="548" y="1152" on="0"/>
        <pt x="557" y="1141" on="1"/>
        <pt x="684" y="1272" on="1"/>
        <pt x="704" y="1292" on="0"/>
        <pt x="728" y="1312" on="0"/>
        <pt x="773" y="1331" on="0"/>
        <pt x="799" y="1331" on="1"/>
        <pt x="835" y="1331" on="0"/>
        <pt x="872" y="1291" on="0"/>
        <pt x="872" y="1268" on="1"/>
        <pt x="872" y="1224" on="0"/>
        <pt x="809" y="1161" on="0"/>
        <pt x="756" y="1149" on="1"/>
        <pt x="575" y="1106" on="1"/>
        <pt x="580" y="1093" on="0"/>
        <pt x="580" y="1083" on="1"/>
        <pt x="580" y="1069" on="0"/>
        <pt x="578" y="1063" on="1"/>
        <pt x="756" y="1018" on="1"/>
        <pt x="872" y="987" on="0"/>
        <pt x="872" y="905" on="1"/>
        <pt x="872" y="875" on="0"/>
        <pt x="836" y="836" on="0"/>
        <pt x="799" y="836" on="1"/>
        <pt x="768" y="836" on="0"/>
        <pt x="717" y="859" on="0"/>
        <pt x="684" y="893" on="1"/>
        <pt x="555" y="1024" on="1"/>
        <pt x="542" y="1011" on="0"/>
        <pt x="518" y="1004" on="1"/>
        <pt x="571" y="829" on="1"/>
        <pt x="580" y="803" on="0"/>
        <pt x="580" y="770" on="1"/>
        <pt x="580" y="723" on="0"/>
        <pt x="537" y="662" on="0"/>
        <pt x="498" y="662" on="1"/>
        <pt x="456" y="662" on="0"/>
        <pt x="414" y="718" on="0"/>
        <pt x="414" y="764" on="1"/>
        <pt x="414" y="792" on="0"/>
        <pt x="424" y="829" on="1"/>
        <pt x="475" y="1001" on="1"/>
        <pt x="453" y="1005" on="0"/>
        <pt x="436" y="1022" on="1"/>
        <pt x="311" y="893" on="1"/>
        <pt x="251" y="831" on="0"/>
        <pt x="175" y="831" on="0"/>
        <pt x="123" y="865" on="0"/>
        <pt x="123" y="899" on="1"/>
        <pt x="123" y="987" on="0"/>
        <pt x="240" y="1018" on="1"/>
        <pt x="412" y="1061" on="1"/>
        <pt x="410" y="1069" on="0"/>
      </contour>
    </TTGlyph>
    <TTGlyph name="at" xMin="135" yMin="-315" xMax="1903" yMax="1501">
      <contour>
        <pt x="1479" y="971" on="1"/>
        <pt x="1305" y="415" on="0"/>
        <pt x="1292" y="353" on="0"/>
        <pt x="1292" y="332" on="1"/>
        <pt x="1292" y="273" on="0"/>
        <pt x="1344" y="221" on="0"/>
        <pt x="1382" y="221" on="1"/>
        <pt x="1421" y="221" on="0"/>
        <pt x="1518" y="252" on="0"/>
        <pt x="1630" y="328" on="0"/>
        <pt x="1721" y="438" on="0"/>
        <pt x="1782" y="616" on="0"/>
        <pt x="1782" y="723" on="1"/>
        <pt x="1782" y="866" on="0"/>
        <pt x="1675" y="1118" on="0"/>
        <pt x="1489" y="1300" on="0"/>
        <pt x="1222" y="1405" on="0"/>
        <pt x="1069" y="1405" on="1"/>
        <pt x="911" y="1405" on="0"/>
        <pt x="641" y="1308" on="0"/>
        <pt x="455" y="1145" on="0"/>
        <pt x="322" y="933" on="0"/>
        <pt x="260" y="704" on="0"/>
        <pt x="260" y="588" on="1"/>
        <pt x="260" y="464" on="0"/>
        <pt x="334" y="229" on="0"/>
        <pt x="478" y="29" on="0"/>
        <pt x="673" y="-122" on="0"/>
        <pt x="930" y="-207" on="0"/>
        <pt x="1073" y="-207" on="1"/>
        <pt x="1194" y="-207" on="0"/>
        <pt x="1457" y="-112" on="0"/>
        <pt x="1548" y="-29" on="1"/>
        <pt x="1608" y="-129" on="1"/>
        <pt x="1469" y="-231" on="0"/>
        <pt x="1239" y="-315" on="0"/>
        <pt x="1083" y="-315" on="1"/>
        <pt x="910" y="-315" on="0"/>
        <pt x="604" y="-217" on="0"/>
        <pt x="380" y="-47" on="0"/>
        <pt x="217" y="179" on="0"/>
        <pt x="135" y="441" on="0"/>
        <pt x="135" y="578" on="1"/>
        <pt x="135" y="773" on="0"/>
        <pt x="273" y="1113" on="0"/>
        <pt x="515" y="1359" on="0"/>
        <pt x="865" y="1501" on="0"/>
        <pt x="1069" y="1501" on="1"/>
        <pt x="1251" y="1501" on="0"/>
        <pt x="1565" y="1376" on="0"/>
        <pt x="1780" y="1165" on="0"/>
        <pt x="1903" y="880" on="0"/>
        <pt x="1903" y="723" on="1"/>
        <pt x="1903" y="603" on="0"/>
        <pt x="1830" y="398" on="0"/>
        <pt x="1714" y="263" on="0"/>
        <pt x="1569" y="166" on="0"/>
        <pt x="1427" y="123" on="0"/>
        <pt x="1362" y="123" on="1"/>
        <pt x="1290" y="123" on="0"/>
        <pt x="1166" y="181" on="0"/>
        <pt x="1135" y="248" on="1"/>
        <pt x="1031" y="150" on="0"/>
        <pt x="887" y="150" on="1"/>
        <pt x="830" y="150" on="0"/>
        <pt x="726" y="194" on="0"/>
        <pt x="642" y="277" on="0"/>
        <pt x="592" y="413" on="0"/>
        <pt x="592" y="498" on="1"/>
        <pt x="592" y="633" on="0"/>
        <pt x="713" y="865" on="0"/>
        <pt x="935" y="1006" on="0"/>
        <pt x="1071" y="1006" on="1"/>
        <pt x="1098" y="1006" on="0"/>
        <pt x="1167" y="988" on="0"/>
        <pt x="1263" y="924" on="0"/>
        <pt x="1296" y="874" on="1"/>
        <pt x="1425" y="969" on="1"/>
      </contour>
      <contour>
        <pt x="1120" y="330" on="1"/>
        <pt x="1245" y="770" on="1"/>
        <pt x="1232" y="848" on="0"/>
        <pt x="1132" y="946" on="0"/>
        <pt x="1067" y="946" on="1"/>
        <pt x="982" y="946" on="0"/>
        <pt x="839" y="763" on="0"/>
        <pt x="801" y="598" on="1"/>
        <pt x="780" y="503" on="0"/>
        <pt x="780" y="377" on="1"/>
        <pt x="780" y="313" on="0"/>
        <pt x="850" y="217" on="0"/>
        <pt x="924" y="217" on="1"/>
        <pt x="1038" y="217" on="0"/>
      </contour>
    </TTGlyph>
    <TTGlyph name="atilde" xMin="133" yMin="-29" xMax="987" yMax="1341">
      <component glyphName="a" x="0" y="0" flags="0x204"/>
      <component glyphName="tilde" x="-41" y="0" flags="0x4"/>
    </TTGlyph>
    <TTGlyph name="b" xMin="0" yMin="-29" xMax="1038" yMax="1520">
      <contour>
        <pt x="4" y="1438" on="1"/>
        <pt x="195" y="1456" on="0"/>
        <pt x="342" y="1520" on="1"/>
        <pt x="370" y="1508" on="0"/>
        <pt x="377" y="1493" on="1"/>
        <pt x="377" y="758" on="1"/>
        <pt x="532" y="909" on="0"/>
        <pt x="690" y="909" on="1"/>
        <pt x="844" y="909" on="0"/>
        <pt x="1038" y="680" on="0"/>
        <pt x="1038" y="485" on="1"/>
        <pt x="1038" y="412" on="0"/>
        <pt x="1006" y="271" on="0"/>
        <pt x="932" y="136" on="0"/>
        <pt x="824" y="34" on="0"/>
        <pt x="658" y="-29" on="0"/>
        <pt x="557" y="-29" on="1"/>
        <pt x="458" y="-29" on="0"/>
        <pt x="270" y="37" on="0"/>
        <pt x="197" y="98" on="1"/>
        <pt x="199" y="197" on="0"/>
        <pt x="199" y="580" on="1"/>
        <pt x="199" y="739" on="0"/>
        <pt x="197" y="1287" on="0"/>
        <pt x="197" y="1350" on="1"/>
        <pt x="141" y="1383" on="0"/>
        <pt x="4" y="1391" on="1"/>
        <pt x="0" y="1407" on="0"/>
        <pt x="0" y="1415" on="1"/>
        <pt x="0" y="1422" on="0"/>
      </contour>
      <contour>
        <pt x="594" y="778" on="1"/>
        <pt x="527" y="778" on="0"/>
        <pt x="428" y="729" on="0"/>
        <pt x="377" y="680" on="1"/>
        <pt x="377" y="356" on="0"/>
        <pt x="381" y="156" on="1"/>
        <pt x="450" y="37" on="0"/>
        <pt x="592" y="37" on="1"/>
        <pt x="622" y="37" on="0"/>
        <pt x="683" y="57" on="0"/>
        <pt x="751" y="113" on="0"/>
        <pt x="802" y="199" on="0"/>
        <pt x="836" y="345" on="0"/>
        <pt x="836" y="438" on="1"/>
        <pt x="836" y="534" on="0"/>
        <pt x="786" y="684" on="0"/>
        <pt x="674" y="778" on="0"/>
      </contour>
    </TTGlyph>
    <TTGlyph name="backslash" xMin="-150" yMin="-426" xMax="790" yMax="1620">
      <contour>
        <pt x="657" y="-426" on="1"/>
        <pt x="-150" y="1620" on="1"/>
        <pt x="-13" y="1620" on="1"/>
        <pt x="790" y="-426" on="1"/>
      </contour>
    </TTGlyph>
    <TTGlyph name="bar" xMin="164" yMin="-477" xMax="281" yMax="1817">
      <contour>
        <pt x="164" y="-477" on="1"/>
        <pt x="164" y="1817" on="1"/>
        <pt x="281" y="1817" on="1"/>
        <pt x="281" y="-477" on="1"/>
      </contour>
    </TTGlyph>
    <TTGlyph name="braceleft" xMin="102" yMin="-428" xMax="745" yMax="1636">
      <contour>
        <pt x="102" y="604" on="1"/>
        <pt x="102" y="649" on="1"/>
        <pt x="151" y="656" on="0"/>
        <pt x="229" y="693" on="0"/>
        <pt x="279" y="741" on="0"/>
        <pt x="315" y="809" on="0"/>
        <pt x="334" y="869" on="0"/>
        <pt x="344" y="948" on="0"/>
        <pt x="346" y="999" on="0"/>
        <pt x="346" y="1034" on="1"/>
        <pt x="346" y="1056" on="0"/>
        <pt x="340" y="1202" on="0"/>
        <pt x="340" y="1231" on="1"/>
        <pt x="340" y="1267" on="0"/>
        <pt x="342" y="1312" on="0"/>
        <pt x="349" y="1380" on="0"/>
        <pt x="364" y="1425" on="0"/>
        <pt x="391" y="1484" on="0"/>
        <pt x="431" y="1524" on="0"/>
        <pt x="490" y="1569" on="0"/>
        <pt x="566" y="1600" on="0"/>
        <pt x="669" y="1628" on="0"/>
        <pt x="731" y="1636" on="1"/>
        <pt x="745" y="1587" on="1"/>
        <pt x="710" y="1583" on="0"/>
        <pt x="645" y="1557" on="0"/>
        <pt x="584" y="1511" on="0"/>
        <pt x="547" y="1430" on="0"/>
        <pt x="547" y="1378" on="1"/>
        <pt x="547" y="1345" on="0"/>
        <pt x="563" y="1140" on="0"/>
        <pt x="563" y="1073" on="1"/>
        <pt x="563" y="1042" on="0"/>
        <pt x="560" y="993" on="0"/>
        <pt x="546" y="913" on="0"/>
        <pt x="521" y="847" on="0"/>
        <pt x="472" y="764" on="0"/>
        <pt x="405" y="697" on="0"/>
        <pt x="301" y="629" on="0"/>
        <pt x="236" y="604" on="1"/>
        <pt x="301" y="579" on="0"/>
        <pt x="405" y="511" on="0"/>
        <pt x="472" y="444" on="0"/>
        <pt x="521" y="362" on="0"/>
        <pt x="546" y="296" on="0"/>
        <pt x="560" y="215" on="0"/>
        <pt x="563" y="166" on="0"/>
        <pt x="563" y="135" on="1"/>
        <pt x="563" y="68" on="0"/>
        <pt x="547" y="-137" on="0"/>
        <pt x="547" y="-170" on="1"/>
        <pt x="547" y="-222" on="0"/>
        <pt x="584" y="-302" on="0"/>
        <pt x="645" y="-349" on="0"/>
        <pt x="710" y="-375" on="0"/>
        <pt x="745" y="-379" on="1"/>
        <pt x="731" y="-428" on="1"/>
        <pt x="669" y="-420" on="0"/>
        <pt x="566" y="-392" on="0"/>
        <pt x="490" y="-361" on="0"/>
        <pt x="431" y="-316" on="0"/>
        <pt x="391" y="-276" on="0"/>
        <pt x="364" y="-217" on="0"/>
        <pt x="349" y="-172" on="0"/>
        <pt x="342" y="-104" on="0"/>
        <pt x="340" y="-59" on="0"/>
        <pt x="340" y="-23" on="1"/>
        <pt x="340" y="6" on="0"/>
        <pt x="346" y="152" on="0"/>
        <pt x="346" y="209" on="0"/>
        <pt x="344" y="260" on="0"/>
        <pt x="334" y="339" on="0"/>
        <pt x="315" y="399" on="0"/>
        <pt x="279" y="467" on="0"/>
        <pt x="229" y="515" on="0"/>
        <pt x="151" y="552" on="0"/>
        <pt x="102" y="559" on="1"/>
      </contour>
    </TTGlyph>
    <TTGlyph name="braceright" xMin="61" yMin="-428" xMax="705" yMax="1636">
      <contour>
        <pt x="571" y="604" on="1"/>
        <pt x="506" y="629" on="0"/>
        <pt x="402" y="697" on="0"/>
        <pt x="335" y="764" on="0"/>
        <pt x="286" y="847" on="0"/>
        <pt x="261" y="913" on="0"/>
        <pt x="247" y="993" on="0"/>
        <pt x="244" y="1042" on="0"/>
        <pt x="244" y="1073" on="1"/>
        <pt x="244" y="1140" on="0"/>
        <pt x="260" y="1345" on="0"/>
        <pt x="260" y="1378" on="1"/>
        <pt x="260" y="1430" on="0"/>
        <pt x="223" y="1511" on="0"/>
        <pt x="161" y="1557" on="0"/>
        <pt x="96" y="1583" on="0"/>
        <pt x="61" y="1587" on="1"/>
        <pt x="76" y="1636" on="1"/>
        <pt x="138" y="1628" on="0"/>
        <pt x="241" y="1600" on="0"/>
        <pt x="317" y="1569" on="0"/>
        <pt x="376" y="1524" on="0"/>
        <pt x="416" y="1484" on="0"/>
        <pt x="443" y="1425" on="0"/>
        <pt x="458" y="1380" on="0"/>
        <pt x="465" y="1312" on="0"/>
        <pt x="467" y="1267" on="0"/>
        <pt x="467" y="1231" on="1"/>
        <pt x="467" y="1202" on="0"/>
        <pt x="461" y="1056" on="0"/>
        <pt x="461" y="1034" on="1"/>
        <pt x="461" y="999" on="0"/>
        <pt x="463" y="948" on="0"/>
        <pt x="473" y="869" on="0"/>
        <pt x="492" y="809" on="0"/>
        <pt x="528" y="741" on="0"/>
        <pt x="578" y="693" on="0"/>
        <pt x="656" y="656" on="0"/>
        <pt x="705" y="649" on="1"/>
        <pt x="705" y="559" on="1"/>
        <pt x="656" y="552" on="0"/>
        <pt x="578" y="515" on="0"/>
        <pt x="528" y="467" on="0"/>
        <pt x="492" y="399" on="0"/>
        <pt x="473" y="339" on="0"/>
        <pt x="463" y="260" on="0"/>
        <pt x="461" y="209" on="0"/>
        <pt x="461" y="174" on="1"/>
        <pt x="461" y="152" on="0"/>
        <pt x="467" y="6" on="0"/>
        <pt x="467" y="-23" on="1"/>
        <pt x="467" y="-59" on="0"/>
        <pt x="465" y="-104" on="0"/>
        <pt x="458" y="-172" on="0"/>
        <pt x="443" y="-217" on="0"/>
        <pt x="416" y="-276" on="0"/>
        <pt x="376" y="-316" on="0"/>
        <pt x="317" y="-361" on="0"/>
        <pt x="241" y="-392" on="0"/>
        <pt x="138" y="-420" on="0"/>
        <pt x="76" y="-428" on="1"/>
        <pt x="61" y="-379" on="1"/>
        <pt x="96" y="-375" on="0"/>
        <pt x="162" y="-349" on="0"/>
        <pt x="223" y="-302" on="0"/>
        <pt x="260" y="-222" on="0"/>
        <pt x="260" y="-170" on="1"/>
        <pt x="260" y="-137" on="0"/>
        <pt x="244" y="68" on="0"/>
        <pt x="244" y="135" on="1"/>
        <pt x="244" y="166" on="0"/>
        <pt x="247" y="215" on="0"/>
        <pt x="261" y="296" on="0"/>
        <pt x="286" y="362" on="0"/>
        <pt x="335" y="444" on="0"/>
        <pt x="402" y="511" on="0"/>
        <pt x="506" y="579" on="0"/>
      </contour>
    </TTGlyph>
    <TTGlyph name="bracketleft" xMin="246" yMin="-426" xMax="741" yMax="1620">
      <contour>
        <pt x="741" y="1620" on="1"/>
        <pt x="741" y="1534" on="1"/>
        <pt x="444" y="1534" on="1"/>
        <pt x="444" y="-340" on="1"/>
        <pt x="741" y="-340" on="1"/>
        <pt x="741" y="-426" on="1"/>
        <pt x="246" y="-426" on="1"/>
        <pt x="246" y="1620" on="1"/>
      </contour>
    </TTGlyph>
    <TTGlyph name="bracketright" xMin="82" yMin="-426" xMax="578" yMax="1620">
      <contour>
        <pt x="82" y="1620" on="1"/>
        <pt x="578" y="1620" on="1"/>
        <pt x="578" y="-426" on="1"/>
        <pt x="82" y="-426" on="1"/>
        <pt x="82" y="-340" on="1"/>
        <pt x="379" y="-340" on="1"/>
        <pt x="379" y="1534" on="1"/>
        <pt x="82" y="1534" on="1"/>
      </contour>
    </TTGlyph>
    <TTGlyph name="brokenbar" xMin="164" yMin="-477" xMax="281" yMax="1817">
      <contour>
        <pt x="281" y="1817" on="1"/>
        <pt x="281" y="864" on="1"/>
        <pt x="164" y="864" on="1"/>
        <pt x="164" y="1817" on="1"/>
      </contour>
      <contour>
        <pt x="164" y="-477" on="1"/>
        <pt x="164" y="475" on="1"/>
        <pt x="281" y="475" on="1"/>
        <pt x="281" y="-477" on="1"/>
      </contour>
    </TTGlyph>
    <TTGlyph name="bullet" xMin="164" yMin="532" xMax="557" yMax="926">
      <contour>
        <pt x="164" y="729" on="1"/>
        <pt x="164" y="812" on="0"/>
        <pt x="277" y="926" on="0"/>
        <pt x="360" y="926" on="1"/>
        <pt x="442" y="926" on="0"/>
        <pt x="557" y="813" on="0"/>
        <pt x="557" y="729" on="1"/>
        <pt x="557" y="648" on="0"/>
        <pt x="442" y="532" on="0"/>
        <pt x="360" y="532" on="1"/>
        <pt x="277" y="532" on="0"/>
        <pt x="164" y="647" on="0"/>
      </contour>
    </TTGlyph>
    <TTGlyph name="c" xMin="123" yMin="-29" xMax="922" yMax="909">
      <contour>
        <pt x="883" y="260" on="1"/>
        <pt x="907" y="255" on="0"/>
        <pt x="922" y="238" on="1"/>
        <pt x="872" y="104" on="0"/>
        <pt x="662" y="-29" on="0"/>
        <pt x="539" y="-29" on="1"/>
        <pt x="478" y="-29" on="0"/>
        <pt x="362" y="2" on="0"/>
        <pt x="253" y="72" on="0"/>
        <pt x="172" y="175" on="0"/>
        <pt x="123" y="330" on="0"/>
        <pt x="123" y="424" on="1"/>
        <pt x="123" y="641" on="0"/>
        <pt x="389" y="909" on="0"/>
        <pt x="588" y="909" on="1"/>
        <pt x="728" y="909" on="0"/>
        <pt x="905" y="788" on="0"/>
        <pt x="905" y="694" on="1"/>
        <pt x="905" y="641" on="0"/>
        <pt x="835" y="571" on="0"/>
        <pt x="784" y="571" on="1"/>
        <pt x="730" y="571" on="0"/>
        <pt x="664" y="634" on="0"/>
        <pt x="664" y="676" on="1"/>
        <pt x="664" y="752" on="0"/>
        <pt x="741" y="772" on="1"/>
        <pt x="734" y="795" on="0"/>
        <pt x="658" y="844" on="0"/>
        <pt x="588" y="844" on="1"/>
        <pt x="552" y="844" on="0"/>
        <pt x="488" y="827" on="0"/>
        <pt x="415" y="773" on="0"/>
        <pt x="364" y="685" on="0"/>
        <pt x="330" y="528" on="0"/>
        <pt x="330" y="424" on="1"/>
        <pt x="330" y="354" on="0"/>
        <pt x="359" y="240" on="0"/>
        <pt x="421" y="148" on="0"/>
        <pt x="529" y="96" on="0"/>
        <pt x="602" y="96" on="1"/>
        <pt x="648" y="96" on="0"/>
        <pt x="730" y="121" on="0"/>
        <pt x="781" y="149" on="0"/>
        <pt x="840" y="206" on="0"/>
        <pt x="860" y="231" on="0"/>
      </contour>
    </TTGlyph>
    <TTGlyph name="caron" xMin="236" yMin="1067" xMax="866" yMax="1399">
      <contour>
        <pt x="551" y="1221" on="1"/>
        <pt x="793" y="1399" on="1"/>
        <pt x="866" y="1399" on="1"/>
        <pt x="610" y="1067" on="1"/>
        <pt x="492" y="1067" on="1"/>
        <pt x="236" y="1399" on="1"/>
        <pt x="309" y="1399" on="1"/>
      </contour>
    </TTGlyph>
    <TTGlyph name="ccedilla" xMin="123" yMin="-428" xMax="922" yMax="909">
      <contour>
        <pt x="883" y="260" on="1"/>
        <pt x="907" y="255" on="0"/>
        <pt x="922" y="238" on="1"/>
        <pt x="872" y="104" on="0"/>
        <pt x="767" y="37" on="1"/>
        <pt x="679" y="-18" on="0"/>
        <pt x="579" y="-27" on="1"/>
        <pt x="551" y="-113" on="1"/>
        <pt x="579" y="-109" on="0"/>
        <pt x="616" y="-109" on="1"/>
        <pt x="694" y="-109" on="0"/>
        <pt x="784" y="-183" on="0"/>
        <pt x="784" y="-252" on="1"/>
        <pt x="784" y="-324" on="0"/>
        <pt x="663" y="-428" on="0"/>
        <pt x="557" y="-428" on="1"/>
        <pt x="425" y="-428" on="0"/>
        <pt x="364" y="-334" on="1"/>
        <pt x="391" y="-303" on="1"/>
        <pt x="436" y="-350" on="0"/>
        <pt x="522" y="-350" on="1"/>
        <pt x="572" y="-350" on="0"/>
        <pt x="631" y="-297" on="0"/>
        <pt x="631" y="-256" on="1"/>
        <pt x="631" y="-216" on="0"/>
        <pt x="580" y="-174" on="0"/>
        <pt x="534" y="-174" on="1"/>
        <pt x="490" y="-174" on="0"/>
        <pt x="438" y="-188" on="1"/>
        <pt x="488" y="-26" on="1"/>
        <pt x="453" y="-22" on="0"/>
        <pt x="362" y="2" on="0"/>
        <pt x="253" y="72" on="0"/>
        <pt x="172" y="175" on="0"/>
        <pt x="123" y="330" on="0"/>
        <pt x="123" y="424" on="1"/>
        <pt x="123" y="641" on="0"/>
        <pt x="389" y="909" on="0"/>
        <pt x="588" y="909" on="1"/>
        <pt x="728" y="909" on="0"/>
        <pt x="905" y="788" on="0"/>
        <pt x="905" y="694" on="1"/>
        <pt x="905" y="641" on="0"/>
        <pt x="835" y="571" on="0"/>
        <pt x="784" y="571" on="1"/>
        <pt x="730" y="571" on="0"/>
        <pt x="664" y="634" on="0"/>
        <pt x="664" y="676" on="1"/>
        <pt x="664" y="752" on="0"/>
        <pt x="741" y="772" on="1"/>
        <pt x="734" y="795" on="0"/>
        <pt x="658" y="844" on="0"/>
        <pt x="588" y="844" on="1"/>
        <pt x="552" y="844" on="0"/>
        <pt x="488" y="827" on="0"/>
        <pt x="415" y="773" on="0"/>
        <pt x="364" y="685" on="0"/>
        <pt x="330" y="528" on="0"/>
        <pt x="330" y="424" on="1"/>
        <pt x="330" y="354" on="0"/>
        <pt x="359" y="240" on="0"/>
        <pt x="421" y="148" on="0"/>
        <pt x="529" y="96" on="0"/>
        <pt x="602" y="96" on="1"/>
        <pt x="648" y="96" on="0"/>
        <pt x="730" y="121" on="0"/>
        <pt x="781" y="149" on="0"/>
        <pt x="840" y="206" on="0"/>
        <pt x="860" y="231" on="0"/>
      </contour>
    </TTGlyph>
    <TTGlyph name="cedilla" xMin="317" yMin="-428" xMax="737" yMax="0">
      <contour>
        <pt x="449" y="0" on="1"/>
        <pt x="541" y="0" on="1"/>
        <pt x="504" y="-113" on="1"/>
        <pt x="532" y="-109" on="0"/>
        <pt x="569" y="-109" on="1"/>
        <pt x="647" y="-109" on="0"/>
        <pt x="737" y="-183" on="0"/>
        <pt x="737" y="-252" on="1"/>
        <pt x="737" y="-324" on="0"/>
        <pt x="616" y="-428" on="0"/>
        <pt x="510" y="-428" on="1"/>
        <pt x="378" y="-428" on="0"/>
        <pt x="317" y="-334" on="1"/>
        <pt x="344" y="-303" on="1"/>
        <pt x="389" y="-350" on="0"/>
        <pt x="475" y="-350" on="1"/>
        <pt x="525" y="-350" on="0"/>
        <pt x="584" y="-297" on="0"/>
        <pt x="584" y="-256" on="1"/>
        <pt x="584" y="-216" on="0"/>
        <pt x="533" y="-174" on="0"/>
        <pt x="487" y="-174" on="1"/>
        <pt x="443" y="-174" on="0"/>
        <pt x="391" y="-188" on="1"/>
      </contour>
    </TTGlyph>
    <TTGlyph name="cent" xMin="154" yMin="-164" xMax="952" yMax="1051">
      <contour>
        <pt x="913" y="260" on="1"/>
        <pt x="939" y="255" on="0"/>
        <pt x="952" y="238" on="1"/>
        <pt x="907" y="117" on="0"/>
        <pt x="725" y="-15" on="0"/>
        <pt x="614" y="-27" on="1"/>
        <pt x="614" y="-164" on="1"/>
        <pt x="537" y="-164" on="1"/>
        <pt x="537" y="-27" on="1"/>
        <pt x="463" y="-22" on="0"/>
        <pt x="331" y="35" on="0"/>
        <pt x="219" y="140" on="0"/>
        <pt x="154" y="313" on="0"/>
        <pt x="154" y="424" on="1"/>
        <pt x="154" y="620" on="0"/>
        <pt x="366" y="878" on="0"/>
        <pt x="537" y="903" on="1"/>
        <pt x="537" y="1051" on="1"/>
        <pt x="614" y="1051" on="1"/>
        <pt x="614" y="909" on="1"/>
        <pt x="754" y="907" on="0"/>
        <pt x="936" y="786" on="0"/>
        <pt x="936" y="694" on="1"/>
        <pt x="936" y="641" on="0"/>
        <pt x="866" y="571" on="0"/>
        <pt x="815" y="571" on="1"/>
        <pt x="761" y="571" on="0"/>
        <pt x="707" y="630" on="0"/>
        <pt x="707" y="674" on="1"/>
        <pt x="707" y="755" on="0"/>
        <pt x="772" y="772" on="1"/>
        <pt x="766" y="794" on="0"/>
        <pt x="682" y="843" on="0"/>
        <pt x="614" y="844" on="1"/>
        <pt x="614" y="92" on="1"/>
        <pt x="664" y="92" on="0"/>
        <pt x="753" y="118" on="0"/>
        <pt x="808" y="147" on="0"/>
        <pt x="869" y="204" on="0"/>
        <pt x="891" y="231" on="0"/>
      </contour>
      <contour>
        <pt x="537" y="834" on="1"/>
        <pt x="356" y="776" on="0"/>
        <pt x="356" y="424" on="1"/>
        <pt x="356" y="306" on="0"/>
        <pt x="445" y="135" on="0"/>
        <pt x="537" y="106" on="1"/>
      </contour>
    </TTGlyph>
    <TTGlyph name="circumflex" xMin="236" yMin="1067" xMax="866" yMax="1399">
      <contour>
        <pt x="551" y="1245" on="1"/>
        <pt x="309" y="1067" on="1"/>
        <pt x="236" y="1067" on="1"/>
        <pt x="492" y="1399" on="1"/>
        <pt x="610" y="1399" on="1"/>
        <pt x="866" y="1067" on="1"/>
        <pt x="793" y="1067" on="1"/>
      </contour>
    </TTGlyph>
    <TTGlyph name="colon" xMin="164" yMin="-29" xMax="414" yMax="895">
      <contour>
        <pt x="164" y="770" on="1"/>
        <pt x="164" y="796" on="0"/>
        <pt x="184" y="842" on="0"/>
        <pt x="218" y="876" on="0"/>
        <pt x="263" y="895" on="0"/>
        <pt x="289" y="895" on="1"/>
        <pt x="314" y="895" on="0"/>
        <pt x="360" y="875" on="0"/>
        <pt x="394" y="841" on="0"/>
        <pt x="414" y="795" on="0"/>
        <pt x="414" y="770" on="1"/>
        <pt x="414" y="745" on="0"/>
        <pt x="395" y="700" on="0"/>
        <pt x="361" y="665" on="0"/>
        <pt x="315" y="645" on="0"/>
        <pt x="289" y="645" on="1"/>
        <pt x="263" y="645" on="0"/>
        <pt x="218" y="665" on="0"/>
        <pt x="184" y="699" on="0"/>
        <pt x="164" y="744" on="0"/>
      </contour>
      <contour>
        <pt x="289" y="221" on="1"/>
        <pt x="314" y="221" on="0"/>
        <pt x="360" y="201" on="0"/>
        <pt x="394" y="167" on="0"/>
        <pt x="414" y="121" on="0"/>
        <pt x="414" y="96" on="1"/>
        <pt x="414" y="71" on="0"/>
        <pt x="395" y="26" on="0"/>
        <pt x="361" y="-9" on="0"/>
        <pt x="315" y="-29" on="0"/>
        <pt x="289" y="-29" on="1"/>
        <pt x="263" y="-29" on="0"/>
        <pt x="217" y="-10" on="0"/>
        <pt x="183" y="24" on="0"/>
        <pt x="164" y="70" on="0"/>
        <pt x="164" y="96" on="1"/>
        <pt x="164" y="122" on="0"/>
        <pt x="184" y="168" on="0"/>
        <pt x="218" y="202" on="0"/>
        <pt x="263" y="221" on="0"/>
      </contour>
    </TTGlyph>
    <TTGlyph name="comma" xMin="164" yMin="-262" xMax="414" yMax="221">
      <contour>
        <pt x="215" y="-262" on="1"/>
        <pt x="164" y="-217" on="1"/>
        <pt x="213" y="-174" on="0"/>
        <pt x="273" y="-96" on="0"/>
        <pt x="290" y="-54" on="0"/>
        <pt x="297" y="-27" on="1"/>
        <pt x="293" y="-20" on="1"/>
        <pt x="226" y="-20" on="0"/>
        <pt x="164" y="38" on="0"/>
        <pt x="164" y="98" on="1"/>
        <pt x="164" y="145" on="0"/>
        <pt x="231" y="221" on="0"/>
        <pt x="281" y="221" on="1"/>
        <pt x="338" y="221" on="0"/>
        <pt x="414" y="157" on="0"/>
        <pt x="414" y="86" on="1"/>
        <pt x="414" y="-8" on="0"/>
        <pt x="297" y="-209" on="0"/>
      </contour>
    </TTGlyph>
    <TTGlyph name="copyright" xMin="102" yMin="-39" xMax="1759" yMax="1618">
      <contour>
        <pt x="102" y="791" on="1"/>
        <pt x="102" y="905" on="0"/>
        <pt x="161" y="1116" on="0"/>
        <pt x="269" y="1300" on="0"/>
        <pt x="421" y="1451" on="0"/>
        <pt x="605" y="1559" on="0"/>
        <pt x="817" y="1618" on="0"/>
        <pt x="932" y="1618" on="1"/>
        <pt x="1047" y="1618" on="0"/>
        <pt x="1260" y="1558" on="0"/>
        <pt x="1444" y="1448" on="0"/>
        <pt x="1594" y="1296" on="0"/>
        <pt x="1701" y="1112" on="0"/>
        <pt x="1759" y="903" on="0"/>
        <pt x="1759" y="791" on="1"/>
        <pt x="1759" y="678" on="0"/>
        <pt x="1701" y="467" on="0"/>
        <pt x="1594" y="283" on="0"/>
        <pt x="1445" y="130" on="0"/>
        <pt x="1261" y="21" on="0"/>
        <pt x="1048" y="-39" on="0"/>
        <pt x="932" y="-39" on="1"/>
        <pt x="818" y="-39" on="0"/>
        <pt x="607" y="20" on="0"/>
        <pt x="423" y="127" on="0"/>
        <pt x="271" y="277" on="0"/>
        <pt x="162" y="462" on="0"/>
        <pt x="102" y="675" on="0"/>
      </contour>
      <contour>
        <pt x="201" y="791" on="1"/>
        <pt x="201" y="634" on="0"/>
        <pt x="322" y="358" on="0"/>
        <pt x="523" y="167" on="0"/>
        <pt x="789" y="57" on="0"/>
        <pt x="932" y="57" on="1"/>
        <pt x="1074" y="57" on="0"/>
        <pt x="1340" y="168" on="0"/>
        <pt x="1541" y="359" on="0"/>
        <pt x="1663" y="635" on="0"/>
        <pt x="1663" y="791" on="1"/>
        <pt x="1663" y="944" on="0"/>
        <pt x="1541" y="1219" on="0"/>
        <pt x="1340" y="1410" on="0"/>
        <pt x="1074" y="1522" on="0"/>
        <pt x="932" y="1522" on="1"/>
        <pt x="789" y="1522" on="0"/>
        <pt x="523" y="1412" on="0"/>
        <pt x="322" y="1222" on="0"/>
        <pt x="201" y="947" on="0"/>
      </contour>
      <contour>
        <pt x="1251" y="545" on="1"/>
        <pt x="1284" y="514" on="1"/>
        <pt x="1227" y="453" on="0"/>
        <pt x="1083" y="373" on="0"/>
        <pt x="971" y="346" on="0"/>
        <pt x="922" y="346" on="1"/>
        <pt x="844" y="346" on="0"/>
        <pt x="715" y="385" on="0"/>
        <pt x="630" y="447" on="0"/>
        <pt x="564" y="531" on="0"/>
        <pt x="529" y="612" on="0"/>
        <pt x="506" y="701" on="0"/>
        <pt x="500" y="762" on="0"/>
        <pt x="500" y="788" on="1"/>
        <pt x="500" y="992" on="0"/>
        <pt x="736" y="1247" on="0"/>
        <pt x="924" y="1247" on="1"/>
        <pt x="976" y="1247" on="0"/>
        <pt x="1060" y="1238" on="0"/>
        <pt x="1106" y="1228" on="0"/>
        <pt x="1193" y="1206" on="0"/>
        <pt x="1223" y="1200" on="1"/>
        <pt x="1221" y="1188" on="0"/>
        <pt x="1221" y="1161" on="1"/>
        <pt x="1221" y="1053" on="0"/>
        <pt x="1260" y="936" on="1"/>
        <pt x="1229" y="926" on="1"/>
        <pt x="1167" y="1073" on="0"/>
        <pt x="1019" y="1192" on="0"/>
        <pt x="930" y="1192" on="1"/>
        <pt x="880" y="1192" on="0"/>
        <pt x="800" y="1158" on="0"/>
        <pt x="749" y="1106" on="0"/>
        <pt x="711" y="1029" on="0"/>
        <pt x="693" y="962" on="0"/>
        <pt x="682" y="876" on="0"/>
        <pt x="680" y="825" on="0"/>
        <pt x="680" y="795" on="1"/>
        <pt x="680" y="600" on="0"/>
        <pt x="832" y="418" on="0"/>
        <pt x="965" y="418" on="1"/>
        <pt x="1114" y="418" on="0"/>
      </contour>
    </TTGlyph>
    <TTGlyph name="currency" xMin="49" yMin="213" xMax="1016" yMax="1178">
      <contour>
        <pt x="932" y="1178" on="1"/>
        <pt x="1016" y="1098" on="1"/>
        <pt x="868" y="952" on="1"/>
        <pt x="954" y="851" on="0"/>
        <pt x="954" y="696" on="1"/>
        <pt x="954" y="547" on="0"/>
        <pt x="866" y="440" on="1"/>
        <pt x="1016" y="293" on="1"/>
        <pt x="932" y="213" on="1"/>
        <pt x="786" y="360" on="1"/>
        <pt x="731" y="315" on="0"/>
        <pt x="595" y="272" on="0"/>
        <pt x="532" y="272" on="1"/>
        <pt x="401" y="272" on="0"/>
        <pt x="274" y="360" on="1"/>
        <pt x="131" y="213" on="1"/>
        <pt x="49" y="293" on="1"/>
        <pt x="197" y="440" on="1"/>
        <pt x="109" y="564" on="0"/>
        <pt x="109" y="696" on="1"/>
        <pt x="109" y="838" on="0"/>
        <pt x="197" y="950" on="1"/>
        <pt x="49" y="1098" on="1"/>
        <pt x="131" y="1178" on="1"/>
        <pt x="274" y="1030" on="1"/>
        <pt x="393" y="1116" on="0"/>
        <pt x="532" y="1116" on="1"/>
        <pt x="682" y="1116" on="0"/>
        <pt x="786" y="1032" on="1"/>
      </contour>
      <contour>
        <pt x="532" y="1006" on="1"/>
        <pt x="468" y="1006" on="0"/>
        <pt x="356" y="957" on="0"/>
        <pt x="272" y="873" on="0"/>
        <pt x="223" y="760" on="0"/>
        <pt x="223" y="696" on="1"/>
        <pt x="223" y="632" on="0"/>
        <pt x="271" y="519" on="0"/>
        <pt x="355" y="434" on="0"/>
        <pt x="468" y="385" on="0"/>
        <pt x="532" y="385" on="1"/>
        <pt x="596" y="385" on="0"/>
        <pt x="709" y="434" on="0"/>
        <pt x="793" y="519" on="0"/>
        <pt x="842" y="632" on="0"/>
        <pt x="842" y="696" on="1"/>
        <pt x="842" y="760" on="0"/>
        <pt x="793" y="873" on="0"/>
        <pt x="709" y="957" on="0"/>
        <pt x="596" y="1006" on="0"/>
      </contour>
    </TTGlyph>
    <TTGlyph name="d" xMin="123" yMin="-29" xMax="1120" yMax="1520">
      <contour>
        <pt x="586" y="1438" on="1"/>
        <pt x="775" y="1456" on="0"/>
        <pt x="924" y="1520" on="1"/>
        <pt x="950" y="1509" on="0"/>
        <pt x="958" y="1493" on="1"/>
        <pt x="958" y="360" on="0"/>
        <pt x="967" y="137" on="1"/>
        <pt x="968" y="111" on="0"/>
        <pt x="997" y="74" on="0"/>
        <pt x="1051" y="54" on="0"/>
        <pt x="1087" y="45" on="0"/>
        <pt x="1116" y="41" on="1"/>
        <pt x="1120" y="25" on="0"/>
        <pt x="1120" y="16" on="1"/>
        <pt x="1120" y="10" on="0"/>
        <pt x="1116" y="-6" on="1"/>
        <pt x="1081" y="-4" on="0"/>
        <pt x="1008" y="0" on="0"/>
        <pt x="966" y="2" on="0"/>
        <pt x="948" y="2" on="1"/>
        <pt x="933" y="2" on="0"/>
        <pt x="895" y="0" on="0"/>
        <pt x="829" y="-4" on="0"/>
        <pt x="797" y="-6" on="1"/>
        <pt x="792" y="-4" on="0"/>
        <pt x="785" y="1" on="0"/>
        <pt x="782" y="4" on="0"/>
        <pt x="778" y="11" on="0"/>
        <pt x="776" y="13" on="0"/>
        <pt x="773" y="24" on="0"/>
        <pt x="772" y="25" on="1"/>
        <pt x="776" y="49" on="0"/>
        <pt x="776" y="133" on="1"/>
        <pt x="611" y="-29" on="0"/>
        <pt x="471" y="-29" on="1"/>
        <pt x="317" y="-29" on="0"/>
        <pt x="123" y="203" on="0"/>
        <pt x="123" y="403" on="1"/>
        <pt x="123" y="472" on="0"/>
        <pt x="155" y="610" on="0"/>
        <pt x="229" y="744" on="0"/>
        <pt x="337" y="846" on="0"/>
        <pt x="503" y="909" on="0"/>
        <pt x="604" y="909" on="1"/>
        <pt x="679" y="909" on="0"/>
        <pt x="780" y="877" on="1"/>
        <pt x="778" y="1067" on="0"/>
        <pt x="778" y="1350" on="1"/>
        <pt x="721" y="1383" on="0"/>
        <pt x="586" y="1391" on="1"/>
        <pt x="582" y="1407" on="0"/>
        <pt x="582" y="1415" on="1"/>
        <pt x="582" y="1422" on="0"/>
      </contour>
      <contour>
        <pt x="567" y="102" on="1"/>
        <pt x="667" y="102" on="0"/>
        <pt x="778" y="209" on="1"/>
        <pt x="780" y="307" on="0"/>
        <pt x="780" y="580" on="1"/>
        <pt x="780" y="725" on="1"/>
        <pt x="711" y="844" on="0"/>
        <pt x="569" y="844" on="1"/>
        <pt x="539" y="844" on="0"/>
        <pt x="479" y="826" on="0"/>
        <pt x="411" y="772" on="0"/>
        <pt x="360" y="688" on="0"/>
        <pt x="326" y="539" on="0"/>
        <pt x="326" y="442" on="1"/>
        <pt x="326" y="294" on="0"/>
        <pt x="449" y="102" on="0"/>
      </contour>
    </TTGlyph>
    <TTGlyph name="degree" xMin="164" yMin="1051" xMax="627" yMax="1511">
      <contour>
        <pt x="164" y="1280" on="1"/>
        <pt x="164" y="1327" on="0"/>
        <pt x="201" y="1411" on="0"/>
        <pt x="264" y="1474" on="0"/>
        <pt x="348" y="1511" on="0"/>
        <pt x="395" y="1511" on="1"/>
        <pt x="442" y="1511" on="0"/>
        <pt x="526" y="1474" on="0"/>
        <pt x="590" y="1411" on="0"/>
        <pt x="627" y="1327" on="0"/>
        <pt x="627" y="1280" on="1"/>
        <pt x="627" y="1233" on="0"/>
        <pt x="590" y="1149" on="0"/>
        <pt x="527" y="1087" on="0"/>
        <pt x="443" y="1051" on="0"/>
        <pt x="395" y="1051" on="1"/>
        <pt x="347" y="1051" on="0"/>
        <pt x="263" y="1087" on="0"/>
        <pt x="200" y="1149" on="0"/>
        <pt x="164" y="1232" on="0"/>
      </contour>
      <contour>
        <pt x="250" y="1280" on="1"/>
        <pt x="250" y="1224" on="0"/>
        <pt x="334" y="1135" on="0"/>
        <pt x="395" y="1135" on="1"/>
        <pt x="452" y="1135" on="0"/>
        <pt x="541" y="1222" on="0"/>
        <pt x="541" y="1280" on="1"/>
        <pt x="541" y="1335" on="0"/>
        <pt x="460" y="1425" on="0"/>
        <pt x="395" y="1425" on="1"/>
        <pt x="328" y="1425" on="0"/>
        <pt x="250" y="1332" on="0"/>
      </contour>
    </TTGlyph>
    <TTGlyph name="dieresis" xMin="256" yMin="1118" xMax="868" yMax="1358">
      <contour>
        <pt x="256" y="1239" on="1"/>
        <pt x="256" y="1263" on="0"/>
        <pt x="275" y="1307" on="0"/>
        <pt x="308" y="1339" on="0"/>
        <pt x="352" y="1358" on="0"/>
        <pt x="377" y="1358" on="1"/>
        <pt x="401" y="1358" on="0"/>
        <pt x="445" y="1339" on="0"/>
        <pt x="477" y="1307" on="0"/>
        <pt x="496" y="1263" on="0"/>
        <pt x="496" y="1239" on="1"/>
        <pt x="496" y="1214" on="0"/>
        <pt x="477" y="1170" on="0"/>
        <pt x="445" y="1137" on="0"/>
        <pt x="401" y="1118" on="0"/>
        <pt x="377" y="1118" on="1"/>
        <pt x="351" y="1118" on="0"/>
        <pt x="307" y="1137" on="0"/>
        <pt x="275" y="1169" on="0"/>
        <pt x="256" y="1213" on="0"/>
      </contour>
      <contour>
        <pt x="629" y="1239" on="1"/>
        <pt x="629" y="1264" on="0"/>
        <pt x="648" y="1307" on="0"/>
        <pt x="680" y="1339" on="0"/>
        <pt x="723" y="1358" on="0"/>
        <pt x="748" y="1358" on="1"/>
        <pt x="772" y="1358" on="0"/>
        <pt x="816" y="1339" on="0"/>
        <pt x="849" y="1307" on="0"/>
        <pt x="868" y="1264" on="0"/>
        <pt x="868" y="1239" on="1"/>
        <pt x="868" y="1213" on="0"/>
        <pt x="849" y="1169" on="0"/>
        <pt x="816" y="1137" on="0"/>
        <pt x="773" y="1118" on="0"/>
        <pt x="748" y="1118" on="1"/>
        <pt x="723" y="1118" on="0"/>
        <pt x="679" y="1137" on="0"/>
        <pt x="647" y="1169" on="0"/>
        <pt x="629" y="1213" on="0"/>
      </contour>
    </TTGlyph>
    <TTGlyph name="divide" xMin="164" yMin="246" xMax="1300" yMax="1178">
      <contour>
        <pt x="606" y="1042" on="1"/>
        <pt x="606" y="1069" on="0"/>
        <pt x="627" y="1119" on="0"/>
        <pt x="663" y="1156" on="0"/>
        <pt x="711" y="1178" on="0"/>
        <pt x="739" y="1178" on="1"/>
        <pt x="767" y="1178" on="0"/>
        <pt x="817" y="1156" on="0"/>
        <pt x="853" y="1119" on="0"/>
        <pt x="874" y="1069" on="0"/>
        <pt x="874" y="1042" on="1"/>
        <pt x="874" y="1015" on="0"/>
        <pt x="853" y="966" on="0"/>
        <pt x="816" y="929" on="0"/>
        <pt x="767" y="907" on="0"/>
        <pt x="739" y="907" on="1"/>
        <pt x="712" y="907" on="0"/>
        <pt x="663" y="929" on="0"/>
        <pt x="627" y="966" on="0"/>
        <pt x="606" y="1015" on="0"/>
      </contour>
      <contour>
        <pt x="606" y="381" on="1"/>
        <pt x="606" y="408" on="0"/>
        <pt x="627" y="457" on="0"/>
        <pt x="663" y="493" on="0"/>
        <pt x="712" y="514" on="0"/>
        <pt x="739" y="514" on="1"/>
        <pt x="767" y="514" on="0"/>
        <pt x="816" y="494" on="0"/>
        <pt x="853" y="458" on="0"/>
        <pt x="874" y="409" on="0"/>
        <pt x="874" y="381" on="1"/>
        <pt x="874" y="354" on="0"/>
        <pt x="853" y="305" on="0"/>
        <pt x="817" y="268" on="0"/>
        <pt x="768" y="246" on="0"/>
        <pt x="739" y="246" on="1"/>
        <pt x="711" y="246" on="0"/>
        <pt x="662" y="268" on="0"/>
        <pt x="626" y="305" on="0"/>
        <pt x="606" y="354" on="0"/>
      </contour>
      <contour>
        <pt x="1300" y="653" on="1"/>
        <pt x="164" y="653" on="1"/>
        <pt x="164" y="768" on="1"/>
        <pt x="1300" y="768" on="1"/>
      </contour>
    </TTGlyph>
    <TTGlyph name="dollar" xMin="70" yMin="-174" xMax="999" yMax="1630">
      <contour>
        <pt x="887" y="1071" on="1"/>
        <pt x="854" y="1238" on="0"/>
        <pt x="696" y="1417" on="0"/>
        <pt x="580" y="1430" on="1"/>
        <pt x="580" y="854" on="1"/>
        <pt x="647" y="835" on="0"/>
        <pt x="754" y="794" on="0"/>
        <pt x="871" y="722" on="0"/>
        <pt x="948" y="634" on="0"/>
        <pt x="999" y="501" on="0"/>
        <pt x="999" y="420" on="1"/>
        <pt x="999" y="318" on="0"/>
        <pt x="924" y="149" on="0"/>
        <pt x="800" y="41" on="0"/>
        <pt x="657" y="-24" on="0"/>
        <pt x="580" y="-35" on="1"/>
        <pt x="580" y="-174" on="1"/>
        <pt x="498" y="-174" on="1"/>
        <pt x="498" y="-41" on="1"/>
        <pt x="297" y="-36" on="0"/>
        <pt x="86" y="74" on="1"/>
        <pt x="90" y="176" on="0"/>
        <pt x="90" y="221" on="1"/>
        <pt x="90" y="337" on="0"/>
        <pt x="70" y="477" on="1"/>
        <pt x="82" y="483" on="0"/>
        <pt x="90" y="483" on="1"/>
        <pt x="100" y="483" on="0"/>
        <pt x="113" y="477" on="1"/>
        <pt x="128" y="376" on="0"/>
        <pt x="188" y="219" on="0"/>
        <pt x="262" y="122" on="0"/>
        <pt x="357" y="59" on="0"/>
        <pt x="447" y="34" on="0"/>
        <pt x="498" y="33" on="1"/>
        <pt x="498" y="674" on="1"/>
        <pt x="406" y="701" on="0"/>
        <pt x="273" y="767" on="0"/>
        <pt x="165" y="864" on="0"/>
        <pt x="111" y="1002" on="0"/>
        <pt x="111" y="1092" on="1"/>
        <pt x="111" y="1198" on="0"/>
        <pt x="180" y="1358" on="0"/>
        <pt x="297" y="1449" on="0"/>
        <pt x="425" y="1495" on="0"/>
        <pt x="498" y="1501" on="1"/>
        <pt x="498" y="1630" on="1"/>
        <pt x="580" y="1630" on="1"/>
        <pt x="580" y="1501" on="1"/>
        <pt x="730" y="1495" on="0"/>
        <pt x="918" y="1411" on="1"/>
        <pt x="909" y="1353" on="0"/>
        <pt x="909" y="1272" on="1"/>
        <pt x="909" y="1151" on="0"/>
        <pt x="928" y="1071" on="1"/>
        <pt x="916" y="1067" on="0"/>
        <pt x="909" y="1067" on="1"/>
        <pt x="903" y="1067" on="0"/>
      </contour>
      <contour>
        <pt x="803" y="330" on="1"/>
        <pt x="803" y="458" on="0"/>
        <pt x="708" y="605" on="0"/>
        <pt x="580" y="649" on="1"/>
        <pt x="580" y="39" on="1"/>
        <pt x="687" y="59" on="0"/>
        <pt x="803" y="215" on="0"/>
      </contour>
      <contour>
        <pt x="279" y="1190" on="1"/>
        <pt x="279" y="1147" on="0"/>
        <pt x="282" y="1097" on="0"/>
        <pt x="295" y="1028" on="0"/>
        <pt x="323" y="983" on="0"/>
        <pt x="370" y="933" on="0"/>
        <pt x="446" y="894" on="0"/>
        <pt x="498" y="877" on="1"/>
        <pt x="498" y="1427" on="1"/>
        <pt x="393" y="1415" on="0"/>
        <pt x="279" y="1288" on="0"/>
      </contour>
    </TTGlyph>
    <TTGlyph name="dotlessi" xMin="72" yMin="-6" xMax="612" yMax="905">
      <contour>
        <pt x="76" y="823" on="1"/>
        <pt x="270" y="843" on="0"/>
        <pt x="414" y="905" on="1"/>
        <pt x="439" y="895" on="0"/>
        <pt x="449" y="879" on="1"/>
        <pt x="449" y="360" on="0"/>
        <pt x="457" y="137" on="1"/>
        <pt x="458" y="111" on="0"/>
        <pt x="487" y="74" on="0"/>
        <pt x="541" y="54" on="0"/>
        <pt x="577" y="45" on="0"/>
        <pt x="606" y="41" on="1"/>
        <pt x="612" y="29" on="0"/>
        <pt x="612" y="3" on="0"/>
        <pt x="606" y="-6" on="1"/>
        <pt x="474" y="0" on="0"/>
        <pt x="350" y="0" on="1"/>
        <pt x="228" y="0" on="0"/>
        <pt x="96" y="-6" on="1"/>
        <pt x="92" y="10" on="0"/>
        <pt x="92" y="16" on="1"/>
        <pt x="92" y="21" on="0"/>
        <pt x="96" y="41" on="1"/>
        <pt x="129" y="45" on="0"/>
        <pt x="171" y="54" on="0"/>
        <pt x="233" y="74" on="0"/>
        <pt x="265" y="111" on="0"/>
        <pt x="266" y="137" on="1"/>
        <pt x="270" y="236" on="0"/>
        <pt x="270" y="424" on="0"/>
        <pt x="268" y="650" on="0"/>
        <pt x="268" y="735" on="1"/>
        <pt x="211" y="770" on="0"/>
        <pt x="76" y="776" on="1"/>
        <pt x="72" y="792" on="0"/>
        <pt x="72" y="801" on="1"/>
        <pt x="72" y="807" on="0"/>
      </contour>
    </TTGlyph>
    <TTGlyph name="e" xMin="123" yMin="-29" xMax="918" yMax="909">
      <contour>
        <pt x="860" y="530" on="1"/>
        <pt x="315" y="530" on="1"/>
        <pt x="311" y="470" on="0"/>
        <pt x="311" y="424" on="1"/>
        <pt x="314" y="275" on="0"/>
        <pt x="482" y="96" on="0"/>
        <pt x="623" y="96" on="1"/>
        <pt x="661" y="96" on="0"/>
        <pt x="727" y="113" on="0"/>
        <pt x="770" y="135" on="0"/>
        <pt x="816" y="177" on="0"/>
        <pt x="837" y="202" on="0"/>
        <pt x="873" y="253" on="0"/>
        <pt x="879" y="260" on="1"/>
        <pt x="903" y="255" on="0"/>
        <pt x="918" y="238" on="1"/>
        <pt x="868" y="104" on="0"/>
        <pt x="658" y="-29" on="0"/>
        <pt x="535" y="-29" on="1"/>
        <pt x="474" y="-29" on="0"/>
        <pt x="359" y="2" on="0"/>
        <pt x="251" y="72" on="0"/>
        <pt x="171" y="175" on="0"/>
        <pt x="123" y="330" on="0"/>
        <pt x="123" y="424" on="1"/>
        <pt x="123" y="635" on="0"/>
        <pt x="381" y="909" on="0"/>
        <pt x="569" y="909" on="1"/>
        <pt x="652" y="909" on="0"/>
        <pt x="775" y="862" on="0"/>
        <pt x="844" y="782" on="0"/>
        <pt x="877" y="687" on="0"/>
        <pt x="877" y="633" on="1"/>
        <pt x="877" y="583" on="0"/>
      </contour>
      <contour>
        <pt x="545" y="844" on="1"/>
        <pt x="476" y="844" on="0"/>
        <pt x="353" y="722" on="0"/>
        <pt x="326" y="598" on="1"/>
        <pt x="686" y="598" on="1"/>
        <pt x="696" y="636" on="0"/>
        <pt x="696" y="664" on="1"/>
        <pt x="696" y="742" on="0"/>
        <pt x="624" y="844" on="0"/>
      </contour>
    </TTGlyph>
    <TTGlyph name="eacute" xMin="123" yMin="-29" xMax="918" yMax="1468">
      <component glyphName="e" x="0" y="0" flags="0x204"/>
      <component glyphName="acute" x="-25" y="0" flags="0x4"/>
    </TTGlyph>
    <TTGlyph name="ecircumflex" xMin="123" yMin="-29" xMax="918" yMax="1399">
      <component glyphName="e" x="0" y="0" flags="0x204"/>
      <component glyphName="circumflex" x="-9" y="0" flags="0x4"/>
    </TTGlyph>
    <TTGlyph name="edieresis" xMin="123" yMin="-29" xMax="918" yMax="1358">
      <component glyphName="e" x="0" y="0" flags="0x204"/>
      <component glyphName="dieresis" x="-42" y="0" flags="0x4"/>
    </TTGlyph>
    <TTGlyph name="egrave" xMin="123" yMin="-29" xMax="918" yMax="1468">
      <component glyphName="e" x="0" y="0" flags="0x204"/>
      <component glyphName="grave" x="-59" y="0" flags="0x4"/>
    </TTGlyph>
    <TTGlyph name="eight" xMin="92" yMin="-29" xMax="973" yMax="1421">
      <contour>
        <pt x="362" y="709" on="1"/>
        <pt x="357" y="710" on="0"/>
        <pt x="339" y="715" on="0"/>
        <pt x="288" y="736" on="0"/>
        <pt x="241" y="764" on="0"/>
        <pt x="184" y="817" on="0"/>
        <pt x="143" y="882" on="0"/>
        <pt x="115" y="979" on="0"/>
        <pt x="115" y="1036" on="1"/>
        <pt x="115" y="1111" on="0"/>
        <pt x="155" y="1234" on="0"/>
        <pt x="217" y="1312" on="0"/>
        <pt x="302" y="1371" on="0"/>
        <pt x="378" y="1400" on="0"/>
        <pt x="462" y="1417" on="0"/>
        <pt x="508" y="1421" on="0"/>
        <pt x="526" y="1421" on="1"/>
        <pt x="555" y="1421" on="0"/>
        <pt x="615" y="1415" on="0"/>
        <pt x="697" y="1396" on="0"/>
        <pt x="769" y="1366" on="0"/>
        <pt x="843" y="1310" on="0"/>
        <pt x="895" y="1236" on="0"/>
        <pt x="928" y="1126" on="0"/>
        <pt x="928" y="1059" on="1"/>
        <pt x="928" y="1004" on="0"/>
        <pt x="903" y="905" on="0"/>
        <pt x="862" y="836" on="0"/>
        <pt x="813" y="779" on="0"/>
        <pt x="764" y="743" on="0"/>
        <pt x="723" y="719" on="0"/>
        <pt x="698" y="709" on="1"/>
        <pt x="698" y="696" on="1"/>
        <pt x="704" y="695" on="0"/>
        <pt x="724" y="691" on="0"/>
        <pt x="781" y="670" on="0"/>
        <pt x="833" y="642" on="0"/>
        <pt x="896" y="590" on="0"/>
        <pt x="942" y="525" on="0"/>
        <pt x="973" y="427" on="0"/>
        <pt x="973" y="369" on="1"/>
        <pt x="973" y="286" on="0"/>
        <pt x="917" y="149" on="0"/>
        <pt x="826" y="60" on="0"/>
        <pt x="706" y="-2" on="0"/>
        <pt x="583" y="-29" on="0"/>
        <pt x="522" y="-29" on="1"/>
        <pt x="472" y="-29" on="0"/>
        <pt x="362" y="-5" on="0"/>
        <pt x="244" y="52" on="0"/>
        <pt x="152" y="136" on="0"/>
        <pt x="92" y="269" on="0"/>
        <pt x="92" y="350" on="1"/>
        <pt x="92" y="409" on="0"/>
        <pt x="122" y="512" on="0"/>
        <pt x="169" y="580" on="0"/>
        <pt x="227" y="635" on="0"/>
        <pt x="285" y="666" on="0"/>
        <pt x="332" y="687" on="0"/>
        <pt x="362" y="694" on="1"/>
      </contour>
      <contour>
        <pt x="524" y="735" on="1"/>
        <pt x="579" y="735" on="0"/>
        <pt x="657" y="797" on="0"/>
        <pt x="696" y="900" on="0"/>
        <pt x="713" y="1003" on="0"/>
        <pt x="713" y="1059" on="1"/>
        <pt x="713" y="1199" on="0"/>
        <pt x="617" y="1356" on="0"/>
        <pt x="522" y="1356" on="1"/>
        <pt x="433" y="1356" on="0"/>
        <pt x="330" y="1193" on="0"/>
        <pt x="330" y="1034" on="1"/>
        <pt x="330" y="958" on="0"/>
        <pt x="359" y="844" on="0"/>
        <pt x="400" y="783" on="0"/>
        <pt x="456" y="745" on="0"/>
        <pt x="501" y="735" on="0"/>
      </contour>
      <contour>
        <pt x="524" y="670" on="1"/>
        <pt x="488" y="670" on="0"/>
        <pt x="417" y="636" on="0"/>
        <pt x="349" y="567" on="0"/>
        <pt x="307" y="436" on="0"/>
        <pt x="307" y="350" on="1"/>
        <pt x="307" y="261" on="0"/>
        <pt x="346" y="132" on="0"/>
        <pt x="413" y="66" on="0"/>
        <pt x="484" y="37" on="0"/>
        <pt x="524" y="37" on="1"/>
        <pt x="575" y="37" on="0"/>
        <pt x="654" y="66" on="0"/>
        <pt x="722" y="136" on="0"/>
        <pt x="758" y="269" on="0"/>
        <pt x="758" y="365" on="1"/>
        <pt x="758" y="447" on="0"/>
        <pt x="719" y="567" on="0"/>
        <pt x="668" y="627" on="0"/>
        <pt x="595" y="663" on="0"/>
        <pt x="549" y="670" on="0"/>
      </contour>
    </TTGlyph>
    <TTGlyph name="emdash" xMin="164" yMin="412" xMax="2275" yMax="526">
      <contour>
        <pt x="164" y="412" on="1"/>
        <pt x="164" y="526" on="1"/>
        <pt x="2275" y="526" on="1"/>
        <pt x="2275" y="412" on="1"/>
      </contour>
    </TTGlyph>
    <TTGlyph name="endash" xMin="164" yMin="412" xMax="1591" yMax="526">
      <contour>
        <pt x="164" y="412" on="1"/>
        <pt x="164" y="526" on="1"/>
        <pt x="1591" y="526" on="1"/>
        <pt x="1591" y="412" on="1"/>
      </contour>
    </TTGlyph>
    <TTGlyph name="equal" xMin="164" yMin="469" xMax="1300" yMax="952">
      <contour>
        <pt x="1300" y="469" on="1"/>
        <pt x="164" y="469" on="1"/>
        <pt x="164" y="584" on="1"/>
        <pt x="1300" y="584" on="1"/>
      </contour>
      <contour>
        <pt x="1300" y="838" on="1"/>
        <pt x="164" y="838" on="1"/>
        <pt x="164" y="952" on="1"/>
        <pt x="1300" y="952" on="1"/>
      </contour>
    </TTGlyph>
    <TTGlyph name="eth" xMin="123" yMin="-29" xMax="983" yMax="1516">
      <contour>
        <pt x="391" y="1065" on="1"/>
        <pt x="332" y="1128" on="1"/>
        <pt x="496" y="1288" on="1"/>
        <pt x="475" y="1310" on="0"/>
        <pt x="426" y="1352" on="0"/>
        <pt x="368" y="1394" on="0"/>
        <pt x="332" y="1419" on="0"/>
        <pt x="269" y="1460" on="0"/>
        <pt x="264" y="1464" on="1"/>
        <pt x="295" y="1516" on="1"/>
        <pt x="451" y="1446" on="0"/>
        <pt x="569" y="1360" on="1"/>
        <pt x="729" y="1516" on="1"/>
        <pt x="791" y="1462" on="1"/>
        <pt x="639" y="1311" on="1"/>
        <pt x="746" y="1210" on="0"/>
        <pt x="887" y="999" on="0"/>
        <pt x="957" y="775" on="0"/>
        <pt x="983" y="570" on="0"/>
        <pt x="983" y="438" on="1"/>
        <pt x="983" y="337" on="0"/>
        <pt x="928" y="174" on="0"/>
        <pt x="840" y="70" on="0"/>
        <pt x="723" y="0" on="0"/>
        <pt x="609" y="-29" on="0"/>
        <pt x="551" y="-29" on="1"/>
        <pt x="496" y="-29" on="0"/>
        <pt x="386" y="-3" on="0"/>
        <pt x="269" y="64" on="0"/>
        <pt x="180" y="166" on="0"/>
        <pt x="123" y="334" on="0"/>
        <pt x="123" y="440" on="1"/>
        <pt x="123" y="499" on="0"/>
        <pt x="147" y="619" on="0"/>
        <pt x="208" y="748" on="0"/>
        <pt x="301" y="846" on="0"/>
        <pt x="455" y="909" on="0"/>
        <pt x="551" y="909" on="1"/>
        <pt x="603" y="909" on="0"/>
        <pt x="706" y="883" on="0"/>
        <pt x="735" y="862" on="1"/>
        <pt x="723" y="948" on="0"/>
        <pt x="628" y="1148" on="0"/>
        <pt x="557" y="1233" on="1"/>
      </contour>
      <contour>
        <pt x="551" y="844" on="1"/>
        <pt x="505" y="844" on="0"/>
        <pt x="431" y="806" on="0"/>
        <pt x="384" y="738" on="0"/>
        <pt x="352" y="659" on="0"/>
        <pt x="336" y="562" on="0"/>
        <pt x="330" y="481" on="0"/>
        <pt x="330" y="438" on="1"/>
        <pt x="330" y="390" on="0"/>
        <pt x="337" y="300" on="0"/>
        <pt x="364" y="182" on="0"/>
        <pt x="409" y="97" on="0"/>
        <pt x="494" y="37" on="0"/>
        <pt x="551" y="37" on="1"/>
        <pt x="600" y="37" on="0"/>
        <pt x="677" y="77" on="0"/>
        <pt x="724" y="148" on="0"/>
        <pt x="756" y="227" on="0"/>
        <pt x="771" y="326" on="0"/>
        <pt x="776" y="399" on="0"/>
        <pt x="776" y="438" on="1"/>
        <pt x="776" y="648" on="0"/>
        <pt x="653" y="844" on="0"/>
      </contour>
    </TTGlyph>
    <TTGlyph name="exclam" xMin="231" yMin="-29" xMax="485" yMax="1503">
      <contour>
        <pt x="397" y="348" on="1"/>
        <pt x="319" y="348" on="1"/>
        <pt x="313" y="489" on="1"/>
        <pt x="304" y="745" on="0"/>
        <pt x="231" y="1333" on="0"/>
        <pt x="231" y="1389" on="1"/>
        <pt x="231" y="1425" on="0"/>
        <pt x="260" y="1475" on="0"/>
        <pt x="305" y="1496" on="0"/>
        <pt x="341" y="1503" on="0"/>
        <pt x="358" y="1503" on="1"/>
        <pt x="376" y="1503" on="0"/>
        <pt x="411" y="1496" on="0"/>
        <pt x="457" y="1475" on="0"/>
        <pt x="485" y="1425" on="0"/>
        <pt x="485" y="1389" on="1"/>
        <pt x="485" y="1320" on="0"/>
        <pt x="420" y="731" on="0"/>
        <pt x="406" y="489" on="1"/>
      </contour>
      <contour>
        <pt x="269" y="7" on="1"/>
        <pt x="233" y="44" on="0"/>
        <pt x="233" y="148" on="0"/>
        <pt x="306" y="221" on="0"/>
        <pt x="410" y="221" on="0"/>
        <pt x="483" y="148" on="0"/>
        <pt x="483" y="44" on="0"/>
        <pt x="410" y="-29" on="0"/>
        <pt x="306" y="-29" on="0"/>
      </contour>
    </TTGlyph>
    <TTGlyph name="exclamdown" xMin="231" yMin="-29" xMax="485" yMax="1503">
      <contour>
        <pt x="319" y="1126" on="1"/>
        <pt x="397" y="1126" on="1"/>
        <pt x="403" y="985" on="1"/>
        <pt x="408" y="857" on="0"/>
        <pt x="431" y="584" on="0"/>
        <pt x="449" y="436" on="1"/>
        <pt x="485" y="143" on="0"/>
        <pt x="485" y="86" on="1"/>
        <pt x="485" y="50" on="0"/>
        <pt x="457" y="0" on="0"/>
        <pt x="434" y="-10" on="1"/>
        <pt x="411" y="-21" on="0"/>
        <pt x="376" y="-29" on="0"/>
        <pt x="358" y="-29" on="1"/>
        <pt x="341" y="-29" on="0"/>
        <pt x="305" y="-21" on="0"/>
        <pt x="282" y="-10" on="1"/>
        <pt x="260" y="0" on="0"/>
        <pt x="231" y="50" on="0"/>
        <pt x="231" y="86" on="1"/>
        <pt x="231" y="155" on="0"/>
        <pt x="264" y="449" on="1"/>
        <pt x="281" y="597" on="0"/>
        <pt x="304" y="864" on="0"/>
        <pt x="311" y="985" on="1"/>
      </contour>
      <contour>
        <pt x="446" y="1466" on="1"/>
        <pt x="483" y="1430" on="0"/>
        <pt x="483" y="1378" on="1"/>
        <pt x="483" y="1326" on="0"/>
        <pt x="446" y="1289" on="1"/>
        <pt x="410" y="1253" on="0"/>
        <pt x="358" y="1253" on="1"/>
        <pt x="306" y="1253" on="0"/>
        <pt x="269" y="1289" on="1"/>
        <pt x="233" y="1326" on="0"/>
        <pt x="233" y="1378" on="1"/>
        <pt x="233" y="1430" on="0"/>
        <pt x="269" y="1466" on="1"/>
        <pt x="306" y="1503" on="0"/>
        <pt x="358" y="1503" on="1"/>
        <pt x="410" y="1503" on="0"/>
      </contour>
    </TTGlyph>
    <TTGlyph name="f" xMin="72" yMin="-6" xMax="952" yMax="1520">
      <contour>
        <pt x="639" y="-6" on="1"/>
        <pt x="507" y="0" on="0"/>
        <pt x="330" y="0" on="1"/>
        <pt x="208" y="0" on="0"/>
        <pt x="76" y="-6" on="1"/>
        <pt x="72" y="10" on="0"/>
        <pt x="72" y="16" on="1"/>
        <pt x="72" y="21" on="0"/>
        <pt x="76" y="41" on="1"/>
        <pt x="109" y="45" on="0"/>
        <pt x="150" y="54" on="0"/>
        <pt x="213" y="74" on="0"/>
        <pt x="245" y="111" on="0"/>
        <pt x="246" y="137" on="1"/>
        <pt x="250" y="236" on="0"/>
        <pt x="250" y="788" on="1"/>
        <pt x="115" y="788" on="1"/>
        <pt x="109" y="804" on="0"/>
        <pt x="109" y="823" on="1"/>
        <pt x="109" y="845" on="0"/>
        <pt x="115" y="860" on="1"/>
        <pt x="250" y="860" on="1"/>
        <pt x="250" y="965" on="1"/>
        <pt x="250" y="1075" on="0"/>
        <pt x="307" y="1272" on="0"/>
        <pt x="416" y="1428" on="0"/>
        <pt x="595" y="1520" on="0"/>
        <pt x="707" y="1520" on="1"/>
        <pt x="811" y="1520" on="0"/>
        <pt x="952" y="1415" on="0"/>
        <pt x="952" y="1329" on="1"/>
        <pt x="952" y="1276" on="0"/>
        <pt x="882" y="1198" on="0"/>
        <pt x="827" y="1198" on="1"/>
        <pt x="774" y="1198" on="0"/>
        <pt x="711" y="1251" on="0"/>
        <pt x="711" y="1292" on="1"/>
        <pt x="711" y="1321" on="0"/>
        <pt x="746" y="1375" on="0"/>
        <pt x="778" y="1386" on="1"/>
        <pt x="758" y="1419" on="0"/>
        <pt x="702" y="1438" on="0"/>
        <pt x="643" y="1438" on="1"/>
        <pt x="551" y="1438" on="0"/>
        <pt x="428" y="1306" on="0"/>
        <pt x="428" y="1198" on="1"/>
        <pt x="428" y="860" on="1"/>
        <pt x="645" y="860" on="1"/>
        <pt x="651" y="845" on="0"/>
        <pt x="651" y="823" on="1"/>
        <pt x="651" y="804" on="0"/>
        <pt x="645" y="788" on="1"/>
        <pt x="428" y="788" on="1"/>
        <pt x="428" y="293" on="0"/>
        <pt x="436" y="137" on="1"/>
        <pt x="437" y="111" on="0"/>
        <pt x="475" y="74" on="0"/>
        <pt x="547" y="54" on="0"/>
        <pt x="599" y="45" on="0"/>
        <pt x="639" y="41" on="1"/>
        <pt x="643" y="21" on="0"/>
        <pt x="643" y="14" on="1"/>
        <pt x="643" y="6" on="0"/>
      </contour>
    </TTGlyph>
    <TTGlyph name="five" xMin="4" yMin="-475" xMax="938" yMax="1075">
      <contour>
        <pt x="303" y="950" on="1"/>
        <pt x="680" y="950" on="1"/>
        <pt x="732" y="950" on="0"/>
        <pt x="806" y="970" on="0"/>
        <pt x="852" y="1013" on="0"/>
        <pt x="875" y="1046" on="0"/>
        <pt x="889" y="1075" on="1"/>
        <pt x="920" y="1075" on="0"/>
        <pt x="938" y="1061" on="1"/>
        <pt x="858" y="754" on="1"/>
        <pt x="373" y="754" on="1"/>
        <pt x="330" y="502" on="1"/>
        <pt x="433" y="502" on="0"/>
        <pt x="597" y="478" on="0"/>
        <pt x="748" y="415" on="0"/>
        <pt x="849" y="315" on="0"/>
        <pt x="909" y="154" on="0"/>
        <pt x="909" y="47" on="1"/>
        <pt x="909" y="-64" on="0"/>
        <pt x="818" y="-260" on="0"/>
        <pt x="668" y="-396" on="0"/>
        <pt x="471" y="-475" on="0"/>
        <pt x="367" y="-475" on="1"/>
        <pt x="268" y="-475" on="0"/>
        <pt x="118" y="-427" on="0"/>
        <pt x="40" y="-351" on="0"/>
        <pt x="4" y="-275" on="0"/>
        <pt x="4" y="-238" on="1"/>
        <pt x="4" y="-181" on="0"/>
        <pt x="78" y="-104" on="0"/>
        <pt x="139" y="-104" on="1"/>
        <pt x="196" y="-104" on="0"/>
        <pt x="268" y="-178" on="0"/>
        <pt x="268" y="-236" on="1"/>
        <pt x="268" y="-270" on="0"/>
        <pt x="225" y="-326" on="0"/>
        <pt x="182" y="-348" on="1"/>
        <pt x="187" y="-357" on="0"/>
        <pt x="209" y="-380" on="0"/>
        <pt x="295" y="-410" on="0"/>
        <pt x="356" y="-410" on="1"/>
        <pt x="409" y="-410" on="0"/>
        <pt x="507" y="-385" on="0"/>
        <pt x="602" y="-324" on="0"/>
        <pt x="672" y="-232" on="0"/>
        <pt x="715" y="-86" on="0"/>
        <pt x="715" y="6" on="1"/>
        <pt x="715" y="69" on="0"/>
        <pt x="680" y="166" on="0"/>
        <pt x="613" y="228" on="0"/>
        <pt x="532" y="270" on="0"/>
        <pt x="422" y="291" on="0"/>
        <pt x="320" y="299" on="0"/>
        <pt x="256" y="299" on="1"/>
        <pt x="233" y="304" on="0"/>
        <pt x="206" y="327" on="0"/>
        <pt x="193" y="356" on="1"/>
        <pt x="255" y="580" on="0"/>
        <pt x="303" y="950" on="0"/>
      </contour>
    </TTGlyph>
    <TTGlyph name="foundryicon" xMin="120" yMin="-563" xMax="3465" yMax="1462">
      <contour>
        <pt x="1253" y="813" on="1"/>
        <pt x="1272" y="650" on="0"/>
        <pt x="1279" y="319" on="0"/>
        <pt x="1248" y="13" on="0"/>
        <pt x="1179" y="-253" on="0"/>
        <pt x="1067" y="-450" on="0"/>
        <pt x="911" y="-563" on="0"/>
        <pt x="809" y="-563" on="1"/>
        <pt x="755" y="-563" on="0"/>
        <pt x="686" y="-533" on="0"/>
        <pt x="645" y="-476" on="0"/>
        <pt x="629" y="-391" on="0"/>
        <pt x="629" y="-336" on="1"/>
        <pt x="629" y="-286" on="0"/>
        <pt x="647" y="-196" on="0"/>
        <pt x="659" y="-154" on="1"/>
        <pt x="709" y="-154" on="0"/>
        <pt x="820" y="-187" on="0"/>
        <pt x="862" y="-229" on="1"/>
        <pt x="858" y="-258" on="0"/>
        <pt x="850" y="-326" on="0"/>
        <pt x="847" y="-395" on="0"/>
        <pt x="850" y="-461" on="0"/>
        <pt x="858" y="-489" on="1"/>
        <pt x="922" y="-448" on="0"/>
        <pt x="993" y="-338" on="0"/>
        <pt x="1033" y="-198" on="0"/>
        <pt x="1053" y="-28" on="0"/>
        <pt x="1065" y="74" on="1"/>
        <pt x="1057" y="61" on="0"/>
        <pt x="1024" y="37" on="0"/>
        <pt x="1004" y="37" on="1"/>
        <pt x="929" y="37" on="0"/>
        <pt x="827" y="118" on="0"/>
        <pt x="795" y="184" on="1"/>
        <pt x="784" y="153" on="0"/>
        <pt x="747" y="89" on="0"/>
        <pt x="690" y="37" on="0"/>
        <pt x="612" y="4" on="0"/>
        <pt x="561" y="4" on="1"/>
        <pt x="483" y="4" on="0"/>
        <pt x="358" y="51" on="0"/>
        <pt x="262" y="134" on="0"/>
        <pt x="192" y="246" on="0"/>
        <pt x="146" y="377" on="0"/>
        <pt x="122" y="521" on="0"/>
        <pt x="121" y="594" on="1"/>
        <pt x="120" y="719" on="0"/>
        <pt x="151" y="967" on="0"/>
        <pt x="223" y="1193" on="0"/>
        <pt x="340" y="1388" on="0"/>
        <pt x="424" y="1462" on="1"/>
        <pt x="470" y="1452" on="0"/>
        <pt x="578" y="1420" on="0"/>
        <pt x="671" y="1350" on="0"/>
        <pt x="733" y="1231" on="0"/>
        <pt x="733" y="1135" on="1"/>
        <pt x="733" y="1060" on="0"/>
        <pt x="661" y="938" on="0"/>
        <pt x="604" y="889" on="1"/>
        <pt x="595" y="879" on="0"/>
        <pt x="585" y="875" on="0"/>
        <pt x="582" y="880" on="0"/>
        <pt x="582" y="890" on="0"/>
        <pt x="584" y="895" on="1"/>
        <pt x="591" y="936" on="0"/>
        <pt x="584" y="1035" on="0"/>
        <pt x="564" y="1128" on="0"/>
        <pt x="537" y="1203" on="0"/>
        <pt x="524" y="1219" on="1"/>
        <pt x="499" y="1196" on="0"/>
        <pt x="453" y="1088" on="0"/>
        <pt x="417" y="940" on="0"/>
        <pt x="394" y="764" on="0"/>
        <pt x="387" y="579" on="0"/>
        <pt x="401" y="397" on="0"/>
        <pt x="439" y="238" on="0"/>
        <pt x="504" y="113" on="0"/>
        <pt x="553" y="78" on="1"/>
        <pt x="593" y="91" on="0"/>
        <pt x="657" y="144" on="0"/>
        <pt x="708" y="208" on="0"/>
        <pt x="744" y="273" on="0"/>
        <pt x="756" y="299" on="1"/>
        <pt x="734" y="370" on="0"/>
        <pt x="719" y="531" on="0"/>
        <pt x="719" y="612" on="1"/>
        <pt x="719" y="690" on="0"/>
        <pt x="739" y="796" on="0"/>
        <pt x="758" y="831" on="1"/>
        <pt x="773" y="828" on="0"/>
        <pt x="823" y="818" on="0"/>
        <pt x="878" y="800" on="0"/>
        <pt x="932" y="774" on="0"/>
        <pt x="952" y="756" on="1"/>
        <pt x="947" y="673" on="0"/>
        <pt x="944" y="511" on="0"/>
        <pt x="953" y="355" on="0"/>
        <pt x="977" y="206" on="0"/>
        <pt x="999" y="135" on="1"/>
        <pt x="1011" y="138" on="0"/>
        <pt x="1026" y="152" on="0"/>
        <pt x="1035" y="168" on="0"/>
        <pt x="1040" y="185" on="0"/>
        <pt x="1042" y="190" on="1"/>
        <pt x="1063" y="285" on="0"/>
        <pt x="1066" y="491" on="0"/>
        <pt x="1050" y="684" on="0"/>
        <pt x="1023" y="852" on="0"/>
        <pt x="1014" y="909" on="1"/>
        <pt x="1041" y="912" on="0"/>
        <pt x="1107" y="899" on="0"/>
        <pt x="1173" y="872" on="0"/>
        <pt x="1233" y="834" on="0"/>
      </contour>
      <contour>
        <pt x="1286" y="850" on="1"/>
        <pt x="1368" y="846" on="0"/>
        <pt x="1417" y="834" on="1"/>
        <pt x="1470" y="823" on="0"/>
        <pt x="1505" y="784" on="1"/>
        <pt x="1528" y="742" on="0"/>
        <pt x="1565" y="624" on="0"/>
        <pt x="1571" y="543" on="1"/>
        <pt x="1606" y="609" on="0"/>
        <pt x="1653" y="706" on="0"/>
        <pt x="1667" y="748" on="1"/>
        <pt x="1667" y="761" on="0"/>
        <pt x="1672" y="797" on="0"/>
        <pt x="1681" y="833" on="0"/>
        <pt x="1692" y="867" on="0"/>
        <pt x="1698" y="879" on="1"/>
        <pt x="1730" y="876" on="0"/>
        <pt x="1791" y="863" on="0"/>
        <pt x="1842" y="843" on="0"/>
        <pt x="1881" y="814" on="0"/>
        <pt x="1892" y="795" on="1"/>
        <pt x="1885" y="758" on="0"/>
        <pt x="1876" y="672" on="0"/>
        <pt x="1873" y="585" on="0"/>
        <pt x="1877" y="500" on="0"/>
        <pt x="1884" y="463" on="1"/>
        <pt x="1712" y="417" on="0"/>
        <pt x="1688" y="586" on="1"/>
        <pt x="1680" y="565" on="0"/>
        <pt x="1653" y="523" on="0"/>
        <pt x="1624" y="477" on="0"/>
        <pt x="1598" y="427" on="0"/>
        <pt x="1591" y="399" on="1"/>
        <pt x="1591" y="373" on="0"/>
        <pt x="1590" y="308" on="0"/>
        <pt x="1587" y="242" on="0"/>
        <pt x="1578" y="180" on="0"/>
        <pt x="1571" y="158" on="1"/>
        <pt x="1562" y="126" on="0"/>
        <pt x="1531" y="73" on="0"/>
        <pt x="1489" y="36" on="0"/>
        <pt x="1433" y="21" on="0"/>
        <pt x="1399" y="27" on="1"/>
        <pt x="1395" y="88" on="0"/>
        <pt x="1388" y="227" on="0"/>
        <pt x="1377" y="374" on="0"/>
        <pt x="1362" y="524" on="0"/>
        <pt x="1340" y="666" on="0"/>
        <pt x="1308" y="796" on="0"/>
      </contour>
      <contour>
        <pt x="2552" y="113" on="1"/>
        <pt x="2564" y="123" on="0"/>
        <pt x="2596" y="155" on="0"/>
        <pt x="2624" y="192" on="0"/>
        <pt x="2644" y="235" on="0"/>
        <pt x="2646" y="256" on="1"/>
        <pt x="2632" y="312" on="0"/>
        <pt x="2618" y="434" on="0"/>
        <pt x="2613" y="547" on="0"/>
        <pt x="2615" y="641" on="0"/>
        <pt x="2617" y="670" on="1"/>
        <pt x="2602" y="651" on="0"/>
        <pt x="2573" y="578" on="0"/>
        <pt x="2549" y="482" on="0"/>
        <pt x="2533" y="373" on="0"/>
        <pt x="2529" y="261" on="0"/>
        <pt x="2538" y="156" on="0"/>
      </contour>
      <contour>
        <pt x="3154" y="535" on="1"/>
        <pt x="3188" y="585" on="0"/>
        <pt x="3235" y="746" on="0"/>
        <pt x="3258" y="925" on="0"/>
        <pt x="3258" y="1097" on="0"/>
        <pt x="3246" y="1159" on="1"/>
        <pt x="3231" y="1097" on="0"/>
        <pt x="3201" y="946" on="0"/>
        <pt x="3176" y="783" on="0"/>
        <pt x="3158" y="615" on="0"/>
      </contour>
      <contour>
        <pt x="2177" y="690" on="1"/>
        <pt x="2149" y="605" on="0"/>
        <pt x="2122" y="412" on="0"/>
        <pt x="2122" y="315" on="1"/>
        <pt x="2145" y="318" on="0"/>
        <pt x="2179" y="362" on="0"/>
        <pt x="2201" y="427" on="0"/>
        <pt x="2212" y="505" on="0"/>
        <pt x="2212" y="543" on="1"/>
        <pt x="2212" y="588" on="0"/>
        <pt x="2188" y="669" on="0"/>
      </contour>
      <contour>
        <pt x="2441" y="1317" on="1"/>
        <pt x="2426" y="1286" on="0"/>
        <pt x="2394" y="1206" on="0"/>
        <pt x="2355" y="1121" on="0"/>
        <pt x="2308" y="1037" on="0"/>
        <pt x="2248" y="968" on="0"/>
        <pt x="2172" y="919" on="0"/>
        <pt x="2124" y="911" on="1"/>
        <pt x="2138" y="883" on="0"/>
        <pt x="2165" y="831" on="0"/>
        <pt x="2177" y="809" on="1"/>
        <pt x="2177" y="807" on="0"/>
        <pt x="2179" y="805" on="1"/>
        <pt x="2235" y="777" on="0"/>
        <pt x="2298" y="662" on="0"/>
        <pt x="2298" y="571" on="1"/>
        <pt x="2298" y="519" on="0"/>
        <pt x="2276" y="413" on="0"/>
        <pt x="2232" y="322" on="0"/>
        <pt x="2168" y="255" on="0"/>
        <pt x="2126" y="242" on="1"/>
        <pt x="2137" y="198" on="0"/>
        <pt x="2164" y="121" on="0"/>
        <pt x="2193" y="102" on="1"/>
        <pt x="2223" y="114" on="0"/>
        <pt x="2270" y="160" on="0"/>
        <pt x="2307" y="214" on="0"/>
        <pt x="2335" y="272" on="0"/>
        <pt x="2345" y="297" on="1"/>
        <pt x="2345" y="406" on="1"/>
        <pt x="2347" y="461" on="0"/>
        <pt x="2363" y="567" on="0"/>
        <pt x="2394" y="665" on="0"/>
        <pt x="2443" y="753" on="0"/>
        <pt x="2478" y="791" on="1"/>
        <pt x="2513" y="791" on="0"/>
        <pt x="2591" y="776" on="0"/>
        <pt x="2623" y="764" on="1"/>
        <pt x="2626" y="771" on="0"/>
        <pt x="2636" y="815" on="0"/>
        <pt x="2649" y="864" on="0"/>
        <pt x="2663" y="904" on="0"/>
        <pt x="2669" y="909" on="1"/>
        <pt x="2686" y="914" on="0"/>
        <pt x="2738" y="905" on="0"/>
        <pt x="2791" y="885" on="0"/>
        <pt x="2837" y="858" on="0"/>
        <pt x="2849" y="846" on="1"/>
        <pt x="2837" y="765" on="0"/>
        <pt x="2821" y="568" on="0"/>
        <pt x="2819" y="365" on="0"/>
        <pt x="2837" y="172" on="0"/>
        <pt x="2859" y="96" on="1"/>
        <pt x="2874" y="92" on="0"/>
        <pt x="2904" y="118" on="0"/>
        <pt x="2932" y="157" on="0"/>
        <pt x="2954" y="199" on="0"/>
        <pt x="2961" y="211" on="1"/>
        <pt x="2955" y="240" on="1"/>
        <pt x="2935" y="334" on="0"/>
        <pt x="2917" y="542" on="0"/>
        <pt x="2920" y="756" on="0"/>
        <pt x="2942" y="968" on="0"/>
        <pt x="2984" y="1167" on="0"/>
        <pt x="3046" y="1346" on="0"/>
        <pt x="3086" y="1419" on="1"/>
        <pt x="3176" y="1404" on="0"/>
        <pt x="3294" y="1348" on="0"/>
        <pt x="3363" y="1254" on="0"/>
        <pt x="3391" y="1119" on="0"/>
        <pt x="3391" y="1026" on="1"/>
        <pt x="3391" y="938" on="0"/>
        <pt x="3361" y="752" on="0"/>
        <pt x="3302" y="588" on="0"/>
        <pt x="3215" y="464" on="0"/>
        <pt x="3158" y="438" on="1"/>
        <pt x="3158" y="332" on="0"/>
        <pt x="3199" y="161" on="0"/>
        <pt x="3244" y="96" on="1"/>
        <pt x="3306" y="143" on="0"/>
        <pt x="3402" y="311" on="0"/>
        <pt x="3434" y="442" on="1"/>
        <pt x="3445" y="447" on="0"/>
        <pt x="3457" y="446" on="0"/>
        <pt x="3463" y="446" on="1"/>
        <pt x="3465" y="406" on="0"/>
        <pt x="3461" y="312" on="0"/>
        <pt x="3442" y="216" on="0"/>
        <pt x="3406" y="127" on="0"/>
        <pt x="3348" y="58" on="0"/>
        <pt x="3266" y="16" on="0"/>
        <pt x="3211" y="16" on="1"/>
        <pt x="3136" y="16" on="0"/>
        <pt x="3025" y="81" on="0"/>
        <pt x="2990" y="141" on="1"/>
        <pt x="2984" y="117" on="0"/>
        <pt x="2960" y="72" on="0"/>
        <pt x="2926" y="37" on="0"/>
        <pt x="2882" y="16" on="0"/>
        <pt x="2857" y="16" on="1"/>
        <pt x="2828" y="16" on="0"/>
        <pt x="2776" y="40" on="0"/>
        <pt x="2734" y="77" on="0"/>
        <pt x="2702" y="122" on="0"/>
        <pt x="2693" y="143" on="1"/>
        <pt x="2688" y="122" on="0"/>
        <pt x="2659" y="85" on="0"/>
        <pt x="2620" y="57" on="0"/>
        <pt x="2576" y="39" on="0"/>
        <pt x="2556" y="37" on="1"/>
        <pt x="2476" y="37" on="0"/>
        <pt x="2387" y="108" on="0"/>
        <pt x="2372" y="164" on="1"/>
        <pt x="2359" y="143" on="0"/>
        <pt x="2323" y="101" on="0"/>
        <pt x="2277" y="65" on="0"/>
        <pt x="2221" y="40" on="0"/>
        <pt x="2187" y="37" on="1"/>
        <pt x="2107" y="37" on="0"/>
        <pt x="1998" y="101" on="0"/>
        <pt x="1933" y="208" on="0"/>
        <pt x="1908" y="347" on="0"/>
        <pt x="1913" y="422" on="1"/>
        <pt x="1914" y="478" on="0"/>
        <pt x="1927" y="596" on="0"/>
        <pt x="1949" y="706" on="0"/>
        <pt x="1980" y="800" on="0"/>
        <pt x="1999" y="831" on="1"/>
        <pt x="2036" y="836" on="0"/>
        <pt x="2071" y="831" on="1"/>
        <pt x="2061" y="850" on="0"/>
        <pt x="2044" y="892" on="0"/>
        <pt x="2038" y="913" on="1"/>
        <pt x="1996" y="922" on="0"/>
        <pt x="1918" y="964" on="0"/>
        <pt x="1845" y="1023" on="0"/>
        <pt x="1778" y="1093" on="0"/>
        <pt x="1747" y="1130" on="1"/>
        <pt x="1732" y="1143" on="0"/>
        <pt x="1673" y="1157" on="0"/>
        <pt x="1606" y="1170" on="0"/>
        <pt x="1542" y="1190" on="0"/>
        <pt x="1522" y="1208" on="1"/>
        <pt x="1514" y="1215" on="0"/>
        <pt x="1518" y="1229" on="0"/>
        <pt x="1526" y="1229" on="1"/>
        <pt x="1527" y="1227" on="0"/>
        <pt x="1565" y="1222" on="0"/>
        <pt x="1621" y="1216" on="0"/>
        <pt x="1689" y="1210" on="0"/>
        <pt x="1752" y="1205" on="0"/>
        <pt x="1801" y="1202" on="0"/>
        <pt x="1810" y="1202" on="1"/>
        <pt x="1884" y="1216" on="0"/>
        <pt x="2026" y="1242" on="0"/>
        <pt x="2141" y="1266" on="0"/>
        <pt x="2221" y="1289" on="0"/>
        <pt x="2232" y="1300" on="1"/>
        <pt x="2245" y="1345" on="0"/>
        <pt x="2313" y="1395" on="0"/>
        <pt x="2351" y="1395" on="1"/>
        <pt x="2367" y="1395" on="0"/>
        <pt x="2394" y="1390" on="0"/>
        <pt x="2406" y="1382" on="1"/>
        <pt x="2441" y="1395" on="1"/>
        <pt x="2443" y="1395" on="0"/>
        <pt x="2443" y="1394" on="0"/>
        <pt x="2444" y="1394" on="1"/>
        <pt x="2445" y="1394" on="1"/>
        <pt x="2444" y="1393" on="0"/>
        <pt x="2443" y="1393" on="1"/>
        <pt x="2435" y="1354" on="1"/>
        <pt x="2470" y="1354" on="1"/>
        <pt x="2471" y="1352" on="0"/>
        <pt x="2471" y="1352" on="1"/>
        <pt x="2470" y="1352" on="1"/>
      </contour>
      <contour>
        <pt x="2148" y="817" on="1"/>
        <pt x="2134" y="836" on="0"/>
        <pt x="2108" y="883" on="0"/>
        <pt x="2097" y="909" on="1"/>
        <pt x="2066" y="909" on="1"/>
        <pt x="2091" y="829" on="1"/>
        <pt x="2106" y="826" on="0"/>
        <pt x="2134" y="822" on="0"/>
      </contour>
    </TTGlyph>
</ttFont>
